<?xml version="1.0" encoding="utf-8"?>
<!-- Generator: Adobe Illustrator 19.2.0, SVG Export Plug-In . SVG Version: 6.00 Build 0)  -->
<svg version="1.1" id="レイヤー_1" xmlns="http://www.w3.org/2000/svg" xmlns:xlink="http://www.w3.org/1999/xlink" x="0px"
	 y="0px" viewBox="0 0 120 23" style="enable-background:new 0 0 120 23;" xml:space="preserve" height="40">
<style type="text/css">
	.st0{enable-background:new    ;}
	.st1{fill:#FCFAFA;}
</style>
<g class="st0">
	<path class="st1" d="M26.1,3.3v3h1.2l0.4-0.4L29,7c0.3,0.2,0.2,0.4-0.2,0.5c-0.8,1.4-1.6,2.7-2.5,3.9c0.2,0.1,0.4,0.3,0.6,0.4
		c0.5-0.4,1-1.1,1.5-1.9l1.5,1.3c0.1,0.1,0.2,0.2,0.2,0.3c0,0.1,0,0.2-0.1,0.2c-0.1,0.1-0.3,0.1-0.5,0.1c-0.4,0.3-0.7,0.6-1.1,1
		c0.5,0.4,0.9,0.8,1.3,1.2l-1.4,1.8c-0.7-0.8-1.4-1.5-2.2-2.2v6.8H24v-6.6c-0.6,0.6-1.4,1.2-2.3,1.7l-1.1-2c0.5-0.3,1-0.6,1.5-1
		c1.8-1.4,3.2-2.9,4-4.4h-4.7V6.2H24V2.7h1.8C26.4,2.7,26.5,2.9,26.1,3.3z M37.8,18.4c-0.1,0.6-0.4,1.2-0.9,1.6
		c-0.3,0.2-0.7,0.4-1.1,0.4h-2.9l-0.3-2.1H35c0.3,0,0.4,0,0.5-0.1c0.1-0.1,0.1-0.3,0.2-0.5c0.3-2.9,0.4-6.4,0.3-10.4h-2.4v4.3
		c0,1.3-0.3,2.7-0.9,4c-1,2.1-2.6,3.8-4.6,5.1l-1.4-1.8c1-0.6,1.8-1.2,2.4-1.9c1.5-1.4,2.3-3.2,2.3-5.4V7.1h-2.1V5.1h8.8
		C38.1,10.9,38,15.4,37.8,18.4z"/>
	<path class="st1" d="M48.9,3.3v2h1.6v1.8h-1.6v6.1h1.8V15h-3.1c0.8,0.6,1.4,1.3,2,1.9l-1.5,1.4c-0.7-0.8-1.4-1.5-2.1-2.2l1.5-1.1
		h-3.4l1.5,0.8c-0.3,0.5-0.6,1-0.9,1.6c-0.8,1.1-1.7,2.1-2.5,2.8l-1.6-1.6c0.6-0.4,1.2-1.1,1.9-2c0.5-0.6,0.9-1.2,1.1-1.6h-3.2v-1.8
		h2.3V7.1h-1.8V5.3h1.8V2.7h1.7C44.9,2.8,45,3,44.6,3.3v1.9H47V2.7h1.7C49.3,2.7,49.4,2.9,48.9,3.3z M44.6,7.1v0.7H47V7.1H44.6z
		 M44.6,9.6v0.8H47V9.6H44.6z M44.6,12.2v1H47v-1H44.6z M51.3,3.5h6.4v15.1c0,0.2,0,0.4-0.1,0.6c-0.2,0.6-0.7,1-1.5,1h-2.1L53.8,18
		h1.2c0.2,0,0.3,0,0.4-0.1c0.1-0.1,0.1-0.2,0.1-0.4V14h-2.1v0.2c0,0.5-0.1,1.1-0.3,1.8c-0.4,1.4-1.7,2.9-3.8,4.5l-1.5-1.6
		c0.9-0.6,1.6-1.3,2.1-1.9c0.9-1,1.3-2.1,1.3-3.1V3.5z M53.5,5.4v2.3h2.1V5.4H53.5z M53.5,9.7v2.4h2.1V9.7H53.5z"/>
	<path class="st1" d="M67.2,7.7h-7.3V5.8h7.3V7.7z M74.7,7.8c0,0.1,0,0.2,0.1,0.3c0,0.1,0.2,0.1,0.3,0.1h0.2c0.2,0,0.3-0.1,0.4-0.4
		l0.2-1L78,7.2l-0.3,1.7c-0.1,0.1-0.1,0.3-0.2,0.4c-0.2,0.5-0.6,0.7-1.2,0.7H74c-0.1,0-0.2,0-0.4-0.1c-0.4-0.1-0.6-0.3-0.8-0.7
		c-0.2-0.2-0.2-0.5-0.2-0.8V5.3h-2V7c0,0.4-0.1,0.8-0.2,1.1c-0.3,1.1-1,2.1-2.1,2.8h6.5l0.3-0.3l1.1,1c0.4,0.3,0.3,0.5-0.1,0.6
		c-0.3,0.8-0.8,1.8-1.4,2.9c-0.4,0.5-0.7,1-1.1,1.3c0.4,0.2,0.9,0.5,1.5,0.7c1,0.3,2,0.6,3,0.8l-0.8,2.2c-0.7-0.1-1.4-0.4-2.1-0.7
		c-1.1-0.4-2.1-1-3.1-1.7c-0.2,0.2-0.4,0.4-0.7,0.6c-1.1,0.8-2.4,1.5-3.9,2.1l-0.8-1.4V20h-2v-0.3h-2.4v0.7h-2v-6.6h6.4v4.6
		c0.4-0.1,0.8-0.2,1.3-0.4c1-0.4,1.9-0.9,2.5-1.4c-1-1.1-1.6-2.4-2-3.7h-1.1v-1.9l-1.1-1.3c0.4-0.2,0.8-0.5,1.1-0.9
		c0.6-0.6,0.8-1.4,0.8-2.2V3.3h6.3V7.8z M66.4,5.1h-5.5V3.1h5.5V5.1z M66.4,10.3h-5.5V8.5h5.5V10.3z M66.4,13h-5.5v-1.8h5.5V13z
		 M62.5,15.6v2.3h2.4v-2.3H62.5z M70.7,12.8c0.1,0.2,0.1,0.4,0.2,0.6c0.4,0.8,0.8,1.4,1.2,1.9c0.7-0.8,1.2-1.6,1.5-2.5H70.7z"/>
	<path class="st1" d="M94.2,10.3h-4.4v2.2h5.4v1.9h-5.4v3.1c0.3,0.1,0.7,0.1,1.1,0.1h6.3l-0.3,2.1h-6.1c-0.5,0-1,0-1.5-0.1
		c-1.8-0.4-3.3-1.3-4.6-2.8c-0.7,1.4-1.9,2.6-3.5,3.6l-1.5-1.8c1.5-0.7,2.5-1.7,3.1-2.8c0.6-1.2,0.9-2.7,1-4.5l2,0.6
		c0.2,0,0.3,0.1,0.4,0.2c0,0.1,0.1,0.2,0.1,0.2c-0.1,0.1-0.2,0.2-0.4,0.3c-0.2,0.8-0.3,1.7-0.5,2.5c0.1,0.1,0.2,0.3,0.4,0.4
		c0.5,0.5,1.1,0.9,1.8,1.3v-6.5h-4.7V8.4h11.3V10.3z M90,3c-0.1,0.1-0.2,0.2-0.3,0.3v1.5h7v4.3h-2.1V6.8H82.5v2.5h-2.1V4.8h7V2.7h2
		C89.9,2.7,90.1,2.8,90,3z"/>
</g>
</svg>
