<?xml version="1.0" encoding="utf-8"?>
<!-- Generator: Adobe Illustrator 19.2.0, SVG Export Plug-In . SVG Version: 6.00 Build 0)  -->
<svg version="1.1" id="レイヤー_1" xmlns="http://www.w3.org/2000/svg" xmlns:xlink="http://www.w3.org/1999/xlink" x="0px"
	 y="0px" viewBox="0 0 93.9 40.1" style="enable-background:new 0 0 93.9 40.1;" xml:space="preserve" height="60">
<style type="text/css">
	.st0{enable-background:new    ;}
	.st1{fill:#FCFAFA;}
</style>
<g class="st0">
	<path class="st1" d="M2.6,5.5C2.5,5.6,2.5,5.7,2.4,5.7c0.1,0.9,0,2.1-0.2,3.5C2.1,9.8,2,10.3,1.8,10.7L0,9.7
		c0.2-0.4,0.4-1.2,0.5-2.2c0.1-1.1,0.1-2,0.1-2.8L2.2,5C2.6,5,2.7,5.2,2.6,5.5z M4.7,1.4v3.4l1.1-1.1l0.7,1.4C6.7,4.2,6.9,2.7,7,0.8
		h1.2c0.7,0,1,0.2,0.9,0.4C9,1.3,8.9,1.3,8.8,1.3C8.7,1.7,8.7,2.1,8.6,2.5h2.8c0,0.8,0,1.6-0.1,2.3h1v-4h1.8c0.6,0,0.7,0.2,0.3,0.6
		v1.2l1.2-1c0.7,0.6,1.3,1.3,1.8,1.9l-1.5,1.1C15.5,4,15,3.4,14.4,2.8v2h3.4v1.8h-3.4c0.1,0.4,0.3,0.8,0.5,1.1
		c0.8,1.4,1.9,2.7,3.4,3.7l-0.8,1.9c-1.3-0.8-2.5-2.2-3.7-4c-0.3,0.6-0.6,1.3-1.1,2c-0.6,0.9-1.3,1.6-2.1,2.2L9.2,12
		c1.8-1.4,2.9-3.2,3.3-5.5h-1.2c-0.1,0.8-0.4,1.7-0.8,2.6c-0.9,1.6-2.1,3-3.6,4l-1.4-1.4c0.5-0.2,0.9-0.5,1.3-0.9
		c0.7-0.5,1.1-1.1,1.4-1.6c-0.4-0.3-0.7-0.6-1-0.8C6.9,8.8,6.5,9.3,6.1,9.7L5,8.3c0.7-0.6,1.2-1.5,1.5-2.7L4.8,6.9v5.3l1.7,1.7
		c0-0.2,0.1-0.4,0.2-0.6l1.8,0.6C8.4,14.4,8.2,15,8,15.6c-0.4,1-0.8,1.9-1.3,2.5l-1.6-1c0.1-0.1,0.2-0.3,0.4-0.5
		c0.5-0.7,0.9-1.5,1.1-2.2l-1.3,1.4c-0.3-0.4-0.7-0.9-1.1-1.4c-0.6,1.7-1.4,3-2.4,4l-1.4-1.5c0.4-0.4,0.8-1,1.1-1.6
		c0.7-1.3,1.1-2.6,1.1-4V0.8h1.7C5,0.8,5.1,1,4.7,1.4z M8.9,7.8C9,7.6,9.1,7.3,9.2,7.1L8,6.4L7.8,7.1C8.1,7.4,8.5,7.6,8.9,7.8z
		 M8.5,5c0.4,0.1,0.7,0.3,1.1,0.5c0.1-0.3,0.2-0.8,0.2-1.3H8.6C8.6,4.5,8.5,4.8,8.5,5z M11.2,17.6l-2.3,0.2c0.2-1.3,0.1-2.6-0.2-3.9
		l2-0.1C11.1,15,11.2,16.3,11.2,17.6z M14.7,17.2l-2.3,0.3c-0.2-1.5-0.5-2.8-0.9-3.9l1.8-0.2C14,14.6,14.4,15.9,14.7,17.2z
		 M18.3,16.9l-2,0.9c-0.5-1.3-1.2-2.7-2.1-4L16,13C16.9,14.1,17.7,15.4,18.3,16.9z"/>
	<path class="st1" d="M32.2,1.4c0.1,0.2-0.1,0.3-0.3,0.4c-0.1,0.8-0.1,1.7-0.2,2.5c2-0.3,3.6,0.1,4.6,1c0.9,0.8,1.3,1.8,1.3,3
		c0,1.4-0.4,2.5-1.1,3.2c-0.8,0.7-1.7,1.1-2.8,1.1c-0.9,0-1.6-0.1-2.1-0.2c-0.9-0.2-1.7-0.6-2.3-1l1-2c0.5,0.3,1.1,0.6,1.7,0.8
		s1.1,0.3,1.5,0.3c1.4,0,2.1-0.6,2.1-1.9c0-0.7-0.2-1.3-0.6-1.7c-0.5-0.5-1.3-0.7-2.3-0.7c-0.8,0-1.8,0.2-2.9,0.6
		c-1.3,0.4-2.3,0.8-3,1.2c1,3.5,2.1,6.3,3.3,8.6L28,17.7c-1.3-2.7-2.4-5.7-3.2-8.9c-1.1,0.5-2.3,1.1-3.4,1.6l-1.1-2.2
		c1.4-0.4,2.8-1,4.1-1.6c-0.3-1.5-0.5-3.1-0.6-4.7h2c0.4,0,0.7,0.1,0.8,0.2c0.1,0.2-0.1,0.3-0.4,0.4c0.1,1.3,0.2,2.4,0.4,3.3
		c0.8-0.3,1.9-0.7,2.9-1c0.1-1.2,0.1-2.4,0.1-3.6h2C31.9,1.2,32.1,1.3,32.2,1.4z"/>
	<path class="st1" d="M50.3,0.8c0.1,0.1-0.1,0.3-0.3,0.4v2.7l6.7-0.4v2.2L50,5.9v2.3c0.3,0.8,0.5,1.9,0.5,3.2c0,2-0.7,3.6-2,4.9
		c-0.7,0.7-1.5,1.3-2.3,1.8l-2-1.3c1.1-0.7,2-1.4,2.8-2.1c0.7-0.7,1.1-1.4,1.1-1.9c-0.5,0.2-1.1,0.4-2,0.4c-0.8,0-1.4-0.3-2-0.8
		c-0.6-0.6-0.9-1.2-0.9-1.9c0-1,0.3-1.8,0.8-2.4c0.5-0.4,1-0.8,1.7-1C46.2,7,46.9,6.9,47.8,7V6.1l-8.1,0.5l-0.3-2.2L47.7,4V0.5h2
		C50,0.5,50.2,0.6,50.3,0.8z M45.6,9c-0.3,0.2-0.5,0.6-0.5,1c0,0.3,0.1,0.7,0.4,1c0.2,0.2,0.6,0.4,1.1,0.4s0.8-0.1,1.1-0.4
		c0.3-0.3,0.5-0.6,0.5-1c0-0.3-0.2-0.7-0.5-1c-0.3-0.2-0.6-0.4-1.1-0.4C46.2,8.7,45.8,8.8,45.6,9z"/>
	<path class="st1" d="M72,13.8V16h-9.3c-2.9,0-4.2-1.4-3.9-4.1c0.1-0.5,0.3-1.1,0.5-1.7l2.2,0.6C61.1,11.4,61,12,61,12.6
		c0,0.8,0.7,1.3,2,1.3h9V13.8z M69.9,2.9c-0.2-0.1-0.3-0.2-0.4-0.2l1-1.1c1.4,0.8,2.5,1.5,3.3,2.2l-1,1.2c-0.8-0.7-1.6-1.3-2.3-1.7
		v1.9H59.9V2.9H69.9L69.9,2.9z M74.8,2l-1,1.3c-0.6-0.6-1.2-1-1.7-1.3c-0.6-0.3-1.1-0.6-1.7-0.9l1-1.1C72.7,0.5,73.8,1.2,74.8,2z"/>
	<path class="st1" d="M84.4,1.9l1.5,1.3c0.4,0.3,0.3,0.6-0.3,0.9c-0.6,1.3-1.1,2.7-1.7,4c1.5,0.2,3.1,0.5,4.6,1c0-1.5,0-3,0-4.3
		l2,0.4c0.4,0.1,0.6,0.2,0.6,0.4c0,0.1-0.1,0.2-0.4,0.3c0,0.9,0,2.3-0.2,4c1.1,0.4,2.2,0.9,3.4,1.6l-1.1,1.9c-0.9-0.5-1.8-1-2.8-1.4
		c-0.6,2.1-1.7,4-3.2,5.4L85,16c1.4-1.2,2.4-2.8,3.1-4.8c-1.8-0.6-3.5-1-5.1-1.2c-0.3,0.7-0.7,1.7-1.4,2.9c-0.4,0.7-0.9,1.4-1.6,2.1
		c-0.5,0.5-1.1,0.7-1.9,0.7c-0.6,0-1.2-0.2-1.7-0.7c-0.6-0.5-0.8-1.3-0.8-2.2c0-1.2,0.5-2.3,1.5-3.2c1.2-1.1,2.7-1.7,4.7-1.7
		c0.4-0.7,0.8-1.9,1.4-3.6c-1.2,0.2-2.5,0.5-4.1,0.9l-0.6-2.1c0.8,0,1.8-0.1,3-0.3c0.8-0.1,1.5-0.3,2-0.4
		C83.8,2.2,84.1,2.1,84.4,1.9z M78.3,13.7c0.3,0.1,0.7-0.2,1.1-0.8c0.6-0.9,1.1-1.8,1.6-2.8c-2,0.2-3.1,1.1-3.3,2.8
		C77.7,13.3,77.9,13.6,78.3,13.7z"/>
</g>
<path class="st1" d="M10.3,22.7c-2.4,2.3-3.6,5-3.6,8.1c0,3,1.2,5.7,3.6,8.1l-1.4,1.2c-2.7-2.6-4-5.7-4-9.2c0-3.6,1.3-6.7,4-9.2
	L10.3,22.7z"/>
<path class="st1" d="M18.8,23.5c0.8,0.7,1.1,1.7,1.1,3c0,1.4-0.6,2.5-1.7,3.4c1.3,0.9,2,2.2,2,3.7c0,1.4-0.4,2.6-1.2,3.4
	c-0.8,0.8-1.8,1.2-3,1.2s-2.2-0.4-3-1.2c-0.8-0.8-1.2-1.9-1.2-3.4c0-1.3,0.6-2.5,1.8-3.7c-1-0.8-1.5-2-1.5-3.4c0-1.2,0.4-2.2,1.1-3
	c0.7-0.6,1.6-1,2.8-1C17.2,22.5,18.1,22.9,18.8,23.5z M14.6,35.5c0.4,0.4,0.9,0.6,1.5,0.6s1-0.2,1.5-0.6c0.5-0.5,0.8-1.2,0.8-2
	s-0.3-1.5-0.8-2c-0.4-0.4-0.9-0.6-1.5-0.6s-1,0.2-1.5,0.6c-0.5,0.5-0.8,1.2-0.8,2S14.1,35,14.6,35.5z M17.3,25
	c-0.4-0.3-0.8-0.5-1.3-0.5S15,24.7,14.6,25c-0.4,0.4-0.6,0.9-0.6,1.6c0,0.6,0.2,1.2,0.6,1.6c0.4,0.3,0.8,0.5,1.3,0.5
	s0.9-0.2,1.3-0.5c0.4-0.4,0.6-0.9,0.6-1.6C17.8,25.9,17.7,25.4,17.3,25z"/>
<path class="st1" d="M24.4,27.9H22v-2.4h2.4V27.9z M24.4,36H22v-2.4h2.4V36z"/>
<path class="st1" d="M32.8,29.8c1.3,1.1,1.9,2.4,1.9,3.9c0,1.3-0.4,2.4-1.3,3.2c-0.8,0.7-1.8,1.1-3,1.1c-1.1,0-2.1-0.4-2.8-1.1
	c-0.8-0.7-1.2-2.1-1.4-4.1h2c0,1.3,0.3,2.3,0.9,2.9c0.4,0.3,0.8,0.5,1.4,0.5s1.1-0.2,1.5-0.6c0.5-0.4,0.7-1.1,0.7-1.9
	s-0.3-1.5-0.8-2s-1.4-0.8-2.4-0.7v-2.2c1.9,0.2,2.8-0.6,2.8-2.4c0-0.7-0.2-1.2-0.6-1.6c-0.3-0.3-0.7-0.4-1.2-0.4s-0.9,0.1-1.2,0.4
	c-0.6,0.5-0.8,1.4-0.8,2.5h-2c0.1-1.6,0.6-2.9,1.4-3.7c0.7-0.7,1.6-1,2.6-1c1.1,0,2,0.3,2.8,1c0.7,0.7,1.1,1.6,1.1,2.8
	C34.4,27.8,33.9,28.9,32.8,29.8z"/>
<path class="st1" d="M43.9,23.5c1.3,1.2,1.9,3.5,1.9,6.8s-0.6,5.5-1.9,6.8c-0.7,0.6-1.5,1-2.6,1s-1.9-0.3-2.6-1
	c-1.3-1.2-1.9-3.5-1.9-6.8s0.6-5.5,1.9-6.8c0.7-0.6,1.5-1,2.6-1S43.1,22.9,43.9,23.5z M39.9,24.9c-0.8,0.8-1.2,2.6-1.2,5.4
	s0.4,4.6,1.2,5.4c0.4,0.4,0.8,0.6,1.3,0.6s0.9-0.2,1.3-0.6c0.8-0.8,1.2-2.6,1.2-5.4s-0.4-4.6-1.2-5.4c-0.4-0.4-0.8-0.6-1.3-0.6
	S40.4,24.5,39.9,24.9z"/>
<path class="st1" d="M57.4,22.4c0,0.1-0.1,0.3-0.3,0.4v2.1l6.2-0.2v2.1L57.1,27v2.1L62,29v2.1l-4.9,0.1v2.1c2.2,0.5,4.2,1.3,6,2.3
	l-1,2c-1.7-0.9-3.4-1.7-5.1-2.2c-0.3,2.4-1.7,3.7-4.2,3.7c-1.2,0-2.2-0.3-2.8-1c-0.6-0.5-0.8-1.2-0.8-2c0-0.8,0.3-1.6,0.9-2.2
	c0.8-0.7,1.8-1.1,3.2-1.1c0.4,0,0.9,0,1.5,0.1v-1.6l-5.7,0.1l-0.2-2.1l5.9-0.1v-2l-7.1,0.2l-0.2-2.1l7.3-0.2v-2.9h2
	C57.3,22.2,57.4,22.2,57.4,22.4z M51.8,35.1c-0.4,0.2-0.6,0.6-0.6,1c0,0.8,0.7,1.1,1.9,1c0.5,0,0.9-0.2,1.2-0.4
	c0.4-0.2,0.5-0.8,0.5-1.7c-0.7-0.1-1.3-0.2-1.8-0.2C52.6,34.8,52.1,34.9,51.8,35.1z"/>
<path class="st1" d="M81.6,26.2c-1.5-0.1-2.8-0.1-3.8,0.2c-1.6,0.4-2.8,1-3.6,1.8c-1,1-1.5,2.2-1.5,3.6c0,1.2,0.4,2.2,1.1,2.9
	c1,1,3,1.5,6,1.6l-0.6,2.2c-0.8,0-1.6-0.1-2.4-0.3c-0.8-0.1-1.7-0.4-2.5-0.7c-1.4-0.5-2.3-1.3-2.9-2.2c-0.6-1-0.9-2-0.9-3
	c-0.1-1,0.1-2,0.4-2.8c0.3-0.8,0.9-1.7,1.8-2.5c-1.9,0.2-4.1,0.6-6.7,1l-0.5-2.4c5.4-0.3,10.6-0.9,15.7-1.8L81.6,26.2z M80.6,30.8
	L79.5,32c-1-0.8-2-1.5-3.2-2.2l1.1-1.1C78.9,29.6,79.9,30.3,80.6,30.8z M82.1,29L81,30.2c-1.1-0.7-2.1-1.5-3.2-2.2l1-1.1
	C80.1,27.6,81.3,28.3,82.1,29z"/>
<path class="st1" d="M84.4,40l-1.4-1.2c2.4-2.3,3.6-5,3.6-8.1c0-3-1.2-5.7-3.6-8.1l1.4-1.2c2.7,2.6,4,5.7,4,9.2
	C88.4,34.3,87.1,37.4,84.4,40z"/>
</svg>
