<?xml version="1.0" encoding="utf-8"?>
<!-- Generator: Adobe Illustrator 19.2.0, SVG Export Plug-In . SVG Version: 6.00 Build 0)  -->
<svg version="1.1" id="レイヤー_1" xmlns="http://www.w3.org/2000/svg" xmlns:xlink="http://www.w3.org/1999/xlink" x="0px"
	 y="0px" viewBox="0 0 120 40" style="enable-background:new 0 0 120 40;" xml:space="preserve">
<style type="text/css">
	.st0{enable-background:new    ;}
	.st1{fill:#FCFAFA;}
</style>
<g class="st0">
	<path class="st1" d="M13.1,16.2c-0.1,0.1-0.1,0.2-0.2,0.2c0.1,0.9,0,2.1-0.2,3.5c-0.1,0.6-0.2,1.1-0.4,1.5l-1.8-1
		c0.2-0.4,0.4-1.2,0.5-2.2c0.1-1.1,0.1-2,0.1-2.8l1.6,0.3C13.1,15.7,13.2,15.9,13.1,16.2z M15.2,12.1v3.4l1.1-1.1l0.7,1.4
		c0.2-0.9,0.4-2.4,0.5-4.3h1.2c0.7,0,1,0.2,0.9,0.4C19.5,12,19.4,12,19.3,12c-0.1,0.4-0.1,0.8-0.2,1.2h2.8c0,0.8,0,1.6-0.1,2.3h1v-4
		h1.8c0.6,0,0.7,0.2,0.3,0.6v1.2l1.2-1c0.7,0.6,1.3,1.3,1.8,1.9l-1.5,1.1c-0.4-0.6-0.9-1.2-1.5-1.8v2h3.4v1.8h-3.4
		c0.1,0.4,0.3,0.8,0.5,1.1c0.8,1.4,1.9,2.7,3.4,3.7L28,24c-1.3-0.8-2.5-2.2-3.7-4c-0.3,0.6-0.6,1.3-1.1,2c-0.6,0.9-1.3,1.6-2.1,2.2
		l-1.4-1.5c1.8-1.4,2.9-3.2,3.3-5.5h-1.2c-0.1,0.8-0.4,1.7-0.8,2.6c-0.9,1.6-2.1,3-3.6,4L16,22.4c0.5-0.2,0.9-0.5,1.3-0.9
		c0.7-0.5,1.1-1.1,1.4-1.6c-0.4-0.3-0.7-0.6-1-0.8c-0.3,0.4-0.7,0.9-1.1,1.3L15.5,19c0.7-0.6,1.2-1.5,1.5-2.7l-1.7,1.3v5.3l1.7,1.7
		c0-0.2,0.1-0.4,0.2-0.6l1.8,0.6c-0.1,0.5-0.3,1.1-0.5,1.7c-0.4,1-0.8,1.9-1.3,2.5l-1.6-1c0.1-0.1,0.2-0.3,0.4-0.5
		c0.5-0.7,0.9-1.5,1.1-2.2l-1.3,1.4c-0.3-0.4-0.7-0.9-1.1-1.4c-0.6,1.7-1.4,3-2.4,4l-1.4-1.5c0.4-0.4,0.8-1,1.1-1.6
		c0.7-1.3,1.1-2.6,1.1-4V11.5h1.7C15.5,11.5,15.6,11.7,15.2,12.1z M19.4,18.5c0.1-0.2,0.2-0.5,0.3-0.7l-1.2-0.7l-0.2,0.7
		C18.6,18.1,19,18.3,19.4,18.5z M19,15.7c0.4,0.1,0.7,0.3,1.1,0.5c0.1-0.3,0.2-0.8,0.2-1.3h-1.2C19.1,15.2,19,15.5,19,15.7z
		 M21.7,28.3l-2.3,0.2c0.2-1.3,0.1-2.6-0.2-3.9l2-0.1C21.6,25.7,21.7,27,21.7,28.3z M25.2,27.9l-2.3,0.3c-0.2-1.5-0.5-2.8-0.9-3.9
		l1.8-0.2C24.5,25.3,24.9,26.6,25.2,27.9z M28.8,27.6l-2,0.9c-0.5-1.3-1.2-2.7-2.1-4l1.8-0.8C27.4,24.8,28.2,26.1,28.8,27.6z"/>
	<path class="st1" d="M42.7,12.1c0.1,0.2-0.1,0.3-0.3,0.4c-0.1,0.8-0.1,1.7-0.2,2.5c2-0.3,3.6,0.1,4.6,1c0.9,0.8,1.3,1.8,1.3,3
		c0,1.4-0.4,2.5-1.1,3.2c-0.8,0.7-1.7,1.1-2.8,1.1c-0.9,0-1.6-0.1-2.1-0.2c-0.9-0.2-1.7-0.6-2.3-1l1-2c0.5,0.3,1.1,0.6,1.7,0.8
		c0.6,0.2,1.1,0.3,1.5,0.3c1.4,0,2.1-0.6,2.1-1.9c0-0.7-0.2-1.3-0.6-1.7c-0.5-0.5-1.3-0.7-2.3-0.7c-0.8,0-1.8,0.2-2.9,0.6
		c-1.3,0.4-2.3,0.8-3,1.2c1,3.5,2.1,6.3,3.3,8.6l-2.1,1.1c-1.3-2.7-2.4-5.7-3.2-8.9c-1.1,0.5-2.3,1.1-3.4,1.6l-1.1-2.2
		c1.4-0.4,2.8-1,4.1-1.6c-0.3-1.5-0.5-3.1-0.6-4.7h2c0.4,0,0.7,0.1,0.8,0.2c0.1,0.2-0.1,0.3-0.4,0.4c0.1,1.3,0.2,2.4,0.4,3.3
		c0.8-0.3,1.9-0.7,2.9-1c0.1-1.2,0.1-2.4,0.1-3.6h2C42.4,11.9,42.6,12,42.7,12.1z"/>
	<path class="st1" d="M60.8,11.5c0.1,0.1-0.1,0.3-0.3,0.4v2.7l6.7-0.4v2.2l-6.7,0.2v2.3c0.3,0.8,0.5,1.9,0.5,3.2c0,2-0.7,3.6-2,4.9
		c-0.7,0.7-1.5,1.3-2.3,1.8l-2-1.3c1.1-0.7,2-1.4,2.8-2.1c0.7-0.7,1.1-1.4,1.1-1.9c-0.5,0.2-1.1,0.4-2,0.4c-0.8,0-1.4-0.3-2-0.8
		c-0.6-0.6-0.9-1.2-0.9-1.9c0-1,0.3-1.8,0.8-2.4c0.5-0.4,1-0.8,1.7-1c0.5-0.1,1.2-0.2,2.1-0.1v-0.9l-8.1,0.5l-0.3-2.2l8.3-0.4v-3.5
		h2C60.5,11.2,60.7,11.3,60.8,11.5z M56.1,19.7c-0.3,0.2-0.5,0.6-0.5,1c0,0.3,0.1,0.7,0.4,1c0.2,0.2,0.6,0.4,1.1,0.4
		s0.8-0.1,1.1-0.4c0.3-0.3,0.5-0.6,0.5-1c0-0.3-0.2-0.7-0.5-1c-0.3-0.2-0.6-0.4-1.1-0.4C56.7,19.4,56.3,19.5,56.1,19.7z"/>
	<path class="st1" d="M82.5,24.5v2.2h-9.3c-2.9,0-4.2-1.4-3.9-4.1c0.1-0.5,0.3-1.1,0.5-1.7l2.2,0.6c-0.4,0.6-0.5,1.2-0.5,1.8
		c0,0.8,0.7,1.3,2,1.3h9V24.5z M80.4,13.6c-0.2-0.1-0.3-0.2-0.4-0.2l1-1.1c1.4,0.8,2.5,1.5,3.3,2.2l-1,1.2C82.5,15,81.7,14.4,81,14
		v1.9H70.4v-2.3H80.4L80.4,13.6z M85.3,12.7l-1,1.3c-0.6-0.6-1.2-1-1.7-1.3c-0.6-0.3-1.1-0.6-1.7-0.9l1-1.1
		C83.2,11.2,84.3,11.9,85.3,12.7z"/>
	<path class="st1" d="M94.9,12.6l1.5,1.3c0.4,0.3,0.3,0.6-0.3,0.9c-0.6,1.3-1.1,2.7-1.7,4c1.5,0.2,3.1,0.5,4.6,1c0-1.5,0-3,0-4.3
		l2,0.4c0.4,0.1,0.6,0.2,0.6,0.4c0,0.1-0.1,0.2-0.4,0.3c0,0.9,0,2.3-0.2,4c1.1,0.4,2.2,0.9,3.4,1.6l-1.1,1.9c-0.9-0.5-1.8-1-2.8-1.4
		c-0.6,2.1-1.7,4-3.2,5.4l-1.8-1.4c1.4-1.2,2.4-2.8,3.1-4.8c-1.8-0.6-3.5-1-5.1-1.2c-0.3,0.7-0.7,1.7-1.4,2.9
		c-0.4,0.7-0.9,1.4-1.6,2.1c-0.5,0.5-1.1,0.7-1.9,0.7c-0.6,0-1.2-0.2-1.7-0.7c-0.6-0.5-0.8-1.3-0.8-2.2c0-1.2,0.5-2.3,1.5-3.2
		c1.2-1.1,2.7-1.7,4.7-1.7c0.4-0.7,0.8-1.9,1.4-3.6c-1.2,0.2-2.5,0.5-4.1,0.9L89,13.8c0.8,0,1.8-0.1,3-0.3c0.8-0.1,1.5-0.3,2-0.4
		C94.3,12.9,94.6,12.8,94.9,12.6z M88.8,24.4c0.3,0.1,0.7-0.2,1.1-0.8c0.6-0.9,1.1-1.8,1.6-2.8c-2,0.2-3.1,1.1-3.3,2.8
		C88.2,24,88.4,24.3,88.8,24.4z"/>
</g>
<path class="st1" d="M112.5,12c-2.4,2.3-3.6,5-3.6,8.1c0,3,1.2,5.7,3.6,8.1l-1.4,1.2c-2.7-2.6-4-5.7-4-9.2c0-3.6,1.3-6.7,4-9.2
	L112.5,12z"/>
<path class="st1" d="M121,12.8c0.8,0.7,1.1,1.7,1.1,3c0,1.4-0.6,2.5-1.7,3.4c1.3,0.9,2,2.2,2,3.7c0,1.4-0.4,2.6-1.2,3.4
	c-0.8,0.8-1.8,1.2-3,1.2s-2.2-0.4-3-1.2c-0.8-0.8-1.2-1.9-1.2-3.4c0-1.3,0.6-2.5,1.8-3.7c-1-0.8-1.5-2-1.5-3.4c0-1.2,0.4-2.2,1.1-3
	c0.7-0.6,1.6-1,2.8-1C119.4,11.8,120.3,12.2,121,12.8z M116.8,24.8c0.4,0.4,0.9,0.6,1.5,0.6c0.6,0,1-0.2,1.5-0.6
	c0.5-0.5,0.8-1.2,0.8-2c0-0.8-0.3-1.5-0.8-2c-0.4-0.4-0.9-0.6-1.5-0.6c-0.6,0-1,0.2-1.5,0.6c-0.5,0.5-0.8,1.2-0.8,2
	S116.3,24.3,116.8,24.8z M119.5,14.3c-0.4-0.3-0.8-0.5-1.3-0.5s-0.9,0.2-1.3,0.5c-0.4,0.4-0.6,0.9-0.6,1.6c0,0.6,0.2,1.2,0.6,1.6
	c0.4,0.3,0.8,0.5,1.3,0.5s0.9-0.2,1.3-0.5c0.4-0.4,0.6-0.9,0.6-1.6C120.1,15.2,119.9,14.7,119.5,14.3z"/>
<path class="st1" d="M126.7,17.1h-2.4v-2.4h2.4V17.1z M126.7,25.3h-2.4v-2.4h2.4V25.3z"/>
<path class="st1" d="M135.1,19.1c1.3,1.1,1.9,2.4,1.9,3.9c0,1.3-0.4,2.4-1.3,3.2c-0.8,0.7-1.8,1.1-3,1.1c-1.1,0-2.1-0.4-2.8-1.1
	c-0.8-0.7-1.2-2.1-1.4-4.1h2c0,1.3,0.3,2.3,0.9,2.9c0.4,0.3,0.8,0.5,1.4,0.5c0.6,0,1.1-0.2,1.5-0.6c0.5-0.4,0.7-1.1,0.7-1.9
	c0-0.8-0.3-1.5-0.8-2s-1.4-0.8-2.4-0.7v-2.2c1.9,0.2,2.8-0.6,2.8-2.4c0-0.7-0.2-1.2-0.6-1.6c-0.3-0.3-0.7-0.4-1.2-0.4
	s-0.9,0.1-1.2,0.4c-0.6,0.5-0.8,1.4-0.8,2.5h-2c0.1-1.6,0.6-2.9,1.4-3.7c0.7-0.7,1.6-1,2.6-1c1.1,0,2,0.3,2.8,1
	c0.7,0.7,1.1,1.6,1.1,2.8C136.7,17.1,136.2,18.1,135.1,19.1z"/>
<path class="st1" d="M146.1,12.8c1.3,1.2,1.9,3.5,1.9,6.8s-0.6,5.5-1.9,6.8c-0.7,0.6-1.5,1-2.6,1s-1.9-0.3-2.6-1
	c-1.3-1.2-1.9-3.5-1.9-6.8s0.6-5.5,1.9-6.8c0.7-0.6,1.5-1,2.6-1S145.4,12.2,146.1,12.8z M142.2,14.2c-0.8,0.8-1.2,2.6-1.2,5.4
	s0.4,4.6,1.2,5.4c0.4,0.4,0.8,0.6,1.3,0.6s0.9-0.2,1.3-0.6c0.8-0.8,1.2-2.6,1.2-5.4s-0.4-4.6-1.2-5.4c-0.4-0.4-0.8-0.6-1.3-0.6
	S142.6,13.8,142.2,14.2z"/>
<path class="st1" d="M159.7,11.7c0,0.1-0.1,0.3-0.3,0.4v2.1l6.2-0.2v2.1l-6.2,0.2v2.1l4.9-0.1v2.1l-4.9,0.1v2.1
	c2.2,0.5,4.2,1.3,6,2.3l-1,2c-1.7-0.9-3.4-1.7-5.1-2.2c-0.3,2.4-1.7,3.7-4.2,3.7c-1.2,0-2.2-0.3-2.8-1c-0.6-0.5-0.8-1.2-0.8-2
	s0.3-1.6,0.9-2.2c0.8-0.7,1.8-1.1,3.2-1.1c0.4,0,0.9,0,1.5,0.1v-1.6l-5.7,0.1l-0.2-2.1l5.9-0.1v-2l-7.1,0.2l-0.2-2.1l7.3-0.2v-2.9h2
	C159.5,11.5,159.7,11.5,159.7,11.7z M154,24.4c-0.4,0.2-0.6,0.6-0.6,1c0,0.8,0.7,1.1,1.9,1c0.5,0,0.9-0.2,1.2-0.4
	c0.4-0.2,0.5-0.8,0.5-1.7c-0.7-0.1-1.3-0.2-1.8-0.2C154.8,24.1,154.4,24.1,154,24.4z"/>
<path class="st1" d="M183.8,15.5c-1.5-0.1-2.8-0.1-3.8,0.2c-1.6,0.4-2.8,1-3.6,1.8c-1,1-1.5,2.2-1.5,3.6c0,1.2,0.4,2.2,1.1,2.9
	c1,1,3,1.5,6,1.6l-0.6,2.2c-0.8,0-1.6-0.1-2.4-0.3c-0.8-0.1-1.7-0.4-2.5-0.7c-1.4-0.5-2.3-1.3-2.9-2.2c-0.6-1-0.9-2-0.9-3
	c-0.1-1,0.1-2,0.4-2.8c0.3-0.8,0.9-1.7,1.8-2.5c-1.9,0.2-4.1,0.6-6.7,1l-0.5-2.4c5.4-0.3,10.6-0.9,15.7-1.8L183.8,15.5z M182.9,20.1
	l-1.1,1.2c-1-0.8-2-1.5-3.2-2.2l1.1-1.1C181.2,18.9,182.2,19.6,182.9,20.1z M184.4,18.3l-1.1,1.2c-1.1-0.7-2.1-1.5-3.2-2.2l1-1.1
	C182.4,16.9,183.5,17.6,184.4,18.3z"/>
<path class="st1" d="M186.7,29.3l-1.4-1.2c2.4-2.3,3.6-5,3.6-8.1c0-3-1.2-5.7-3.6-8.1l1.4-1.2c2.7,2.6,4,5.7,4,9.2
	C190.6,23.6,189.3,26.7,186.7,29.3z"/>
</svg>
