<?xml version="1.0" encoding="utf-8"?>
<!-- Generator: Adobe Illustrator 19.2.0, SVG Export Plug-In . SVG Version: 6.00 Build 0)  -->
<svg version="1.1" id="レイヤー_1" xmlns="http://www.w3.org/2000/svg" xmlns:xlink="http://www.w3.org/1999/xlink" x="0px"
	 y="0px" viewBox="0 0 120 23" style="enable-background:new 0 0 120 23;" xml:space="preserve" height="46px">
<style type="text/css">
	.st0{enable-background:new    ;}
	.st1{fill:#FCFAFA;}
</style>
<g class="st0">
	<path class="st1" d="M13.1,7.7c-0.1,0.1-0.1,0.2-0.2,0.2c0.1,0.9,0,2.1-0.2,3.5c-0.1,0.6-0.2,1.1-0.4,1.5l-1.8-1
		c0.2-0.4,0.4-1.2,0.5-2.2c0.1-1.1,0.1-2,0.1-2.8l1.6,0.3C13.1,7.2,13.2,7.4,13.1,7.7z M15.2,3.6v3.4l1.1-1.1l0.7,1.4
		c0.2-0.9,0.4-2.4,0.5-4.3h1.2c0.7,0,1,0.2,0.9,0.4c-0.1,0.1-0.2,0.1-0.3,0.1c-0.1,0.4-0.1,0.8-0.2,1.2h2.8c0,0.8,0,1.6-0.1,2.3h1V3
		h1.8c0.6,0,0.7,0.2,0.3,0.6v1.2l1.2-1c0.7,0.6,1.3,1.3,1.8,1.9l-1.5,1.1c-0.4-0.6-0.9-1.2-1.5-1.8V7h3.4v1.8h-3.4
		c0.1,0.4,0.3,0.8,0.5,1.1c0.8,1.4,1.9,2.7,3.4,3.7L28,15.5c-1.3-0.8-2.5-2.2-3.7-4c-0.3,0.6-0.6,1.3-1.1,2
		c-0.6,0.9-1.3,1.6-2.1,2.2l-1.4-1.5c1.8-1.4,2.9-3.2,3.3-5.5h-1.2c-0.1,0.8-0.4,1.7-0.8,2.6c-0.9,1.6-2.1,3-3.6,4L16,13.9
		c0.5-0.2,0.9-0.5,1.3-0.9c0.7-0.5,1.1-1.1,1.4-1.6c-0.4-0.3-0.7-0.6-1-0.8c-0.3,0.4-0.7,0.9-1.1,1.3l-1.1-1.4
		c0.7-0.6,1.2-1.5,1.5-2.7l-1.7,1.3v5.3l1.7,1.7c0-0.2,0.1-0.4,0.2-0.6l1.8,0.6c-0.1,0.5-0.3,1.1-0.5,1.7c-0.4,1-0.8,1.9-1.3,2.5
		l-1.6-1c0.1-0.1,0.2-0.3,0.4-0.5c0.5-0.7,0.9-1.5,1.1-2.2L15.8,18c-0.3-0.4-0.7-0.9-1.1-1.4c-0.6,1.7-1.4,3-2.4,4l-1.4-1.5
		c0.4-0.4,0.8-1,1.1-1.6c0.7-1.3,1.1-2.6,1.1-4V3h1.7C15.5,3,15.6,3.2,15.2,3.6z M19.4,10c0.1-0.2,0.2-0.5,0.3-0.7l-1.2-0.7
		l-0.2,0.7C18.6,9.6,19,9.8,19.4,10z M19,7.2c0.4,0.1,0.7,0.3,1.1,0.5c0.1-0.3,0.2-0.8,0.2-1.3h-1.2C19.1,6.7,19,7,19,7.2z
		 M21.7,19.8L19.4,20c0.2-1.3,0.1-2.6-0.2-3.9l2-0.1C21.6,17.2,21.7,18.5,21.7,19.8z M25.2,19.4l-2.3,0.3c-0.2-1.5-0.5-2.8-0.9-3.9
		l1.8-0.2C24.5,16.8,24.9,18.1,25.2,19.4z M28.8,19.1L26.8,20c-0.5-1.3-1.2-2.7-2.1-4l1.8-0.8C27.4,16.3,28.2,17.6,28.8,19.1z"/>
	<path class="st1" d="M42.7,3.6c0.1,0.2-0.1,0.3-0.3,0.4c-0.1,0.8-0.1,1.7-0.2,2.5c2-0.3,3.6,0.1,4.6,1c0.9,0.8,1.3,1.8,1.3,3
		c0,1.4-0.4,2.5-1.1,3.2c-0.8,0.7-1.7,1.1-2.8,1.1c-0.9,0-1.6-0.1-2.1-0.2c-0.9-0.2-1.7-0.6-2.3-1l1-2c0.5,0.3,1.1,0.6,1.7,0.8
		c0.6,0.2,1.1,0.3,1.5,0.3c1.4,0,2.1-0.6,2.1-1.9c0-0.7-0.2-1.3-0.6-1.7c-0.5-0.5-1.3-0.7-2.3-0.7c-0.8,0-1.8,0.2-2.9,0.6
		c-1.3,0.4-2.3,0.8-3,1.2c1,3.5,2.1,6.3,3.3,8.6l-2.1,1.1c-1.3-2.7-2.4-5.7-3.2-8.9c-1.1,0.5-2.3,1.1-3.4,1.6l-1.1-2.2
		c1.4-0.4,2.8-1,4.1-1.6c-0.3-1.5-0.5-3.1-0.6-4.7h2c0.4,0,0.7,0.1,0.8,0.2c0.1,0.2-0.1,0.3-0.4,0.4c0.1,1.3,0.2,2.4,0.4,3.3
		C37.9,7.7,39,7.3,40,7c0.1-1.2,0.1-2.4,0.1-3.6h2C42.4,3.4,42.6,3.5,42.7,3.6z"/>
	<path class="st1" d="M60.8,3c0.1,0.1-0.1,0.3-0.3,0.4v2.7l6.7-0.4v2.2l-6.7,0.2v2.3c0.3,0.8,0.5,1.9,0.5,3.2c0,2-0.7,3.6-2,4.9
		c-0.7,0.7-1.5,1.3-2.3,1.8l-2-1.3c1.1-0.7,2-1.4,2.8-2.1c0.7-0.7,1.1-1.4,1.1-1.9c-0.5,0.2-1.1,0.4-2,0.4c-0.8,0-1.4-0.3-2-0.8
		c-0.6-0.6-0.9-1.2-0.9-1.9c0-1,0.3-1.8,0.8-2.4c0.5-0.4,1-0.8,1.7-1c0.5-0.1,1.2-0.2,2.1-0.1V8.3l-8.1,0.5l-0.3-2.2l8.3-0.4V2.7h2
		C60.5,2.7,60.7,2.8,60.8,3z M56.1,11.2c-0.3,0.2-0.5,0.6-0.5,1c0,0.3,0.1,0.7,0.4,1c0.2,0.2,0.6,0.4,1.1,0.4c0.5,0,0.8-0.1,1.1-0.4
		c0.3-0.3,0.5-0.6,0.5-1c0-0.3-0.2-0.7-0.5-1c-0.3-0.2-0.6-0.4-1.1-0.4C56.7,10.9,56.3,11,56.1,11.2z"/>
	<path class="st1" d="M82.5,16v2.2h-9.3c-2.9,0-4.2-1.4-3.9-4.1c0.1-0.5,0.3-1.1,0.5-1.7L72,13c-0.4,0.6-0.5,1.2-0.5,1.8
		c0,0.8,0.7,1.3,2,1.3H82.5z M80.4,5.1C80.2,5,80.1,4.9,80,4.9L81,3.8c1.4,0.8,2.5,1.5,3.3,2.2l-1,1.2c-0.8-0.7-1.6-1.3-2.3-1.7v1.9
		H70.4V5.1h10.1C80.5,5.1,80.4,5.1,80.4,5.1z M85.3,4.2l-1,1.3c-0.6-0.6-1.2-1-1.7-1.3c-0.6-0.3-1.1-0.6-1.7-0.9l1-1.1
		C83.2,2.7,84.3,3.4,85.3,4.2z"/>
	<path class="st1" d="M94.9,4.1l1.5,1.3c0.4,0.3,0.3,0.6-0.3,0.9c-0.6,1.3-1.1,2.7-1.7,4c1.5,0.2,3.1,0.5,4.6,1c0-1.5,0-3,0-4.3
		l2,0.4c0.4,0.1,0.6,0.2,0.6,0.4c0,0.1-0.1,0.2-0.4,0.3c0,0.9,0,2.3-0.2,4c1.1,0.4,2.2,0.9,3.4,1.6l-1.1,1.9c-0.9-0.5-1.8-1-2.8-1.4
		c-0.6,2.1-1.7,4-3.2,5.4l-1.8-1.4c1.4-1.2,2.4-2.8,3.1-4.8c-1.8-0.6-3.5-1-5.1-1.2c-0.3,0.7-0.7,1.7-1.4,2.9
		c-0.4,0.7-0.9,1.4-1.6,2.1c-0.5,0.5-1.1,0.7-1.9,0.7c-0.6,0-1.2-0.2-1.7-0.7c-0.6-0.5-0.8-1.3-0.8-2.2c0-1.2,0.5-2.3,1.5-3.2
		c1.2-1.1,2.7-1.7,4.7-1.7c0.4-0.7,0.8-1.9,1.4-3.6c-1.2,0.2-2.5,0.5-4.1,0.9L89,5.3c0.8,0,1.8-0.1,3-0.3c0.8-0.1,1.5-0.3,2-0.4
		C94.3,4.4,94.6,4.3,94.9,4.1z M88.8,15.9c0.3,0.1,0.7-0.2,1.1-0.8c0.6-0.9,1.1-1.8,1.6-2.8c-2,0.2-3.1,1.1-3.3,2.8
		C88.2,15.5,88.4,15.8,88.8,15.9z"/>
</g>
</svg>
