<?xml version="1.0" encoding="utf-8"?>
<!-- Generator: Adobe Illustrator 19.2.0, SVG Export Plug-In . SVG Version: 6.00 Build 0)  -->
<svg version="1.1" id="レイヤー_1" xmlns="http://www.w3.org/2000/svg" xmlns:xlink="http://www.w3.org/1999/xlink" x="0px"
	 y="0px" viewBox="0 0 120 23" style="enable-background:new 0 0 120 23;" xml:space="preserve" height="23px">
<style type="text/css">
	.st0{enable-background:new    ;}
	.st1{fill:#FCFAFA;}
</style>
<g class="st0">
	<path class="st1" d="M17.2,10c-0.2,0-0.3,0-0.5-0.1c-0.3-0.2-0.5-0.4-0.6-0.7c-0.1-0.2-0.1-0.4-0.1-0.5l0.2-1.9h-0.8
		c-0.1,0.5-0.2,1.1-0.5,1.6c-0.6,1.2-1.8,2.1-3.4,2.8l-1.1-1.6c0.3,0,0.5-0.1,0.7-0.2c0.9-0.3,1.5-0.8,2-1.5c0.2-0.3,0.3-0.7,0.4-1
		h-2V4.9h2.1V2.7h1.7c0.6,0,0.7,0.2,0.3,0.6v1.6h2.8L18,8c0,0.2,0.1,0.3,0.2,0.3c0.1,0,0.1,0,0.2-0.1c0.1,0,0.1-0.1,0.1-0.2l0.1-1
		l1.7,0.3c0.6-1.4,1-2.9,1.1-4.3l1.5,0.2c0.7,0.1,0.9,0.3,0.7,0.6C23.5,4,23.4,4,23.3,4c-0.3,0.9-0.5,1.7-0.7,2.5h1.4
		C24.5,5,24.7,3.9,24.8,3l1.7,0.4c0.4,0.1,0.5,0.2,0.5,0.4C26.9,4,26.7,4,26.5,4.1c-0.2,0.8-0.4,1.6-0.7,2.4h2.6v1.8h-2.7V10H28v1.8
		h-2.2v1.9H28v1.8h-2.2v2.3h3.1v1.8h-6.6v0.7h-2v-9.5c-0.4,0.4-0.7,0.8-1,1.2L18,10.8c0.3-0.2,0.5-0.5,0.7-0.8H17.2z M16.2,13.5v0.6
		c1.3,0.6,2.5,1.3,3.4,2.2l-1.2,1.6c-0.8-0.7-1.5-1.3-2.2-1.7v4.3h-2v-3.9c-0.6,0.7-1.4,1.5-2.4,2.2l-1.4-1.6
		c0.7-0.3,1.4-0.9,2.1-1.6c0.7-0.7,1.3-1.4,1.6-2h-3.2v-1.8h3.3V9.8h1.7c0.6,0.1,0.7,0.2,0.3,0.6v1.3H19v1.8H16.2z M22.3,8.3V10h1.5
		V8.3H22.3z M22.3,11.8v1.9h1.5v-1.9H22.3z M22.3,15.4v2.3h1.5v-2.3H22.3z"/>
	<path class="st1" d="M36.7,7.6h-6.4V5.6h6.4V7.6z M43.4,3.1v2.5h4.4v1.9h-4.4v1.6h4v1.9H42c0.8,0.7,1.6,1.8,2.5,3.1l-1.7,1.3
		c-0.3-0.6-0.8-1.3-1.4-2.2v4.2c0,0.1,0,0.2,0.1,0.3c0.1,0,0.2,0.1,0.3,0.1h1.4c0.2,0,0.3-0.1,0.4-0.4l0.2-1.3l2.1,0.5l-0.4,1.9
		c-0.2,0.8-0.7,1.3-1.4,1.3h-3.4c-0.3,0-0.6-0.1-0.8-0.2c-0.3-0.2-0.5-0.5-0.5-1v-4.2l-0.2,0.2c0.1,0.9-0.2,2.5-0.8,4.7l-1.7-0.7V20
		h-2.1v-0.7H33v1h-2.1v-6.6h5.8v4.5c0.4-1.3,0.6-2.8,0.6-4.5l1.8,0.1c0.2,0.1,0.3,0.1,0.5,0.1V13h1.8c-0.3-0.3-0.6-0.6-0.8-0.9
		l1.3-1h-4.1V9.2h3.5V7.5h-4V5.6h4V2.5h1.8C43.7,2.6,43.8,2.8,43.4,3.1z M36.4,4.9h-5.1V3h5.1V4.9z M36.4,10.3h-5.1V8.5h5.1V10.3z
		 M36.4,12.9h-5.1v-1.8h5.1V12.9z M33,15.4v2h1.5v-2H33z M46.3,13.2c0.4,0.4,0.7,1,1.1,1.6c0.7,1.1,1.1,2.1,1.4,3.1l-1.9,0.8
		c-0.4-1.5-1.1-3-2.1-4.5L46.3,13.2z"/>
	<path class="st1" d="M52,13.4V9.6h3.9v3.8H52z"/>
	<path class="st1" d="M74.1,5.9c0.4,0.5,0.3,0.8-0.3,0.7c-1.7,0.4-3,0.7-3.9,0.7v2.6h6.3V12h-6.4c-0.1,1.8-0.5,3.3-1.5,4.6
		c-0.8,1.1-2,2.2-3.5,3.1L63.1,18c2.7-1.3,4.2-3.3,4.4-6h-7.7V9.9h7.7V7.6c-1,0.1-1.9,0.2-2.8,0.2c-1,0.1-1.9,0.1-2.9,0.1l-0.5-2
		c2.2,0,4.2-0.1,6-0.3c1.8-0.1,3.8-0.5,5.7-1L74.1,5.9z"/>
	<path class="st1" d="M92.1,9.3c0.5,0.4,0.5,0.6,0.1,0.7c-0.5,2.7-1.5,4.8-3.1,6.5c-1.5,1.7-3.7,3-6.4,3.9l-1.4-2.1
		c4.7-1.3,7.4-3.8,8.3-7.5H78.2V8.6h12.1l0.6-0.3L92.1,9.3z M90.2,6.6H79.6V4.4h10.6V6.6z"/>
	<path class="st1" d="M95.7,8.1c1.8,0.9,3.2,1.8,4.4,2.6l-1.4,1.7c-1.1-0.8-2.4-1.7-4.1-2.7L95.7,8.1z M98.3,18.9
		c0,0.3-0.1,0.5-0.4,0.6c-0.2,0-0.4-0.1-0.6-0.6l-1-1.9c3.2-0.7,5.8-1.8,7.9-3.2c2-1.4,3.7-3.1,5-5.2l1.5,1.3
		C108.4,14.3,104.3,17.3,98.3,18.9z M101,8c-1.1-0.9-2.5-1.8-4.1-2.7L98,3.6c1.5,0.7,3,1.6,4.4,2.7L101,8z"/>
</g>
</svg>
