<?xml version="1.0" encoding="utf-8"?>
<!-- Generator: Adobe Illustrator 19.2.0, SVG Export Plug-In . SVG Version: 6.00 Build 0)  -->
<svg version="1.1" id="レイヤー_1" xmlns="http://www.w3.org/2000/svg" xmlns:xlink="http://www.w3.org/1999/xlink" x="0px"
	 y="0px" viewBox="0 0 100.3 42.2" style="enable-background:new 0 0 100.3 42.2;" xml:space="preserve" height="60">
<style type="text/css">
	.st0{enable-background:new    ;}
	.st1{fill:#FCFAFA;}
</style>
<g class="st0">
	<path class="st1" d="M6.8,7.5c-0.2,0-0.3,0-0.5-0.1C6,7.2,5.8,7,5.7,6.7C5.6,6.5,5.6,6.3,5.6,6.2l0.2-1.9H5
		C4.9,4.8,4.8,5.4,4.5,5.9C3.9,7.1,2.7,8,1.1,8.7L0,7.1c0.3,0,0.5-0.1,0.7-0.2c0.9-0.3,1.5-0.8,2-1.5c0.2-0.3,0.3-0.7,0.4-1h-2v-2
		h2.1V0.2h1.7c0.6,0,0.7,0.2,0.3,0.6v1.6H8L7.6,5.5c0,0.2,0.1,0.3,0.2,0.3s0.1,0,0.2-0.1c0.1,0,0.1-0.1,0.1-0.2l0.1-1l1.7,0.3
		c0.6-1.4,1-2.9,1.1-4.3l1.5,0.2c0.7,0.1,0.9,0.3,0.7,0.6c-0.1,0.2-0.2,0.2-0.3,0.2c-0.3,0.9-0.5,1.7-0.7,2.5h1.4
		c0.5-1.5,0.7-2.6,0.8-3.5l1.7,0.4c0.4,0.1,0.5,0.2,0.5,0.4c-0.1,0.2-0.3,0.2-0.5,0.3c-0.2,0.8-0.4,1.6-0.7,2.4H18v1.8h-2.7v1.7h2.3
		v1.8h-2.2v1.9h2.2V13h-2.2v2.3h3.1v1.8h-6.6v0.7h-2V8.3c-0.4,0.4-0.7,0.8-1,1.2L7.6,8.3c0.3-0.2,0.5-0.5,0.7-0.8H6.8z M5.8,11v0.6
		c1.3,0.6,2.5,1.3,3.4,2.2L8,15.4c-0.8-0.7-1.5-1.3-2.2-1.7V18h-2v-3.9c-0.6,0.7-1.4,1.5-2.4,2.2L0,14.7c0.7-0.3,1.4-0.9,2.1-1.6
		c0.7-0.7,1.3-1.4,1.6-2H0.5V9.3h3.3v-2h1.7c0.6,0.1,0.7,0.2,0.3,0.6v1.3h2.8V11H5.8z M11.9,5.8v1.7h1.5V5.8H11.9z M11.9,9.3v1.9
		h1.5V9.3H11.9z M11.9,12.9v2.3h1.5v-2.3H11.9z"/>
	<path class="st1" d="M26.3,5.1h-6.4v-2h6.4V5.1z M33,0.6v2.5h4.4V5H33v1.6h4v1.9h-5.4c0.8,0.7,1.6,1.8,2.5,3.1l-1.7,1.3
		c-0.3-0.6-0.8-1.3-1.4-2.2v4.2c0,0.1,0,0.2,0.1,0.3c0.1,0,0.2,0.1,0.3,0.1h1.4c0.2,0,0.3-0.1,0.4-0.4l0.2-1.3l2.1,0.5L35.1,16
		c-0.2,0.8-0.7,1.3-1.4,1.3h-3.4c-0.3,0-0.6-0.1-0.8-0.2c-0.3-0.2-0.5-0.5-0.5-1v-4.2l-0.2,0.2c0.1,0.9-0.2,2.5-0.8,4.7l-1.7-0.7
		v1.4h-2.1v-0.7h-1.6v1h-2.1v-6.6h5.8v4.5c0.4-1.3,0.6-2.8,0.6-4.5l1.8,0.1c0.2,0.1,0.3,0.1,0.5,0.1v-0.9H31
		c-0.3-0.3-0.6-0.6-0.8-0.9l1.3-1h-4.1V6.7h3.5V5h-4V3.1h4V0h1.8C33.3,0.1,33.4,0.3,33,0.6z M26,2.4h-5.1V0.5H26V2.4z M26,7.8h-5.1
		V6H26V7.8z M26,10.4h-5.1V8.6H26V10.4z M22.6,12.9v2h1.5v-2H22.6z M35.9,10.7c0.4,0.4,0.7,1,1.1,1.6c0.7,1.1,1.1,2.1,1.4,3.1
		l-1.9,0.8c-0.4-1.5-1.1-3-2.1-4.5L35.9,10.7z"/>
	<path class="st1" d="M41.6,10.9V7.1h3.9v3.8H41.6z"/>
	<path class="st1" d="M63.7,3.4c0.4,0.5,0.3,0.8-0.3,0.7c-1.7,0.4-3,0.7-3.9,0.7v2.6h6.3v2.1h-6.4c-0.1,1.8-0.5,3.3-1.5,4.6
		c-0.8,1.1-2,2.2-3.5,3.1l-1.7-1.7c2.7-1.3,4.2-3.3,4.4-6h-7.7V7.4h7.7V5.1c-1,0.1-1.9,0.2-2.8,0.2c-1,0.1-1.9,0.1-2.9,0.1l-0.5-2
		c2.2,0,4.2-0.1,6-0.3c1.8-0.1,3.8-0.5,5.7-1L63.7,3.4z"/>
	<path class="st1" d="M81.7,6.8c0.5,0.4,0.5,0.6,0.1,0.7c-0.5,2.7-1.5,4.8-3.1,6.5c-1.5,1.7-3.7,3-6.4,3.9l-1.4-2.1
		c4.7-1.3,7.4-3.8,8.3-7.5H67.8V6.1h12.1l0.6-0.3L81.7,6.8z M79.8,4.1H69.2V1.9h10.6C79.8,1.9,79.8,4.1,79.8,4.1z"/>
	<path class="st1" d="M85.3,5.6c1.8,0.9,3.2,1.8,4.4,2.6l-1.4,1.7c-1.1-0.8-2.4-1.7-4.1-2.7L85.3,5.6z M87.9,16.4
		c0,0.3-0.1,0.5-0.4,0.6c-0.2,0-0.4-0.1-0.6-0.6l-1-1.9c3.2-0.7,5.8-1.8,7.9-3.2c2-1.4,3.7-3.1,5-5.2l1.5,1.3
		C98,11.8,93.9,14.8,87.9,16.4z M90.6,5.5c-1.1-0.9-2.5-1.8-4.1-2.7l1.1-1.7c1.5,0.7,3,1.6,4.4,2.7L90.6,5.5z"/>
</g>
<path class="st1" d="M14.7,24.8c-2.4,2.3-3.6,5-3.6,8.1c0,3,1.2,5.7,3.6,8.1l-1.4,1.2c-2.7-2.6-4-5.7-4-9.2c0-3.6,1.3-6.7,4-9.2
	L14.7,24.8z"/>
<path class="st1" d="M23.2,25.6c0.8,0.7,1.1,1.7,1.1,3c0,1.4-0.6,2.5-1.7,3.4c1.3,0.9,2,2.2,2,3.7c0,1.4-0.4,2.6-1.2,3.4
	c-0.8,0.8-1.8,1.2-3,1.2s-2.2-0.4-3-1.2c-0.8-0.8-1.2-1.9-1.2-3.4c0-1.3,0.6-2.5,1.8-3.7c-1-0.8-1.5-2-1.5-3.4c0-1.2,0.4-2.2,1.1-3
	c0.7-0.6,1.6-1,2.8-1C21.5,24.6,22.4,25,23.2,25.6z M18.9,37.6c0.4,0.4,0.9,0.6,1.5,0.6s1-0.2,1.5-0.6c0.5-0.5,0.8-1.2,0.8-2
	c0-0.8-0.3-1.5-0.8-2C21.5,33.2,21,33,20.4,33s-1,0.2-1.5,0.6c-0.5,0.5-0.8,1.2-0.8,2C18.2,36.4,18.4,37.1,18.9,37.6z M21.7,27.1
	c-0.4-0.3-0.8-0.5-1.3-0.5s-0.9,0.2-1.3,0.5c-0.4,0.4-0.6,0.9-0.6,1.6c0,0.6,0.2,1.2,0.6,1.6c0.4,0.3,0.8,0.5,1.3,0.5
	s0.9-0.2,1.3-0.5c0.4-0.4,0.6-0.9,0.6-1.6C22.3,28,22,27.5,21.7,27.1z"/>
<path class="st1" d="M28.8,30h-2.4v-2.4h2.4V30z M28.8,38.1h-2.4v-2.4h2.4V38.1z"/>
<path class="st1" d="M37.2,31.9c1.3,1.1,1.9,2.4,1.9,3.9c0,1.3-0.4,2.4-1.3,3.2c-0.8,0.7-1.8,1.1-3,1.1c-1.1,0-2.1-0.4-2.8-1.1
	c-0.8-0.7-1.2-2.1-1.4-4.1h2c0,1.3,0.3,2.3,0.9,2.9c0.4,0.3,0.8,0.5,1.4,0.5c0.6,0,1.1-0.2,1.5-0.6c0.5-0.4,0.7-1.1,0.7-1.9
	s-0.3-1.5-0.8-2s-1.4-0.8-2.4-0.7v-2.2c1.9,0.2,2.8-0.6,2.8-2.4c0-0.7-0.2-1.2-0.6-1.6c-0.3-0.3-0.7-0.4-1.2-0.4s-0.9,0.1-1.2,0.4
	c-0.6,0.5-0.8,1.4-0.8,2.5h-2c0.1-1.6,0.6-2.9,1.4-3.7c0.7-0.7,1.6-1,2.6-1c1.1,0,2,0.3,2.8,1c0.7,0.7,1.1,1.6,1.1,2.8
	C38.8,29.9,38.3,31,37.2,31.9z"/>
<path class="st1" d="M48.2,25.6c1.3,1.2,1.9,3.5,1.9,6.8s-0.6,5.5-1.9,6.8c-0.7,0.6-1.5,1-2.6,1s-1.9-0.3-2.6-1
	c-1.3-1.2-1.9-3.5-1.9-6.8s0.6-5.5,1.9-6.8c0.7-0.6,1.5-1,2.6-1S47.5,25,48.2,25.6z M44.3,27c-0.8,0.8-1.2,2.6-1.2,5.4
	s0.4,4.6,1.2,5.4c0.4,0.4,0.8,0.6,1.3,0.6s0.9-0.2,1.3-0.6c0.8-0.8,1.2-2.6,1.2-5.4S47.8,27.8,47,27c-0.4-0.4-0.8-0.6-1.3-0.6
	S44.7,26.6,44.3,27z"/>
<path class="st1" d="M61.8,24.5c0,0.1-0.1,0.3-0.3,0.4V27l6.2-0.2v2.1l-6.2,0.2v2.1l4.9-0.1v2.1l-4.9,0.1v2.1c2.2,0.5,4.2,1.3,6,2.3
	l-1,2c-1.7-0.9-3.4-1.7-5.1-2.2c-0.3,2.4-1.7,3.7-4.2,3.7c-1.2,0-2.2-0.3-2.8-1c-0.6-0.5-0.8-1.2-0.8-2s0.3-1.6,0.9-2.2
	c0.8-0.7,1.8-1.1,3.2-1.1c0.4,0,0.9,0,1.5,0.1v-1.6l-5.7,0.1l-0.2-2.1l5.9-0.1v-2l-7.1,0.2L52,27.4l7.3-0.2v-2.9h2
	C61.7,24.3,61.8,24.3,61.8,24.5z M56.2,37.2c-0.4,0.2-0.6,0.6-0.6,1c0,0.8,0.7,1.1,1.9,1c0.5,0,0.9-0.2,1.2-0.4
	c0.4-0.2,0.5-0.8,0.5-1.7c-0.7-0.1-1.3-0.2-1.8-0.2C57,36.9,56.5,37,56.2,37.2z"/>
<path class="st1" d="M86,28.3c-1.5-0.1-2.8-0.1-3.8,0.2c-1.6,0.4-2.8,1-3.6,1.8c-1,1-1.5,2.2-1.5,3.6c0,1.2,0.4,2.2,1.1,2.9
	c1,1,3,1.5,6,1.6l-0.6,2.2c-0.8,0-1.6-0.1-2.4-0.3c-0.8-0.1-1.7-0.4-2.5-0.7c-1.4-0.5-2.3-1.3-2.9-2.2c-0.6-1-0.9-2-0.9-3
	c-0.1-1,0.1-2,0.4-2.8c0.3-0.8,0.9-1.7,1.8-2.5c-1.9,0.2-4.1,0.6-6.7,1l-0.5-2.4c5.4-0.3,10.6-0.9,15.7-1.8L86,28.3z M85,32.9
	l-1.1,1.2c-1-0.8-2-1.5-3.2-2.2l1.1-1.1C83.3,31.7,84.3,32.4,85,32.9z M86.5,31.1l-1.1,1.2c-1.1-0.7-2.1-1.5-3.2-2.2l1-1.1
	C84.5,29.7,85.7,30.4,86.5,31.1z"/>
<path class="st1" d="M88.8,42.1l-1.4-1.2c2.4-2.3,3.6-5,3.6-8.1c0-3-1.2-5.7-3.6-8.1l1.4-1.2c2.7,2.6,4,5.7,4,9.2
	C92.7,36.4,91.5,39.5,88.8,42.1z"/>
</svg>
