<?xml version="1.0" encoding="utf-8"?>
<!-- Generator: Adobe Illustrator 19.2.0, SVG Export Plug-In . SVG Version: 6.00 Build 0)  -->
<svg version="1.1" id="レイヤー_1" xmlns="http://www.w3.org/2000/svg" xmlns:xlink="http://www.w3.org/1999/xlink" x="0px"
	 y="0px" viewBox="0 0 186.5 18.8" style="enable-background:new 0 0 186.5 18.8;" xml:space="preserve" height="40">
<style type="text/css">
	.st0{enable-background:new    ;}
	.st1{fill:#FCFAFA;}
</style>
<g class="st0">
	<path class="st1" d="M6.8,8.3c-0.2,0-0.3,0-0.5-0.1C6,8,5.8,7.8,5.7,7.5C5.6,7.3,5.6,7.1,5.6,7l0.2-1.9H5C4.9,5.6,4.8,6.2,4.5,6.7
		C3.9,7.9,2.7,8.8,1.1,9.5L0,7.9c0.3,0,0.5-0.1,0.7-0.2c0.9-0.3,1.5-0.8,2-1.5c0.2-0.3,0.3-0.7,0.4-1h-2v-2h2.1V1h1.7
		c0.6,0,0.7,0.2,0.3,0.6v1.6H8L7.6,6.3c0,0.2,0.1,0.3,0.2,0.3s0.1,0,0.2-0.1c0.1,0,0.1-0.1,0.1-0.2l0.1-1l1.7,0.3
		c0.6-1.4,1-2.9,1.1-4.3l1.5,0.2c0.7,0.1,0.9,0.3,0.7,0.6c-0.1,0.2-0.2,0.2-0.3,0.2c-0.3,0.9-0.5,1.7-0.7,2.5h1.4
		c0.5-1.5,0.7-2.6,0.8-3.5l1.7,0.4c0.4,0.1,0.5,0.2,0.5,0.4c-0.1,0.2-0.3,0.2-0.5,0.3c-0.2,0.8-0.4,1.6-0.7,2.4H18v1.8h-2.7v1.7h2.3
		v1.8h-2.2V12h2.2v1.8h-2.2v2.3h3.1v1.8h-6.6v0.7h-2V9.1c-0.4,0.4-0.7,0.8-1,1.2L7.6,9.1c0.3-0.2,0.5-0.5,0.7-0.8H6.8z M5.8,11.8
		v0.6c1.3,0.6,2.5,1.3,3.4,2.2L8,16.2c-0.8-0.7-1.5-1.3-2.2-1.7v4.3h-2v-3.9c-0.6,0.7-1.4,1.5-2.4,2.2L0,15.5
		c0.7-0.3,1.4-0.9,2.1-1.6c0.7-0.7,1.3-1.4,1.6-2H0.5v-1.8h3.3v-2h1.7c0.6,0.1,0.7,0.2,0.3,0.6V10h2.8v1.8
		C8.6,11.8,5.8,11.8,5.8,11.8z M11.9,6.6v1.7h1.5V6.6H11.9z M11.9,10.1V12h1.5v-1.9H11.9z M11.9,13.7V16h1.5v-2.3
		C13.4,13.7,11.9,13.7,11.9,13.7z"/>
	<path class="st1" d="M26.3,5.9h-6.4v-2h6.4V5.9z M33,1.4v2.5h4.4v1.9H33v1.6h4v1.9h-5.4c0.8,0.7,1.6,1.8,2.5,3.1l-1.7,1.3
		c-0.3-0.6-0.8-1.3-1.4-2.2v4.2c0,0.1,0,0.2,0.1,0.3c0.1,0,0.2,0.1,0.3,0.1h1.4c0.2,0,0.3-0.1,0.4-0.4l0.2-1.3l2.1,0.5l-0.4,1.9
		c-0.2,0.8-0.7,1.3-1.4,1.3h-3.4c-0.3,0-0.6-0.1-0.8-0.2c-0.3-0.2-0.5-0.5-0.5-1v-4.2l-0.2,0.2c0.1,0.9-0.2,2.5-0.8,4.7l-1.7-0.7
		v1.4h-2.1v-0.7h-1.6v1h-2.1V12h5.8v4.5c0.4-1.3,0.6-2.8,0.6-4.5l1.8,0.1c0.2,0.1,0.3,0.1,0.5,0.1v-0.9H31c-0.3-0.3-0.6-0.6-0.8-0.9
		l1.3-1h-4.1V7.5h3.5V5.8h-4V3.9h4V0.8h1.8C33.3,0.9,33.4,1.1,33,1.4z M26,3.2h-5.1V1.3H26V3.2z M26,8.6h-5.1V6.8H26V8.6z M26,11.2
		h-5.1V9.4H26V11.2z M22.6,13.7v2h1.5v-2H22.6z M35.9,11.5c0.4,0.4,0.7,1,1.1,1.6c0.7,1.1,1.1,2.1,1.4,3.1L36.5,17
		c-0.4-1.5-1.1-3-2.1-4.5L35.9,11.5z"/>
	<path class="st1" d="M41.6,11.7V7.9h3.9v3.8C45.5,11.7,41.6,11.7,41.6,11.7z"/>
	<path class="st1" d="M63.7,4.2C64.1,4.7,64,5,63.4,4.9c-1.7,0.4-3,0.7-3.9,0.7v2.6h6.3v2.1h-6.4c-0.1,1.8-0.5,3.3-1.5,4.6
		c-0.8,1.1-2,2.2-3.5,3.1l-1.7-1.7c2.7-1.3,4.2-3.3,4.4-6h-7.7V8.2h7.7V5.9c-1,0.1-1.9,0.2-2.8,0.2c-1,0.1-1.9,0.1-2.9,0.1l-0.5-2
		c2.2,0,4.2-0.1,6-0.3c1.8-0.1,3.8-0.5,5.7-1L63.7,4.2z"/>
	<path class="st1" d="M81.7,7.6c0.5,0.4,0.5,0.6,0.1,0.7c-0.5,2.7-1.5,4.8-3.1,6.5c-1.5,1.7-3.7,3-6.4,3.9l-1.4-2.1
		c4.7-1.3,7.4-3.8,8.3-7.5H67.8V6.9h12.1l0.6-0.3L81.7,7.6z M79.8,4.9H69.2V2.7h10.6V4.9z"/>
	<path class="st1" d="M85.3,6.4c1.8,0.9,3.2,1.8,4.4,2.6l-1.4,1.7C87.2,9.9,85.9,9,84.2,8L85.3,6.4z M87.9,17.2
		c0,0.3-0.1,0.5-0.4,0.6c-0.2,0-0.4-0.1-0.6-0.6l-1-1.9c3.2-0.7,5.8-1.8,7.9-3.2c2-1.4,3.7-3.1,5-5.2l1.5,1.3
		C98,12.6,93.9,15.6,87.9,17.2z M90.6,6.3c-1.1-0.9-2.5-1.8-4.1-2.7l1.1-1.7c1.5,0.7,3,1.6,4.4,2.7L90.6,6.3z"/>
</g>
<path class="st1" d="M108.3,1.3c-2.4,2.3-3.6,5-3.6,8.1c0,3,1.2,5.7,3.6,8.1l-1.4,1.2c-2.7-2.6-4-5.7-4-9.2c0-3.6,1.3-6.7,4-9.2
	L108.3,1.3z"/>
<path class="st1" d="M116.8,2.1c0.8,0.7,1.1,1.7,1.1,3c0,1.4-0.6,2.5-1.7,3.4c1.3,0.9,2,2.2,2,3.7c0,1.4-0.4,2.6-1.2,3.4
	c-0.8,0.8-1.8,1.2-3,1.2s-2.2-0.4-3-1.2c-0.8-0.8-1.2-1.9-1.2-3.4c0-1.3,0.6-2.5,1.8-3.7c-1-0.8-1.5-2-1.5-3.4c0-1.2,0.4-2.2,1.1-3
	c0.7-0.6,1.6-1,2.8-1C115.2,1.1,116.1,1.5,116.8,2.1z M112.6,14.1c0.4,0.4,0.9,0.6,1.5,0.6s1-0.2,1.5-0.6c0.5-0.5,0.8-1.2,0.8-2
	s-0.3-1.5-0.8-2c-0.4-0.4-0.9-0.6-1.5-0.6s-1,0.2-1.5,0.6c-0.5,0.5-0.8,1.2-0.8,2C111.8,12.9,112.1,13.6,112.6,14.1z M115.3,3.6
	c-0.4-0.3-0.8-0.5-1.3-0.5s-0.9,0.2-1.3,0.5c-0.4,0.4-0.6,0.9-0.6,1.6c0,0.6,0.2,1.2,0.6,1.6c0.4,0.3,0.8,0.5,1.3,0.5
	s0.9-0.2,1.3-0.5c0.4-0.4,0.6-0.9,0.6-1.6C115.9,4.5,115.7,4,115.3,3.6z"/>
<path class="st1" d="M122.5,6.5h-2.4V4.1h2.4V6.5z M122.5,14.6h-2.4v-2.4h2.4V14.6z"/>
<path class="st1" d="M130.9,8.4c1.3,1.1,1.9,2.4,1.9,3.9c0,1.3-0.4,2.4-1.3,3.2c-0.8,0.7-1.8,1.1-3,1.1c-1.1,0-2.1-0.4-2.8-1.1
	c-0.8-0.7-1.2-2.1-1.4-4.1h2c0,1.3,0.3,2.3,0.9,2.9c0.4,0.3,0.8,0.5,1.4,0.5c0.6,0,1.1-0.2,1.5-0.6c0.5-0.4,0.7-1.1,0.7-1.9
	c0-0.8-0.3-1.5-0.8-2s-1.4-0.8-2.4-0.7V7.4c1.9,0.2,2.8-0.6,2.8-2.4c0-0.7-0.2-1.2-0.6-1.6c-0.3-0.3-0.7-0.4-1.2-0.4
	s-0.9,0.1-1.2,0.4c-0.6,0.5-0.8,1.4-0.8,2.5h-2c0.1-1.6,0.6-2.9,1.4-3.7c0.7-0.7,1.6-1,2.6-1c1.1,0,2,0.3,2.8,1
	c0.7,0.7,1.1,1.6,1.1,2.8C132.5,6.4,132,7.5,130.9,8.4z"/>
<path class="st1" d="M141.9,2.1c1.3,1.2,1.9,3.5,1.9,6.8s-0.6,5.5-1.9,6.8c-0.7,0.6-1.5,1-2.6,1s-1.9-0.3-2.6-1
	c-1.3-1.2-1.9-3.5-1.9-6.8s0.6-5.5,1.9-6.8c0.7-0.6,1.5-1,2.6-1S141.2,1.5,141.9,2.1z M138,3.5c-0.8,0.8-1.2,2.6-1.2,5.4
	s0.4,4.6,1.2,5.4c0.4,0.4,0.8,0.6,1.3,0.6s0.9-0.2,1.3-0.6c0.8-0.8,1.2-2.6,1.2-5.4s-0.4-4.6-1.2-5.4c-0.4-0.4-0.8-0.6-1.3-0.6
	S138.4,3.1,138,3.5z"/>
<path class="st1" d="M155.5,1c0,0.1-0.1,0.3-0.3,0.4v2.1l6.2-0.2v2.1l-6.2,0.2v2.1l4.9-0.1v2.1l-4.9,0.1v2.1c2.2,0.5,4.2,1.3,6,2.3
	l-1,2c-1.7-0.9-3.4-1.7-5.1-2.2c-0.3,2.4-1.7,3.7-4.2,3.7c-1.2,0-2.2-0.3-2.8-1c-0.6-0.5-0.8-1.2-0.8-2s0.3-1.6,0.9-2.2
	c0.8-0.7,1.8-1.1,3.2-1.1c0.4,0,0.9,0,1.5,0.1V9.9l-5.7,0.1L147,7.9l5.9-0.1v-2L145.8,6l-0.2-2.1l7.3-0.2V0.8h2
	C155.3,0.8,155.5,0.8,155.5,1z M149.8,13.7c-0.4,0.2-0.6,0.6-0.6,1c0,0.8,0.7,1.1,1.9,1c0.5,0,0.9-0.2,1.2-0.4
	c0.4-0.2,0.5-0.8,0.5-1.7c-0.7-0.1-1.3-0.2-1.8-0.2C150.6,13.4,150.2,13.5,149.8,13.7z"/>
<path class="st1" d="M179.6,4.8c-1.5-0.1-2.8-0.1-3.8,0.2c-1.6,0.4-2.8,1-3.6,1.8c-1,1-1.5,2.2-1.5,3.6c0,1.2,0.4,2.2,1.1,2.9
	c1,1,3,1.5,6,1.6l-0.6,2.2c-0.8,0-1.6-0.1-2.4-0.3c-0.8-0.1-1.7-0.4-2.5-0.7c-1.4-0.5-2.3-1.3-2.9-2.2c-0.6-1-0.9-2-0.9-3
	c-0.1-1,0.1-2,0.4-2.8c0.3-0.8,0.9-1.7,1.8-2.5c-1.9,0.2-4.1,0.6-6.7,1l-0.5-2.4c5.4-0.3,10.6-0.9,15.7-1.8L179.6,4.8z M178.7,9.4
	l-1.1,1.2c-1-0.8-2-1.5-3.2-2.2l1.1-1.1C177,8.2,178,8.9,178.7,9.4z M180.2,7.6l-1.1,1.2c-1.1-0.7-2.1-1.5-3.2-2.2l1-1.1
	C178.2,6.2,179.3,6.9,180.2,7.6z"/>
<path class="st1" d="M182.5,18.6l-1.4-1.2c2.4-2.3,3.6-5,3.6-8.1c0-3-1.2-5.7-3.6-8.1l1.4-1.2c2.7,2.6,4,5.7,4,9.2
	C186.4,12.9,185.1,16,182.5,18.6z"/>
</svg>
