<?xml version="1.0" encoding="utf-8"?>
<!-- Generator: Adobe Illustrator 19.2.0, SVG Export Plug-In . SVG Version: 6.00 Build 0)  -->
<svg version="1.1" id="レイヤー_1" xmlns="http://www.w3.org/2000/svg" xmlns:xlink="http://www.w3.org/1999/xlink" x="0px"
	 y="0px" viewBox="0 0 120 40" style="enable-background:new 0 0 120 40;" xml:space="preserve">
<style type="text/css">
	.st0{enable-background:new    ;}
	.st1{fill:#FCFAFA;}
</style>
<g class="st0">
	<path class="st1" d="M17.2,18.5c-0.2,0-0.3,0-0.5-0.1c-0.3-0.2-0.5-0.4-0.6-0.7C16,17.5,16,17.3,16,17.2l0.2-1.9h-0.8
		c-0.1,0.5-0.2,1.1-0.5,1.6c-0.6,1.2-1.8,2.1-3.4,2.8l-1.1-1.6c0.3,0,0.5-0.1,0.7-0.2c0.9-0.3,1.5-0.8,2-1.5c0.2-0.3,0.3-0.7,0.4-1
		h-2v-2h2.1v-2.2h1.7c0.6,0,0.7,0.2,0.3,0.6v1.6h2.8L18,16.5c0,0.2,0.1,0.3,0.2,0.3s0.1,0,0.2-0.1c0.1,0,0.1-0.1,0.1-0.2l0.1-1
		l1.7,0.3c0.6-1.4,1-2.9,1.1-4.3l1.5,0.2c0.7,0.1,0.9,0.3,0.7,0.6c-0.1,0.2-0.2,0.2-0.3,0.2c-0.3,0.9-0.5,1.7-0.7,2.5H24
		c0.5-1.5,0.7-2.6,0.8-3.5l1.7,0.4c0.4,0.1,0.5,0.2,0.5,0.4c-0.1,0.2-0.3,0.2-0.5,0.3c-0.2,0.8-0.4,1.6-0.7,2.4h2.6v1.8h-2.7v1.7H28
		v1.8h-2.2v1.9H28V24h-2.2v2.3h3.1v1.8h-6.6v0.7h-2v-9.5c-0.4,0.4-0.7,0.8-1,1.2L18,19.3c0.3-0.2,0.5-0.5,0.7-0.8H17.2z M16.2,22
		v0.6c1.3,0.6,2.5,1.3,3.4,2.2l-1.2,1.6c-0.8-0.7-1.5-1.3-2.2-1.7V29h-2v-3.9c-0.6,0.7-1.4,1.5-2.4,2.2l-1.4-1.6
		c0.7-0.3,1.4-0.9,2.1-1.6c0.7-0.7,1.3-1.4,1.6-2h-3.2v-1.8h3.3v-2h1.7c0.6,0.1,0.7,0.2,0.3,0.6v1.3H19V22C19,22,16.2,22,16.2,22z
		 M22.3,16.8v1.7h1.5v-1.7H22.3z M22.3,20.3v1.9h1.5v-1.9H22.3z M22.3,23.9v2.3h1.5v-2.3C23.8,23.9,22.3,23.9,22.3,23.9z"/>
	<path class="st1" d="M36.7,16.1h-6.4v-2h6.4V16.1z M43.4,11.6v2.5h4.4V16h-4.4v1.6h4v1.9H42c0.8,0.7,1.6,1.8,2.5,3.1l-1.7,1.3
		c-0.3-0.6-0.8-1.3-1.4-2.2v4.2c0,0.1,0,0.2,0.1,0.3c0.1,0,0.2,0.1,0.3,0.1h1.4c0.2,0,0.3-0.1,0.4-0.4l0.2-1.3l2.1,0.5L45.5,27
		c-0.2,0.8-0.7,1.3-1.4,1.3h-3.4c-0.3,0-0.6-0.1-0.8-0.2c-0.3-0.2-0.5-0.5-0.5-1v-4.2l-0.2,0.2c0.1,0.9-0.2,2.5-0.8,4.7l-1.7-0.7
		v1.4h-2.1v-0.7H33v1h-2.1v-6.6h5.8v4.5c0.4-1.3,0.6-2.8,0.6-4.5l1.8,0.1c0.2,0.1,0.3,0.1,0.5,0.1v-0.9h1.8
		c-0.3-0.3-0.6-0.6-0.8-0.9l1.3-1h-4.1v-1.9h3.5V16h-4v-1.9h4V11h1.8C43.7,11.1,43.8,11.3,43.4,11.6z M36.4,13.4h-5.1v-1.9h5.1V13.4
		z M36.4,18.8h-5.1V17h5.1V18.8z M36.4,21.4h-5.1v-1.8h5.1V21.4z M33,23.9v2h1.5v-2H33z M46.3,21.7c0.4,0.4,0.7,1,1.1,1.6
		c0.7,1.1,1.1,2.1,1.4,3.1l-1.9,0.8c-0.4-1.5-1.1-3-2.1-4.5L46.3,21.7z"/>
	<path class="st1" d="M52,21.9v-3.8h3.9v3.8C55.9,21.9,52,21.9,52,21.9z"/>
	<path class="st1" d="M74.1,14.4c0.4,0.5,0.3,0.8-0.3,0.7c-1.7,0.4-3,0.7-3.9,0.7v2.6h6.3v2.1h-6.4c-0.1,1.8-0.5,3.3-1.5,4.6
		c-0.8,1.1-2,2.2-3.5,3.1l-1.7-1.7c2.7-1.3,4.2-3.3,4.4-6h-7.7v-2.1h7.7v-2.3c-1,0.1-1.9,0.2-2.8,0.2c-1,0.1-1.9,0.1-2.9,0.1l-0.5-2
		c2.2,0,4.2-0.1,6-0.3c1.8-0.1,3.8-0.5,5.7-1L74.1,14.4z"/>
	<path class="st1" d="M92.1,17.8c0.5,0.4,0.5,0.6,0.1,0.7c-0.5,2.7-1.5,4.8-3.1,6.5c-1.5,1.7-3.7,3-6.4,3.9l-1.4-2.1
		c4.7-1.3,7.4-3.8,8.3-7.5H78.2v-2.2h12.1l0.6-0.3L92.1,17.8z M90.2,15.1H79.6v-2.2h10.6V15.1z"/>
	<path class="st1" d="M95.7,16.6c1.8,0.9,3.2,1.8,4.4,2.6l-1.4,1.7c-1.1-0.8-2.4-1.7-4.1-2.7L95.7,16.6z M98.3,27.4
		c0,0.3-0.1,0.5-0.4,0.6c-0.2,0-0.4-0.1-0.6-0.6l-1-1.9c3.2-0.7,5.8-1.8,7.9-3.2c2-1.4,3.7-3.1,5-5.2l1.5,1.3
		C108.4,22.8,104.3,25.8,98.3,27.4z M101,16.5c-1.1-0.9-2.5-1.8-4.1-2.7l1.1-1.7c1.5,0.7,3,1.6,4.4,2.7L101,16.5z"/>
</g>
<path class="st1" d="M118.7,11.5c-2.4,2.3-3.6,5-3.6,8.1c0,3,1.2,5.7,3.6,8.1l-1.4,1.2c-2.7-2.6-4-5.7-4-9.2c0-3.6,1.3-6.7,4-9.2
	L118.7,11.5z"/>
<path class="st1" d="M127.2,12.3c0.8,0.7,1.1,1.7,1.1,3c0,1.4-0.6,2.5-1.7,3.4c1.3,0.9,2,2.2,2,3.7c0,1.4-0.4,2.6-1.2,3.4
	c-0.8,0.8-1.8,1.2-3,1.2s-2.2-0.4-3-1.2c-0.8-0.8-1.2-1.9-1.2-3.4c0-1.3,0.6-2.5,1.8-3.7c-1-0.8-1.5-2-1.5-3.4c0-1.2,0.4-2.2,1.1-3
	c0.7-0.6,1.6-1,2.8-1C125.6,11.3,126.5,11.7,127.2,12.3z M123,24.3c0.4,0.4,0.9,0.6,1.5,0.6s1-0.2,1.5-0.6c0.5-0.5,0.8-1.2,0.8-2
	c0-0.8-0.3-1.5-0.8-2c-0.4-0.4-0.9-0.6-1.5-0.6s-1,0.2-1.5,0.6c-0.5,0.5-0.8,1.2-0.8,2C122.2,23.1,122.5,23.8,123,24.3z M125.7,13.8
	c-0.4-0.3-0.8-0.5-1.3-0.5s-0.9,0.2-1.3,0.5c-0.4,0.4-0.6,0.9-0.6,1.6c0,0.6,0.2,1.2,0.6,1.6c0.4,0.3,0.8,0.5,1.3,0.5
	s0.9-0.2,1.3-0.5c0.4-0.4,0.6-0.9,0.6-1.6S126.1,14.2,125.7,13.8z"/>
<path class="st1" d="M132.9,16.7h-2.4v-2.4h2.4V16.7z M132.9,24.8h-2.4v-2.4h2.4V24.8z"/>
<path class="st1" d="M141.3,18.6c1.3,1.1,1.9,2.4,1.9,3.9c0,1.3-0.4,2.4-1.3,3.2c-0.8,0.7-1.8,1.1-3,1.1c-1.1,0-2.1-0.4-2.8-1.1
	c-0.8-0.7-1.2-2.1-1.4-4.1h2c0,1.3,0.3,2.3,0.9,2.9c0.4,0.3,0.8,0.5,1.4,0.5c0.6,0,1.1-0.2,1.5-0.6c0.5-0.4,0.7-1.1,0.7-1.9
	c0-0.8-0.3-1.5-0.8-2s-1.4-0.8-2.4-0.7v-2.2c1.9,0.2,2.8-0.6,2.8-2.4c0-0.7-0.2-1.2-0.6-1.6c-0.3-0.3-0.7-0.4-1.2-0.4
	s-0.9,0.1-1.2,0.4c-0.6,0.5-0.8,1.4-0.8,2.5h-2c0.1-1.6,0.6-2.9,1.4-3.7c0.7-0.7,1.6-1,2.6-1c1.1,0,2,0.3,2.8,1
	c0.7,0.7,1.1,1.6,1.1,2.8C142.9,16.6,142.4,17.7,141.3,18.6z"/>
<path class="st1" d="M152.3,12.3c1.3,1.2,1.9,3.5,1.9,6.8s-0.6,5.5-1.9,6.8c-0.7,0.6-1.5,1-2.6,1s-1.9-0.3-2.6-1
	c-1.3-1.2-1.9-3.5-1.9-6.8s0.6-5.5,1.9-6.8c0.7-0.6,1.5-1,2.6-1S151.6,11.7,152.3,12.3z M148.4,13.7c-0.8,0.8-1.2,2.6-1.2,5.4
	s0.4,4.6,1.2,5.4c0.4,0.4,0.8,0.6,1.3,0.6s0.9-0.2,1.3-0.6c0.8-0.8,1.2-2.6,1.2-5.4s-0.4-4.6-1.2-5.4c-0.4-0.4-0.8-0.6-1.3-0.6
	S148.8,13.3,148.4,13.7z"/>
<path class="st1" d="M165.9,11.2c0,0.1-0.1,0.3-0.3,0.4v2.1l6.2-0.2v2.1l-6.2,0.2v2.1l4.9-0.1v2.1l-4.9,0.1v2.1
	c2.2,0.5,4.2,1.3,6,2.3l-1,2c-1.7-0.9-3.4-1.7-5.1-2.2c-0.3,2.4-1.7,3.7-4.2,3.7c-1.2,0-2.2-0.3-2.8-1c-0.6-0.5-0.8-1.2-0.8-2
	s0.3-1.6,0.9-2.2c0.8-0.7,1.8-1.1,3.2-1.1c0.4,0,0.9,0,1.5,0.1v-1.6l-5.7,0.1l-0.2-2.1l5.9-0.1v-2l-7.1,0.2l-0.2-2.1l7.3-0.2V11h2
	C165.7,11,165.9,11,165.9,11.2z M160.2,23.9c-0.4,0.2-0.6,0.6-0.6,1c0,0.8,0.7,1.1,1.9,1c0.5,0,0.9-0.2,1.2-0.4
	c0.4-0.2,0.5-0.8,0.5-1.7c-0.7-0.1-1.3-0.2-1.8-0.2C161,23.6,160.6,23.7,160.2,23.9z"/>
<path class="st1" d="M190,15c-1.5-0.1-2.8-0.1-3.8,0.2c-1.6,0.4-2.8,1-3.6,1.8c-1,1-1.5,2.2-1.5,3.6c0,1.2,0.4,2.2,1.1,2.9
	c1,1,3,1.5,6,1.6l-0.6,2.2c-0.8,0-1.6-0.1-2.4-0.3c-0.8-0.1-1.7-0.4-2.5-0.7c-1.4-0.5-2.3-1.3-2.9-2.2c-0.6-1-0.9-2-0.9-3
	c-0.1-1,0.1-2,0.4-2.8c0.3-0.8,0.9-1.7,1.8-2.5c-1.9,0.2-4.1,0.6-6.7,1l-0.5-2.4c5.4-0.3,10.6-0.9,15.7-1.8L190,15z M189.1,19.6
	l-1.1,1.2c-1-0.8-2-1.5-3.2-2.2l1.1-1.1C187.4,18.4,188.4,19.1,189.1,19.6z M190.6,17.8l-1.1,1.2c-1.1-0.7-2.1-1.5-3.2-2.2l1-1.1
	C188.6,16.4,189.7,17.1,190.6,17.8z"/>
<path class="st1" d="M192.9,28.8l-1.4-1.2c2.4-2.3,3.6-5,3.6-8.1c0-3-1.2-5.7-3.6-8.1l1.4-1.2c2.7,2.6,4,5.7,4,9.2
	C196.8,23.1,195.5,26.2,192.9,28.8z"/>
</svg>
