<?xml version="1.0" encoding="utf-8"?>
<!-- Generator: Adobe Illustrator 19.2.0, SVG Export Plug-In . SVG Version: 6.00 Build 0)  -->
<svg version="1.1" id="レイヤー_1" xmlns="http://www.w3.org/2000/svg" xmlns:xlink="http://www.w3.org/1999/xlink" x="0px"
	 y="0px" viewBox="0 0 223.3 19.1" style="enable-background:new 0 0 223.3 19.1;" xml:space="preserve" height="40">
<style type="text/css">
	.st0{enable-background:new    ;}
	.st1{fill:#FCFAFA;}
</style>
<g class="st0">
	<path class="st1" d="M6.1,1v1.5h3.1v1.9H8.4L7.6,6.6h2v1.9H6.1v1.1h3.1v1.9H6.1v0.3c1.1,0.5,2,1.2,2.9,1.9l-1.2,1.7
		c-0.6-0.5-1.1-1.1-1.7-1.6v4.3H4V14c-0.8,1-1.6,1.9-2.4,2.6l-1.4-1.5c0.6-0.4,1.1-0.9,1.7-1.4c0.8-0.7,1.3-1.5,1.7-2.2h-3V9.6H4
		V8.5H0V6.6h2.4C2.2,5.9,2,5.3,1.7,4.8l1.4-0.4H0.7V2.5h3.2V0.4h1.8C6.4,0.4,6.5,0.6,6.1,1z M3.8,4.4c0.3,0.5,0.5,1.1,0.8,1.8
		L3.2,6.6h2.4l0.7-2.2H3.8z M14.1,1.9c0.8-0.2,1.5-0.5,2.1-0.8l1.3,1.4c0.2,0.2,0.3,0.4,0.2,0.5c-0.1,0.1-0.2,0.1-0.5,0
		c-1.4,0.5-3.1,0.8-5,1v2.7h6v1.9h-2.3v9.5h-2.1V8.6h-1.6v1.3c0,2.1-0.5,4-1.4,5.7c-0.7,1.1-1.5,2-2.6,2.5l-1.4-1.6
		c0.7-0.3,1.4-0.9,1.9-1.6c0.8-1.1,1.2-2.5,1.3-4v-9l1.9,0.4C12.7,2.3,13.4,2.1,14.1,1.9z"/>
	<path class="st1" d="M28.1,7.2h-5.7v10.7h-2.1V0.8h7.8V7.2z M22.4,2.6v0.6h3.5V2.6H22.4z M22.4,5v0.6h3.5V5H22.4z M34.2,9.6h-2v7.8
		h-2v-1.5l-6.3,0.6c-0.2,0.3-0.3,0.4-0.5,0.3c-0.1-0.1-0.1-0.2-0.2-0.4l-0.3-1.9l2-0.1V9.6h-1.7V7.8h10.9L34.2,9.6L34.2,9.6z
		 M26.9,10.1h3.3V9.7h-3.3V10.1z M26.9,12.1h3.3v-0.4h-3.3V12.1z M26.9,13.8v0.6l3.3-0.1v-0.4h-3.3V13.8z M37.1,16.4
		c0,0.2,0,0.4-0.1,0.6c-0.2,0.6-0.7,1-1.5,1h-1.8l-0.2-2.1h1c0.2,0,0.3,0,0.4-0.1c0.1-0.1,0.1-0.2,0.1-0.4V7.2h-5.6V0.8h7.7V16.4z
		 M31.5,2.6v0.6h3.4V2.6H31.5z M31.5,5v0.6h3.4V5H31.5z"/>
	<path class="st1" d="M43.4,0.2L45,1.1c0.2,0.1,0.3,0.3,0.3,0.4c0,0.1,0,0.1-0.1,0.1c0,0.1-0.1,0.1-0.3,0.1C44,2.9,43.3,4,42.7,4.9
		c0.3,0.2,0.5,0.4,0.8,0.7c0.6-0.7,1.3-1.8,2.2-3.1l1.5,1c0.1,0.1,0.1,0.1,0.2,0.1c0.2,0.2,0.2,0.3,0.1,0.4c-0.1,0.1-0.2,0.1-0.4,0
		c-1.4,1.8-2.5,3.2-3.4,4.3l1.9-0.1C45.4,7.8,45.2,7.4,45,7l1.5-0.8c0.7,1,1.3,2.1,1.8,3.4l-1.5,1c-0.1-0.2-0.2-0.5-0.3-0.7L45,10
		v1.3l1.8-0.7c0.3,0.5,0.5,1.1,0.7,1.7c0.3,0.7,0.4,1.4,0.5,2.2l-2.1,0.4c0-0.2,0-0.5-0.1-0.9c-0.2-0.9-0.4-1.7-0.8-2.5v6.4h-2.1V10
		l-2.5,0.2c-0.3,0.5-0.5,0.5-0.6-0.1l-0.5-2h2.1l1-1.2c-1-0.8-1.8-1.6-2.6-2.2l1.1-1.4c0.2,0.1,0.3,0.2,0.5,0.4
		C41.9,3.2,42.6,1.9,43.4,0.2z M42.5,11.3c0.2,0.1,0.3,0.3,0.2,0.4c-0.1,0.1-0.1,0.2-0.2,0.2c-0.4,1.8-0.7,3.5-1.1,4.8l-2.1-0.6
		c0.7-1.6,1.1-3.4,1.2-5.4L42,11C42.2,11.2,42.4,11.3,42.5,11.3z M50,2.3c0.7,0,1.6-0.2,2.7-0.5c1-0.3,1.8-0.6,2.4-0.9l1,1.4
		c0.2,0.2,0.3,0.4,0.2,0.6C56.2,3,56,3.1,55.7,3l-1.5,0.4v3.8h3.1v2h-3c0.1,1.9,0.4,3.6,1,5c0.3,0.6,0.4,0.5,0.5-0.1L56,13l1.9,1.5
		l-0.3,1.4c-0.2,0.9-0.6,1.5-1.1,1.6c-0.4,0.1-0.8,0-1.3-0.2c-0.8-0.5-1.5-1.3-1.9-2.5c-0.7-1.7-1-3.6-1.1-5.7h-1.6v5.5l2.3-0.7
		l0.4,1.8l-5.2,1.6c-0.3,0.6-0.5,0.5-0.8-0.2l-0.7-1.7l2.1-0.4V1.9L50,2.3z M52,3.8c-0.5,0.1-1,0.2-1.5,0.3v3.1H52V3.8z"/>
	<path class="st1" d="M61,11.1V7.3h3.9v3.8C64.9,11.1,61,11.1,61,11.1z"/>
	<path class="st1" d="M72.8,0.2l1.6,0.9c0.2,0.1,0.3,0.3,0.3,0.4c0,0.1,0,0.1-0.1,0.1c0,0.1-0.1,0.1-0.3,0.1
		c-0.9,1.2-1.6,2.3-2.2,3.2c0.3,0.2,0.5,0.4,0.8,0.7c0.6-0.7,1.3-1.8,2.2-3.1l1.5,1c0,0.1,0.1,0.1,0.2,0.1C77,3.7,77,3.9,76.9,4
		c-0.1,0.1-0.2,0.1-0.4,0c-1.4,1.8-2.5,3.2-3.4,4.3L75,8.2c-0.2-0.4-0.4-0.8-0.6-1.2l1.5-0.8c0.7,1,1.3,2.1,1.8,3.4l-1.5,1
		c-0.1-0.2-0.2-0.5-0.3-0.7L74.4,10v1.3l1.8-0.7c0.3,0.5,0.5,1.1,0.7,1.7c0.3,0.7,0.4,1.4,0.5,2.2l-2.1,0.4c0-0.2,0-0.5-0.1-0.9
		c-0.2-0.9-0.4-1.7-0.8-2.5v6.4h-2.1V10l-2.7,0.4c-0.3,0.5-0.5,0.5-0.6-0.1l-0.5-2h2.1l1-1.2c-1-0.8-1.8-1.6-2.6-2.2l1.1-1.4
		c0.2,0.1,0.3,0.2,0.5,0.4C71.3,3.2,72,1.9,72.8,0.2z M71.8,11.3c0.2,0.1,0.3,0.3,0.2,0.4c-0.1,0.1-0.1,0.2-0.2,0.2
		c-0.4,1.8-0.7,3.5-1.1,4.8l-2.1-0.6c0.7-1.6,1.1-3.4,1.2-5.4l1.5,0.3C71.6,11.2,71.7,11.3,71.8,11.3z M79.3,2.3
		c0.7,0,1.6-0.2,2.7-0.5c1-0.3,1.8-0.6,2.4-0.9l1,1.4c0.2,0.3,0.3,0.5,0.2,0.6S85.3,3.1,85,3l-1.4,0.4v3.8h3v2h-3
		c0.1,1.9,0.4,3.6,1,5c0.3,0.6,0.4,0.5,0.5-0.1l0.2-1.1l1.9,1.5L87,16c-0.2,0.9-0.6,1.5-1.1,1.6c-0.4,0.1-0.8,0-1.3-0.2
		c-0.8-0.5-1.5-1.3-1.9-2.5c-0.7-1.7-1-3.6-1.1-5.7H80v5.5l2.3-0.7l0.4,1.8l-5.2,1.6c-0.3,0.6-0.5,0.5-0.8-0.2L76,15.5l2.1-0.4V1.9
		L79.3,2.3z M81.4,3.8c-0.5,0.1-1,0.2-1.5,0.3v3.1h1.5V3.8z"/>
	<path class="st1" d="M95.5,6.3c0,0.2-0.2,0.3-0.5,0.3c-1.1,3.7-2.7,6.8-4.9,9.4l-1.9-1.5c0.8-0.7,1.6-2,2.6-3.8
		c1-1.9,1.7-3.8,2.1-5.7l1.9,0.7C95.3,5.9,95.5,6.1,95.5,6.3z M104.1,9.5c1,1.7,1.7,3.4,2.1,5.2l-2.4,0.7c-0.3-1.5-0.9-3.2-1.9-5
		c-1-1.9-2.1-3.5-3.1-4.8l1.7-1.1C101.8,5.9,103,7.6,104.1,9.5z M105.8,0.7c0.5,0.4,0.7,1,0.7,1.6s-0.2,1.2-0.7,1.6s-1,0.7-1.7,0.7
		s-1.2-0.2-1.7-0.7s-0.7-1-0.7-1.6s0.2-1.2,0.7-1.6s1-0.7,1.7-0.7C104.8,0.1,105.4,0.3,105.8,0.7z M105,3.2c0.2-0.2,0.3-0.5,0.3-0.8
		s-0.1-0.5-0.3-0.7c-0.3-0.2-0.5-0.4-0.8-0.4s-0.6,0.1-0.8,0.3c-0.3,0.2-0.4,0.5-0.4,0.8s0.1,0.6,0.4,0.8c0.2,0.2,0.5,0.3,0.8,0.3
		S104.8,3.4,105,3.2z"/>
	<path class="st1" d="M110,11.2c-0.5-1.2-1.1-2.5-2-4l1.8-0.9c0.9,1.3,1.6,2.6,2.1,3.8L110,11.2z M121,6.5c0,0.1-0.1,0.2-0.4,0.2
		c-0.5,3.6-1.4,6.1-2.8,7.5c-1.6,1.5-3.6,2.7-6,3.6l-1.4-1.9c2.4-0.8,4.4-1.8,5.7-3c1.3-1.3,2.1-3.7,2.2-7.3l2,0.5
		C120.8,6.1,121,6.3,121,6.5z M115.7,9.2l-2,0.9c-0.7-1.4-1.3-2.8-2-4l1.8-0.9C114.3,6.2,115,7.5,115.7,9.2z"/>
	<path class="st1" d="M130.6,2.4c-0.1,0.1-0.2,0.2-0.5,0.2c-0.3,0.5-0.5,1-0.7,1.4h4.9l0.8-0.3l1.5,1.3c0.3,0.2,0.2,0.5-0.1,0.7
		c-0.4,2.8-1.5,5.2-3.4,7.4c-1.8,2.1-4,3.7-6.4,4.8l-1.4-1.9c2.4-1,4.4-2.4,5.9-4s2.5-3.6,2.8-5.8h-5.7c-0.4,0.6-0.9,1.3-1.5,2.2
		c-0.6,0.8-1.4,1.6-2.3,2.5l-1.7-1.4c1.3-1.2,2.5-2.5,3.4-4s1.6-3.1,2.1-4.5l1.8,0.9C130.5,2,130.6,2.2,130.6,2.4z"/>
</g>
<path class="st1" d="M145.1,1.7c-2.4,2.3-3.6,5-3.6,8.1c0,3,1.2,5.7,3.6,8.1l-1.4,1.2c-2.7-2.6-4-5.7-4-9.2c0-3.6,1.3-6.7,4-9.2
	L145.1,1.7z"/>
<path class="st1" d="M153.6,2.5c0.8,0.7,1.1,1.7,1.1,3c0,1.4-0.6,2.5-1.7,3.4c1.3,0.9,2,2.2,2,3.7c0,1.4-0.4,2.6-1.2,3.4
	c-0.8,0.8-1.8,1.2-3,1.2s-2.2-0.4-3-1.2c-0.8-0.8-1.2-1.9-1.2-3.4c0-1.3,0.6-2.5,1.8-3.7c-1-0.8-1.5-2-1.5-3.4c0-1.2,0.4-2.2,1.1-3
	c0.7-0.6,1.6-1,2.8-1C152,1.5,152.9,1.9,153.6,2.5z M149.4,14.4c0.4,0.4,0.9,0.6,1.5,0.6c0.6,0,1-0.2,1.5-0.6c0.5-0.5,0.8-1.2,0.8-2
	s-0.3-1.5-0.8-2c-0.4-0.4-0.9-0.6-1.5-0.6c-0.6,0-1,0.2-1.5,0.6c-0.5,0.5-0.8,1.2-0.8,2C148.6,13.3,148.9,14,149.4,14.4z M152.1,4
	c-0.4-0.3-0.8-0.5-1.3-0.5s-0.9,0.2-1.3,0.5c-0.4,0.4-0.6,0.9-0.6,1.6c0,0.6,0.2,1.2,0.6,1.6c0.4,0.3,0.8,0.5,1.3,0.5
	s0.9-0.2,1.3-0.5c0.4-0.4,0.6-0.9,0.6-1.6S152.5,4.4,152.1,4z"/>
<path class="st1" d="M159.3,6.9h-2.4V4.5h2.4V6.9z M159.3,14.9h-2.4v-2.4h2.4V14.9z"/>
<path class="st1" d="M167.7,8.8c1.3,1.1,1.9,2.4,1.9,3.9c0,1.3-0.4,2.4-1.3,3.2c-0.8,0.7-1.8,1.1-3,1.1c-1.1,0-2.1-0.4-2.8-1.1
	c-0.8-0.7-1.2-2.1-1.4-4.1h2c0,1.3,0.3,2.3,0.9,2.9c0.4,0.3,0.8,0.5,1.4,0.5c0.6,0,1.1-0.2,1.5-0.6c0.5-0.4,0.7-1.1,0.7-1.9
	c0-0.8-0.3-1.5-0.8-2s-1.4-0.8-2.4-0.7V7.8c1.9,0.2,2.8-0.6,2.8-2.4c0-0.7-0.2-1.2-0.6-1.6c-0.3-0.3-0.7-0.4-1.2-0.4
	s-0.9,0.1-1.2,0.4c-0.6,0.5-0.8,1.4-0.8,2.5h-2c0.1-1.6,0.6-2.9,1.4-3.7c0.7-0.7,1.6-1,2.6-1c1.1,0,2,0.3,2.8,1
	c0.7,0.7,1.1,1.6,1.1,2.8C169.3,6.8,168.8,7.9,167.7,8.8z"/>
<path class="st1" d="M178.7,2.5c1.3,1.2,1.9,3.5,1.9,6.8s-0.6,5.5-1.9,6.8c-0.7,0.6-1.5,1-2.6,1s-1.9-0.3-2.6-1
	c-1.3-1.2-1.9-3.5-1.9-6.8s0.6-5.5,1.9-6.8c0.7-0.6,1.5-1,2.6-1S178,1.9,178.7,2.5z M174.8,3.9c-0.8,0.8-1.2,2.6-1.2,5.4
	s0.4,4.6,1.2,5.4c0.4,0.4,0.8,0.6,1.3,0.6s0.9-0.2,1.3-0.6c0.8-0.8,1.2-2.6,1.2-5.4s-0.4-4.6-1.2-5.4c-0.4-0.4-0.8-0.6-1.3-0.6
	S175.2,3.5,174.8,3.9z"/>
<path class="st1" d="M192.3,1.4c0,0.1-0.1,0.3-0.3,0.4v2.1l6.2-0.2v2.1L192,6v2.1l4.9-0.1v2.1l-4.9,0.1v2.1c2.2,0.5,4.2,1.3,6,2.3
	l-1,2c-1.7-0.9-3.4-1.7-5.1-2.2c-0.3,2.4-1.7,3.7-4.2,3.7c-1.2,0-2.2-0.3-2.8-1c-0.6-0.5-0.8-1.2-0.8-2s0.3-1.6,0.9-2.2
	c0.8-0.7,1.8-1.1,3.2-1.1c0.4,0,0.9,0,1.5,0.1v-1.6l-5.7,0.1l-0.2-2.1l5.9-0.1v-2l-7.1,0.2l-0.2-2.1l7.3-0.2V1.2h2
	C192.1,1.2,192.3,1.2,192.3,1.4z M186.6,14.1c-0.4,0.2-0.6,0.6-0.6,1c0,0.8,0.7,1.1,1.9,1c0.5,0,0.9-0.2,1.2-0.4
	c0.4-0.2,0.5-0.8,0.5-1.7c-0.7-0.1-1.3-0.2-1.8-0.2C187.4,13.8,187,13.9,186.6,14.1z"/>
<path class="st1" d="M216.4,5.2c-1.5-0.1-2.8-0.1-3.8,0.2c-1.6,0.4-2.8,1-3.6,1.8c-1,1-1.5,2.2-1.5,3.6c0,1.2,0.4,2.2,1.1,2.9
	c1,1,3,1.5,6,1.6l-0.6,2.2c-0.8,0-1.6-0.1-2.4-0.3c-0.8-0.1-1.7-0.4-2.5-0.7c-1.4-0.5-2.3-1.3-2.9-2.2c-0.6-1-0.9-2-0.9-3
	c-0.1-1,0.1-2,0.4-2.8c0.3-0.8,0.9-1.7,1.8-2.5c-1.9,0.2-4.1,0.6-6.7,1l-0.5-2.4c5.4-0.3,10.6-0.9,15.7-1.8L216.4,5.2z M215.5,9.8
	l-1.1,1.2c-1-0.8-2-1.5-3.2-2.2l1.1-1.1C213.8,8.6,214.8,9.3,215.5,9.8z M217,8l-1.1,1.2c-1.1-0.7-2.1-1.5-3.2-2.2l1-1.1
	C215,6.6,216.1,7.3,217,8z"/>
<path class="st1" d="M219.3,18.9l-1.4-1.2c2.4-2.3,3.6-5,3.6-8.1c0-3-1.2-5.7-3.6-8.1l1.4-1.2c2.7,2.6,4,5.7,4,9.2
	C223.2,13.3,221.9,16.4,219.3,18.9z"/>
</svg>
