<?xml version="1.0" encoding="utf-8"?>
<!-- Generator: Adobe Illustrator 19.2.0, SVG Export Plug-In . SVG Version: 6.00 Build 0)  -->
<svg version="1.1" id="レイヤー_1" xmlns="http://www.w3.org/2000/svg" xmlns:xlink="http://www.w3.org/1999/xlink" x="0px"
	 y="0px" viewBox="0 0 136.8 42" style="enable-background:new 0 0 136.8 42;" xml:space="preserve" height="60">
<style type="text/css">
	.st0{enable-background:new    ;}
	.st1{fill:#FCFAFA;}
</style>
<g class="st0">
	<path class="st1" d="M6.1,1v1.5h3.1v1.9H8.4L7.6,6.6h2v1.9H6.1v1.1h3.1v1.9H6.1v0.3c1.1,0.5,2,1.2,2.9,1.9l-1.2,1.7
		c-0.6-0.5-1.1-1.1-1.7-1.6v4.3H4V14c-0.8,1-1.6,1.9-2.4,2.6l-1.4-1.5c0.6-0.4,1.1-0.9,1.7-1.4c0.8-0.7,1.3-1.5,1.7-2.2h-3V9.6H4
		V8.5H0V6.6h2.4C2.2,5.9,2,5.3,1.7,4.8l1.4-0.4H0.7V2.5h3.2V0.4h1.8C6.4,0.4,6.5,0.6,6.1,1z M3.8,4.4c0.3,0.5,0.5,1.1,0.8,1.8
		L3.2,6.6h2.4l0.7-2.2C6.3,4.4,3.8,4.4,3.8,4.4z M14.1,1.9c0.8-0.2,1.5-0.5,2.1-0.8l1.3,1.4c0.2,0.2,0.3,0.4,0.2,0.5
		c-0.1,0.1-0.2,0.1-0.5,0c-1.4,0.5-3.1,0.8-5,1v2.7h6v1.9h-2.3v9.5h-2.1V8.6h-1.6v1.3c0,2.1-0.5,4-1.4,5.7c-0.7,1.1-1.5,2-2.6,2.5
		l-1.4-1.6c0.7-0.3,1.4-0.9,1.9-1.6c0.8-1.1,1.2-2.5,1.3-4v-9l1.9,0.4C12.7,2.3,13.4,2.1,14.1,1.9z"/>
	<path class="st1" d="M28.1,7.2h-5.7v10.7h-2.1V0.8h7.8C28.1,0.8,28.1,7.2,28.1,7.2z M22.4,2.6v0.6h3.5V2.6H22.4z M22.4,5v0.6h3.5V5
		H22.4z M34.2,9.6h-2v7.8h-2v-1.5l-6.3,0.6c-0.2,0.3-0.3,0.4-0.5,0.3c-0.1-0.1-0.1-0.2-0.2-0.4l-0.3-1.9l2-0.1V9.6h-1.7V7.8h10.9
		L34.2,9.6L34.2,9.6z M26.9,10.1h3.3V9.7h-3.3V10.1z M26.9,12.1h3.3v-0.4h-3.3V12.1z M26.9,13.8v0.6l3.3-0.1v-0.4h-3.3V13.8z
		 M37.1,16.4c0,0.2,0,0.4-0.1,0.6c-0.2,0.6-0.7,1-1.5,1h-1.8l-0.2-2.1h1c0.2,0,0.3,0,0.4-0.1c0.1-0.1,0.1-0.2,0.1-0.4V7.2h-5.6V0.8
		h7.7V16.4z M31.5,2.6v0.6h3.4V2.6H31.5z M31.5,5v0.6h3.4V5H31.5z"/>
	<path class="st1" d="M43.4,0.2L45,1.1c0.2,0.1,0.3,0.3,0.3,0.4c0,0.1,0,0.1-0.1,0.1c0,0.1-0.1,0.1-0.3,0.1C44,2.9,43.3,4,42.7,4.9
		c0.3,0.2,0.5,0.4,0.8,0.7c0.6-0.7,1.3-1.8,2.2-3.1l1.5,1c0.1,0.1,0.1,0.1,0.2,0.1c0.2,0.2,0.2,0.3,0.1,0.4c-0.1,0.1-0.2,0.1-0.4,0
		c-1.4,1.8-2.5,3.2-3.4,4.3l1.9-0.1C45.4,7.8,45.2,7.4,45,7l1.5-0.8c0.7,1,1.3,2.1,1.8,3.4l-1.5,1c-0.1-0.2-0.2-0.5-0.3-0.7L45,10
		v1.3l1.8-0.7c0.3,0.5,0.5,1.1,0.7,1.7c0.3,0.7,0.4,1.4,0.5,2.2l-2.1,0.4c0-0.2,0-0.5-0.1-0.9c-0.2-0.9-0.4-1.7-0.8-2.5v6.4h-2.1V10
		l-2.5,0.2c-0.3,0.5-0.5,0.5-0.6-0.1l-0.5-2h2.1l1-1.2c-1-0.8-1.8-1.6-2.6-2.2l1.1-1.4c0.2,0.1,0.3,0.2,0.5,0.4
		C41.9,3.2,42.6,1.9,43.4,0.2z M42.5,11.3c0.2,0.1,0.3,0.3,0.2,0.4c-0.1,0.1-0.1,0.2-0.2,0.2c-0.4,1.8-0.7,3.5-1.1,4.8l-2.1-0.6
		c0.7-1.6,1.1-3.4,1.2-5.4L42,11C42.2,11.2,42.4,11.3,42.5,11.3z M50,2.3c0.7,0,1.6-0.2,2.7-0.5c1-0.3,1.8-0.6,2.4-0.9l1,1.4
		c0.2,0.2,0.3,0.4,0.2,0.6C56.2,3,56,3.1,55.7,3l-1.5,0.4v3.8h3.1v2h-3c0.1,1.9,0.4,3.6,1,5c0.3,0.6,0.4,0.5,0.5-0.1L56,13l1.9,1.5
		l-0.3,1.4c-0.2,0.9-0.6,1.5-1.1,1.6c-0.4,0.1-0.8,0-1.3-0.2c-0.8-0.5-1.5-1.3-1.9-2.5c-0.7-1.7-1-3.6-1.1-5.7h-1.6v5.5l2.3-0.7
		l0.4,1.8l-5.2,1.6c-0.3,0.6-0.5,0.5-0.8-0.2l-0.7-1.7l2.1-0.4V1.9L50,2.3z M52,3.8c-0.5,0.1-1,0.2-1.5,0.3v3.1H52V3.8z"/>
	<path class="st1" d="M61,11.1V7.3h3.9v3.8H61z"/>
	<path class="st1" d="M72.8,0.2l1.6,0.9c0.2,0.1,0.3,0.3,0.3,0.4c0,0.1,0,0.1-0.1,0.1c0,0.1-0.1,0.1-0.3,0.1
		c-0.9,1.2-1.6,2.3-2.2,3.2c0.3,0.2,0.5,0.4,0.8,0.7c0.6-0.7,1.3-1.8,2.2-3.1l1.5,1c0,0.1,0.1,0.1,0.2,0.1C77,3.7,77,3.9,76.9,4
		c-0.1,0.1-0.2,0.1-0.4,0c-1.4,1.8-2.5,3.2-3.4,4.3L75,8.2c-0.2-0.4-0.4-0.8-0.6-1.2l1.5-0.8c0.7,1,1.3,2.1,1.8,3.4l-1.5,1
		c-0.1-0.2-0.2-0.5-0.3-0.7L74.4,10v1.3l1.8-0.7c0.3,0.5,0.5,1.1,0.7,1.7c0.3,0.7,0.4,1.4,0.5,2.2l-2.1,0.4c0-0.2,0-0.5-0.1-0.9
		c-0.2-0.9-0.4-1.7-0.8-2.5v6.4h-2.1V10l-2.7,0.4c-0.3,0.5-0.5,0.5-0.6-0.1l-0.5-2h2.1l1-1.2c-1-0.8-1.8-1.6-2.6-2.2l1.1-1.4
		c0.2,0.1,0.3,0.2,0.5,0.4C71.3,3.2,72,1.9,72.8,0.2z M71.8,11.3c0.2,0.1,0.3,0.3,0.2,0.4c-0.1,0.1-0.1,0.2-0.2,0.2
		c-0.4,1.8-0.7,3.5-1.1,4.8l-2.1-0.6c0.7-1.6,1.1-3.4,1.2-5.4l1.5,0.3C71.6,11.2,71.7,11.3,71.8,11.3z M79.3,2.3
		c0.7,0,1.6-0.2,2.7-0.5c1-0.3,1.8-0.6,2.4-0.9l1,1.4c0.2,0.3,0.3,0.5,0.2,0.6S85.3,3.1,85,3l-1.4,0.4v3.8h3v2h-3
		c0.1,1.9,0.4,3.6,1,5c0.3,0.6,0.4,0.5,0.5-0.1l0.2-1.1l1.9,1.5L87,16c-0.2,0.9-0.6,1.5-1.1,1.6c-0.4,0.1-0.8,0-1.3-0.2
		c-0.8-0.5-1.5-1.3-1.9-2.5c-0.7-1.7-1-3.6-1.1-5.7H80v5.5l2.3-0.7l0.4,1.8l-5.2,1.6c-0.3,0.6-0.5,0.5-0.8-0.2L76,15.5l2.1-0.4V1.9
		L79.3,2.3z M81.4,3.8c-0.5,0.1-1,0.2-1.5,0.3v3.1h1.5V3.8z"/>
	<path class="st1" d="M95.5,6.3c0,0.2-0.2,0.3-0.5,0.3c-1.1,3.7-2.7,6.8-4.9,9.4l-1.9-1.5c0.8-0.7,1.6-2,2.6-3.8
		c1-1.9,1.7-3.8,2.1-5.7l1.9,0.7C95.3,5.9,95.5,6.1,95.5,6.3z M104.1,9.5c1,1.7,1.7,3.4,2.1,5.2l-2.4,0.7c-0.3-1.5-0.9-3.2-1.9-5
		c-1-1.9-2.1-3.5-3.1-4.8l1.7-1.1C101.8,5.9,103,7.6,104.1,9.5z M105.8,0.7c0.5,0.4,0.7,1,0.7,1.6s-0.2,1.2-0.7,1.6s-1,0.7-1.7,0.7
		s-1.2-0.2-1.7-0.7s-0.7-1-0.7-1.6s0.2-1.2,0.7-1.6s1-0.7,1.7-0.7C104.8,0.1,105.4,0.3,105.8,0.7z M105,3.2c0.2-0.2,0.3-0.5,0.3-0.8
		s-0.1-0.5-0.3-0.7c-0.3-0.2-0.5-0.4-0.8-0.4s-0.6,0.1-0.8,0.3c-0.3,0.2-0.4,0.5-0.4,0.8s0.1,0.6,0.4,0.8c0.2,0.2,0.5,0.3,0.8,0.3
		S104.8,3.4,105,3.2z"/>
	<path class="st1" d="M110,11.2c-0.5-1.2-1.1-2.5-2-4l1.8-0.9c0.9,1.3,1.6,2.6,2.1,3.8L110,11.2z M121,6.5c0,0.1-0.1,0.2-0.4,0.2
		c-0.5,3.6-1.4,6.1-2.8,7.5c-1.6,1.5-3.6,2.7-6,3.6l-1.4-1.9c2.4-0.8,4.4-1.8,5.7-3c1.3-1.3,2.1-3.7,2.2-7.3l2,0.5
		C120.8,6.1,121,6.3,121,6.5z M115.7,9.2l-2,0.9c-0.7-1.4-1.3-2.8-2-4l1.8-0.9C114.3,6.2,115,7.5,115.7,9.2z"/>
	<path class="st1" d="M130.6,2.4c-0.1,0.1-0.2,0.2-0.5,0.2c-0.3,0.5-0.5,1-0.7,1.4h4.9l0.8-0.3l1.5,1.3c0.3,0.2,0.2,0.5-0.1,0.7
		c-0.4,2.8-1.5,5.2-3.4,7.4c-1.8,2.1-4,3.7-6.4,4.8l-1.4-1.9c2.4-1,4.4-2.4,5.9-4s2.5-3.6,2.8-5.8h-5.7c-0.4,0.6-0.9,1.3-1.5,2.2
		c-0.6,0.8-1.4,1.6-2.3,2.5l-1.7-1.4c1.3-1.2,2.5-2.5,3.4-4s1.6-3.1,2.1-4.5l1.8,0.9C130.5,2,130.6,2.2,130.6,2.4z"/>
</g>
<path class="st1" d="M32.1,24.6c-2.4,2.3-3.6,5-3.6,8.1c0,3,1.2,5.7,3.6,8.1L30.7,42c-2.7-2.6-4-5.7-4-9.2c0-3.6,1.3-6.7,4-9.2
	L32.1,24.6z"/>
<path class="st1" d="M40.6,25.4c0.8,0.7,1.1,1.7,1.1,3c0,1.4-0.6,2.5-1.7,3.4c1.3,0.9,2,2.2,2,3.7c0,1.4-0.4,2.6-1.2,3.4
	c-0.8,0.8-1.8,1.2-3,1.2s-2.2-0.4-3-1.2c-0.8-0.8-1.2-1.9-1.2-3.4c0-1.3,0.6-2.5,1.8-3.7c-1-0.8-1.5-2-1.5-3.4c0-1.2,0.4-2.2,1.1-3
	c0.7-0.6,1.6-1,2.8-1C39,24.4,39.9,24.8,40.6,25.4z M36.4,37.3c0.4,0.4,0.9,0.6,1.5,0.6s1-0.2,1.5-0.6c0.5-0.5,0.8-1.2,0.8-2
	s-0.3-1.5-0.8-2c-0.4-0.4-0.9-0.6-1.5-0.6s-1,0.2-1.5,0.6c-0.5,0.5-0.8,1.2-0.8,2C35.6,36.2,35.9,36.9,36.4,37.3z M39.1,26.9
	c-0.4-0.3-0.8-0.5-1.3-0.5s-0.9,0.2-1.3,0.5c-0.4,0.4-0.6,0.9-0.6,1.6c0,0.6,0.2,1.2,0.6,1.6c0.4,0.3,0.8,0.5,1.3,0.5
	s0.9-0.2,1.3-0.5c0.4-0.4,0.6-0.9,0.6-1.6C39.7,27.8,39.5,27.3,39.1,26.9z"/>
<path class="st1" d="M46.3,29.8h-2.4v-2.4h2.4V29.8z M46.3,37.8h-2.4v-2.4h2.4V37.8z"/>
<path class="st1" d="M54.7,31.7c1.3,1.1,1.9,2.4,1.9,3.9c0,1.3-0.4,2.4-1.3,3.2c-0.8,0.7-1.8,1.1-3,1.1c-1.1,0-2.1-0.4-2.8-1.1
	c-0.8-0.7-1.2-2.1-1.4-4.1h2c0,1.3,0.3,2.3,0.9,2.9c0.4,0.3,0.8,0.5,1.4,0.5c0.6,0,1.1-0.2,1.5-0.6c0.5-0.4,0.7-1.1,0.7-1.9
	s-0.3-1.5-0.8-2s-1.4-0.8-2.4-0.7v-2.2c1.9,0.2,2.8-0.6,2.8-2.4c0-0.7-0.2-1.2-0.6-1.6c-0.3-0.3-0.7-0.4-1.2-0.4s-0.9,0.1-1.2,0.4
	c-0.6,0.5-0.8,1.4-0.8,2.5h-2c0.1-1.6,0.6-2.9,1.4-3.7c0.7-0.7,1.6-1,2.6-1c1.1,0,2,0.3,2.8,1c0.7,0.7,1.1,1.6,1.1,2.8
	C56.3,29.7,55.8,30.8,54.7,31.7z"/>
<path class="st1" d="M65.7,25.4c1.3,1.2,1.9,3.5,1.9,6.8S67,37.7,65.7,39c-0.7,0.6-1.5,1-2.6,1s-1.9-0.3-2.6-1
	c-1.3-1.2-1.9-3.5-1.9-6.8s0.6-5.5,1.9-6.8c0.7-0.6,1.5-1,2.6-1S65,24.8,65.7,25.4z M61.8,26.8c-0.8,0.8-1.2,2.6-1.2,5.4
	s0.4,4.6,1.2,5.4c0.4,0.4,0.8,0.6,1.3,0.6s0.9-0.2,1.3-0.6c0.8-0.8,1.2-2.6,1.2-5.4s-0.4-4.6-1.2-5.4c-0.4-0.4-0.8-0.6-1.3-0.6
	S62.2,26.4,61.8,26.8z"/>
<path class="st1" d="M79.3,24.3c0,0.1-0.1,0.3-0.3,0.4v2.1l6.2-0.2v2.1L79,28.9V31l4.9-0.1V33L79,33.1v2.1c2.2,0.5,4.2,1.3,6,2.3
	l-1,2c-1.7-0.9-3.4-1.7-5.1-2.2c-0.3,2.4-1.7,3.7-4.2,3.7c-1.2,0-2.2-0.3-2.8-1c-0.6-0.5-0.8-1.2-0.8-2c0-0.8,0.3-1.6,0.9-2.2
	c0.8-0.7,1.8-1.1,3.2-1.1c0.4,0,0.9,0,1.5,0.1v-1.6L71,33.3l-0.2-2.1l5.9-0.1v-2l-7.1,0.2l-0.2-2.1l7.3-0.2v-2.9h2
	C79.1,24.1,79.3,24.1,79.3,24.3z M73.6,37c-0.4,0.2-0.6,0.6-0.6,1c0,0.8,0.7,1.1,1.9,1c0.5,0,0.9-0.2,1.2-0.4
	c0.4-0.2,0.5-0.8,0.5-1.7c-0.7-0.1-1.3-0.2-1.8-0.2C74.4,36.7,74,36.8,73.6,37z"/>
<path class="st1" d="M103.4,28.1c-1.5-0.1-2.8-0.1-3.8,0.2c-1.6,0.4-2.8,1-3.6,1.8c-1,1-1.5,2.2-1.5,3.6c0,1.2,0.4,2.2,1.1,2.9
	c1,1,3,1.5,6,1.6l-0.6,2.2c-0.8,0-1.6-0.1-2.4-0.3c-0.8-0.1-1.7-0.4-2.5-0.7c-1.4-0.5-2.3-1.3-2.9-2.2c-0.6-1-0.9-2-0.9-3
	c-0.1-1,0.1-2,0.4-2.8c0.3-0.8,0.9-1.7,1.8-2.5c-1.9,0.2-4.1,0.6-6.7,1l-0.5-2.4c5.4-0.3,10.6-0.9,15.7-1.8L103.4,28.1z M102.5,32.7
	l-1.1,1.2c-1-0.8-2-1.5-3.2-2.2l1.1-1.1C100.8,31.5,101.8,32.2,102.5,32.7z M104,30.9l-1.1,1.2c-1.1-0.7-2.1-1.5-3.2-2.2l1-1.1
	C102,29.5,103.1,30.2,104,30.9z"/>
<path class="st1" d="M106.3,41.8l-1.4-1.2c2.4-2.3,3.6-5,3.6-8.1c0-3-1.2-5.7-3.6-8.1l1.4-1.2c2.7,2.6,4,5.7,4,9.2
	C110.2,36.2,108.9,39.3,106.3,41.8z"/>
</svg>
