<?xml version="1.0" encoding="utf-8"?>
<!-- Generator: Adobe Illustrator 19.2.0, SVG Export Plug-In . SVG Version: 6.00 Build 0)  -->
<svg version="1.1" id="レイヤー_1" xmlns="http://www.w3.org/2000/svg" xmlns:xlink="http://www.w3.org/1999/xlink" x="0px"
	 y="0px" viewBox="0 0 142.1 23" style="enable-background:new 0 0 142.1 23;" xml:space="preserve" height="23px">
<style type="text/css">
	.st0{enable-background:new    ;}
	.st1{fill:#FCFAFA;}
</style>
<g class="st0">
	<path class="st1" d="M8.5,3.3v1.5h3.1v1.9h-0.8L10,8.9h2v1.9H8.5v1.1h3.1v1.9H8.5v0.3c1.1,0.5,2,1.2,2.9,1.9l-1.2,1.7
		c-0.6-0.5-1.1-1.1-1.7-1.6v4.3H6.4v-4.1c-0.8,1-1.6,1.9-2.4,2.6l-1.4-1.5c0.6-0.4,1.1-0.9,1.7-1.4c0.8-0.7,1.3-1.5,1.7-2.2H3v-1.9
		h3.4v-1.1H2.4V8.9h2.4C4.6,8.2,4.4,7.6,4.1,7.1l1.4-0.4H3.1V4.8h3.2V2.7h1.8C8.8,2.7,8.9,2.9,8.5,3.3z M6.2,6.7
		C6.5,7.2,6.7,7.8,7,8.5L5.6,8.9H8l0.7-2.2H6.2z M16.5,4.2C17.3,4,18,3.7,18.6,3.4l1.3,1.4c0.2,0.2,0.3,0.4,0.2,0.5
		c-0.1,0.1-0.2,0.1-0.5,0c-1.4,0.5-3.1,0.8-5,1V9h6v1.9h-2.3v9.5h-2.1v-9.5h-1.6v1.3c0,2.1-0.5,4-1.4,5.7c-0.7,1.1-1.5,2-2.6,2.5
		l-1.4-1.6c0.7-0.3,1.4-0.9,1.9-1.6c0.8-1.1,1.2-2.5,1.3-4V4.2l1.9,0.4C15.1,4.6,15.8,4.4,16.5,4.2z"/>
	<path class="st1" d="M30.5,9.5h-5.7v10.7h-2.1V3.1h7.8V9.5z M24.8,4.9v0.6h3.5V4.9H24.8z M24.8,7.3v0.6h3.5V7.3H24.8z M36.6,11.9
		h-2v7.8h-2v-1.5l-6.3,0.6c-0.2,0.3-0.3,0.4-0.5,0.3c-0.1-0.1-0.1-0.2-0.2-0.4l-0.3-1.9l2-0.1v-4.8h-1.7v-1.8h10.9V11.9z M29.3,12.4
		h3.3v-0.4h-3.3V12.4z M29.3,14.4h3.3V14h-3.3V14.4z M29.3,16.1v0.6l3.3-0.1v-0.4H29.3z M39.5,18.7c0,0.2,0,0.4-0.1,0.6
		c-0.2,0.6-0.7,1-1.5,1h-1.8l-0.2-2.1h1c0.2,0,0.3,0,0.4-0.1c0.1-0.1,0.1-0.2,0.1-0.4V9.5h-5.6V3.1h7.7V18.7z M33.9,4.9v0.6h3.4V4.9
		H33.9z M33.9,7.3v0.6h3.4V7.3H33.9z"/>
	<path class="st1" d="M45.8,2.5l1.6,0.9c0.2,0.1,0.3,0.3,0.3,0.4c0,0.1,0,0.1-0.1,0.1C47.6,4,47.5,4,47.3,4
		c-0.9,1.2-1.6,2.3-2.2,3.2c0.3,0.2,0.5,0.4,0.8,0.7c0.6-0.7,1.3-1.8,2.2-3.1l1.5,1c0.1,0.1,0.1,0.1,0.2,0.1C50,6.1,50,6.2,49.9,6.3
		c-0.1,0.1-0.2,0.1-0.4,0c-1.4,1.8-2.5,3.2-3.4,4.3l1.9-0.1c-0.2-0.4-0.4-0.8-0.6-1.2l1.5-0.8c0.7,1,1.3,2.1,1.8,3.4l-1.5,1
		c-0.1-0.2-0.2-0.5-0.3-0.7l-1.5,0.1v1.3l1.8-0.7c0.3,0.5,0.5,1.1,0.7,1.7c0.3,0.7,0.4,1.4,0.5,2.2l-2.1,0.4c0-0.2,0-0.5-0.1-0.9
		c-0.2-0.9-0.4-1.7-0.8-2.5v6.4h-2.1v-7.9l-2.5,0.2c-0.3,0.5-0.5,0.5-0.6-0.1l-0.5-2h2.1l1-1.2c-1-0.8-1.8-1.6-2.6-2.2l1.1-1.4
		c0.2,0.1,0.3,0.2,0.5,0.4C44.3,5.5,45,4.2,45.8,2.5z M44.9,13.6c0.2,0.1,0.3,0.3,0.2,0.4c-0.1,0.1-0.1,0.2-0.2,0.2
		c-0.4,1.8-0.7,3.5-1.1,4.8l-2.1-0.6c0.7-1.6,1.1-3.4,1.2-5.4l1.5,0.3C44.6,13.5,44.8,13.6,44.9,13.6z M52.4,4.6
		c0.7,0,1.6-0.2,2.7-0.5c1-0.3,1.8-0.6,2.4-0.9l1,1.4c0.2,0.2,0.3,0.4,0.2,0.6c-0.1,0.1-0.3,0.2-0.6,0.1l-1.5,0.4v3.8h3.1v2h-3
		c0.1,1.9,0.4,3.6,1,5c0.3,0.6,0.4,0.5,0.5-0.1l0.2-1.1l1.9,1.5L60,18.2c-0.2,0.9-0.6,1.5-1.1,1.6c-0.4,0.1-0.8,0-1.3-0.2
		c-0.8-0.5-1.5-1.3-1.9-2.5c-0.7-1.7-1-3.6-1.1-5.7h-1.6v5.5l2.3-0.7l0.4,1.8l-5.2,1.6c-0.3,0.6-0.5,0.5-0.8-0.2l-0.7-1.7l2.1-0.4
		V4.2L52.4,4.6z M54.4,6.1c-0.5,0.1-1,0.2-1.5,0.3v3.1h1.5V6.1z"/>
	<path class="st1" d="M63.4,13.4V9.6h3.9v3.8H63.4z"/>
	<path class="st1" d="M75.2,2.5l1.6,0.9c0.2,0.1,0.3,0.3,0.3,0.4c0,0.1,0,0.1-0.1,0.1C77,4,76.9,4,76.7,4c-0.9,1.2-1.6,2.3-2.2,3.2
		c0.3,0.2,0.5,0.4,0.8,0.7c0.6-0.7,1.3-1.8,2.2-3.1l1.5,1c0,0.1,0.1,0.1,0.2,0.1c0.2,0.1,0.2,0.3,0.1,0.4c-0.1,0.1-0.2,0.1-0.4,0
		c-1.4,1.8-2.5,3.2-3.4,4.3l1.9-0.1c-0.2-0.4-0.4-0.8-0.6-1.2l1.5-0.8c0.7,1,1.3,2.1,1.8,3.4l-1.5,1c-0.1-0.2-0.2-0.5-0.3-0.7
		l-1.5,0.1v1.3l1.8-0.7c0.3,0.5,0.5,1.1,0.7,1.7c0.3,0.7,0.4,1.4,0.5,2.2l-2.1,0.4c0-0.2,0-0.5-0.1-0.9c-0.2-0.9-0.4-1.7-0.8-2.5
		v6.4h-2.1v-7.9L72,12.7c-0.3,0.5-0.5,0.5-0.6-0.1l-0.5-2H73l1-1.2c-1-0.8-1.8-1.6-2.6-2.2l1.1-1.4c0.2,0.1,0.3,0.2,0.5,0.4
		C73.7,5.5,74.4,4.2,75.2,2.5z M74.2,13.6c0.2,0.1,0.3,0.3,0.2,0.4c-0.1,0.1-0.1,0.2-0.2,0.2c-0.4,1.8-0.7,3.5-1.1,4.8l-2.1-0.6
		c0.7-1.6,1.1-3.4,1.2-5.4l1.5,0.3C74,13.5,74.1,13.6,74.2,13.6z M81.7,4.6c0.7,0,1.6-0.2,2.7-0.5c1-0.3,1.8-0.6,2.4-0.9l1,1.4
		C88,4.9,88.1,5.1,88,5.2c-0.1,0.1-0.3,0.2-0.6,0.1L86,5.7v3.8H89v2h-3c0.1,1.9,0.4,3.6,1,5c0.3,0.6,0.4,0.5,0.5-0.1l0.2-1.1
		l1.9,1.5l-0.2,1.5c-0.2,0.9-0.6,1.5-1.1,1.6c-0.4,0.1-0.8,0-1.3-0.2c-0.8-0.5-1.5-1.3-1.9-2.5c-0.7-1.7-1-3.6-1.1-5.7h-1.6v5.5
		l2.3-0.7l0.4,1.8l-5.2,1.6c-0.3,0.6-0.5,0.5-0.8-0.2l-0.7-1.7l2.1-0.4V4.2L81.7,4.6z M83.8,6.1c-0.5,0.1-1,0.2-1.5,0.3v3.1h1.5V6.1
		z"/>
	<path class="st1" d="M97.9,8.6c0,0.2-0.2,0.3-0.5,0.3c-1.1,3.7-2.7,6.8-4.9,9.4l-1.9-1.5c0.8-0.7,1.6-2,2.6-3.8
		c1-1.9,1.7-3.8,2.1-5.7L97.2,8C97.7,8.2,97.9,8.4,97.9,8.6z M106.5,11.8c1,1.7,1.7,3.4,2.1,5.2l-2.4,0.7c-0.3-1.5-0.9-3.2-1.9-5
		c-1-1.9-2.1-3.5-3.1-4.8l1.7-1.1C104.2,8.2,105.4,9.9,106.5,11.8z M108.2,3c0.5,0.4,0.7,1,0.7,1.6c0,0.6-0.2,1.2-0.7,1.6
		s-1,0.7-1.7,0.7c-0.7,0-1.2-0.2-1.7-0.7s-0.7-1-0.7-1.6c0-0.6,0.2-1.2,0.7-1.6c0.5-0.4,1-0.7,1.7-0.7C107.2,2.4,107.8,2.6,108.2,3z
		 M107.4,5.5c0.2-0.2,0.3-0.5,0.3-0.8c0-0.3-0.1-0.5-0.3-0.7c-0.3-0.2-0.5-0.4-0.8-0.4c-0.3,0-0.6,0.1-0.8,0.3
		c-0.3,0.2-0.4,0.5-0.4,0.8s0.1,0.6,0.4,0.8c0.2,0.2,0.5,0.3,0.8,0.3C106.9,5.8,107.2,5.7,107.4,5.5z"/>
	<path class="st1" d="M112.4,13.5c-0.5-1.2-1.1-2.5-2-4l1.8-0.9c0.9,1.3,1.6,2.6,2.1,3.8L112.4,13.5z M123.4,8.8
		c0,0.1-0.1,0.2-0.4,0.2c-0.5,3.6-1.4,6.1-2.8,7.5c-1.6,1.5-3.6,2.7-6,3.6l-1.4-1.9c2.4-0.8,4.4-1.8,5.7-3c1.3-1.3,2.1-3.7,2.2-7.3
		l2,0.5C123.2,8.4,123.4,8.6,123.4,8.8z M118.1,11.5l-2,0.9c-0.7-1.4-1.3-2.8-2-4l1.8-0.9C116.7,8.5,117.4,9.8,118.1,11.5z"/>
	<path class="st1" d="M133,4.7c-0.1,0.1-0.2,0.2-0.5,0.2c-0.3,0.5-0.5,1-0.7,1.4h4.9l0.8-0.3l1.5,1.3c0.3,0.2,0.2,0.5-0.1,0.7
		c-0.4,2.8-1.5,5.2-3.4,7.4c-1.8,2.1-4,3.7-6.4,4.8l-1.4-1.9c2.4-1,4.4-2.4,5.9-4c1.5-1.6,2.5-3.6,2.8-5.8h-5.7
		c-0.4,0.6-0.9,1.3-1.5,2.2c-0.6,0.8-1.4,1.6-2.3,2.5l-1.7-1.4c1.3-1.2,2.5-2.5,3.4-4c0.9-1.5,1.6-3.1,2.1-4.5l1.8,0.9
		C132.9,4.3,133,4.5,133,4.7z"/>
</g>
</svg>
