<?xml version="1.0" encoding="utf-8"?>
<!-- Generator: Adobe Illustrator 19.2.0, SVG Export Plug-In . SVG Version: 6.00 Build 0)  -->
<svg version="1.1" id="レイヤー_1" xmlns="http://www.w3.org/2000/svg" xmlns:xlink="http://www.w3.org/1999/xlink" x="0px"
	 y="0px" viewBox="0 0 163.1 18.8" style="enable-background:new 0 0 163.1 18.8;" xml:space="preserve" height="40">
<style type="text/css">
	.st0{enable-background:new    ;}
	.st1{fill:#FCFAFA;}
</style>
<g class="st0">
	<path class="st1" d="M8,2.3c0.2,0.2,0.2,0.4,0.1,0.6C8,3,8,3,7.9,3S7.7,3,7.5,2.9C6.2,3.2,5,3.5,3.7,3.6v1.5h3.4V7H3.7v1.8h3.5v2
		H3.7v2l4.2-0.9l0.2,1.9l-4.4,1.1V18H1.6v-2.6l-0.5,0.1c0,0.1,0,0.2-0.1,0.2c-0.1,0.1-0.2,0.2-0.3,0.1c-0.1-0.1-0.2-0.3-0.2-0.5
		l-0.5-2l1.6-0.2V1.6c0.5,0.1,1,0.2,1.5,0.3c1.7-0.1,3-0.5,3.9-1L8,2.3z M8.8,1.2h6.4v4.2c0,0.1,0,0.3,0.1,0.4s0.2,0.1,0.4,0.1h0.2
		c0.2,0,0.3-0.2,0.4-0.5l0.3-1l2,0.5l-0.5,1.8C18,6.8,18,7,17.9,7.2c-0.1,0.2-0.3,0.3-0.5,0.4c-0.2,0.2-0.5,0.2-0.8,0.2h-2
		c-1,0-1.5-0.6-1.5-1.6V3.1H11v1.7c0,0.3,0,0.6-0.1,0.8C10.7,6.8,10,7.7,8.8,8.4H15L15.4,8l1.2,1.4c0.5,0.6,0.4,0.9-0.3,0.9
		c-0.3,0.7-0.6,1.4-0.9,2c-0.4,0.7-0.8,1.2-1.3,1.6c1,0.7,2.5,1.2,4.4,1.6l-1,2.3c-0.6-0.1-1.1-0.3-1.7-0.5
		c-1.2-0.5-2.3-1.1-3.2-1.7c-0.4,0.4-0.9,0.7-1.5,1c-1.3,0.7-2.5,1.2-3.6,1.4l-0.9-2c1.5-0.4,3.1-1,4.6-1.9c-0.9-1-1.5-2.3-1.8-3.7
		H8.3V8.8C8.1,8.9,8,8.9,7.9,9l-1-1.8c1.3-0.5,2-1.3,2-2.3V1.2H8.8z M12.7,12.9c0.1,0,0.1-0.1,0.2-0.1c0.3-0.2,0.5-0.6,0.8-1.1
		c0.2-0.4,0.3-0.8,0.4-1.2h-2.8C11.7,11.6,12.2,12.5,12.7,12.9z"/>
	<path class="st1" d="M23.4,12.8c-0.6,1-1.1,1.9-1.8,2.6l-2-1.2c0.6-0.7,1.2-1.6,1.8-2.6c0.7-1,1.3-2.2,1.8-3.4L25,9
		c0.4,0.1,0.5,0.3,0.5,0.5S25.3,9.8,25,9.8C24.5,10.8,24,11.8,23.4,12.8z M29.7,1.1c0.1,0.1-0.1,0.3-0.3,0.4V5h7v2.1h-7v10.5h-2.3
		V7.2h-7V5.1h7V0.9h2C29.4,0.9,29.6,1,29.7,1.1z M37.2,13.9l-1.8,1.3c-0.6-0.9-1.3-1.9-2.1-2.9c-0.8-1-1.6-1.9-2.4-2.7l1.8-1.3
		C34.3,10,35.8,11.8,37.2,13.9z M35.4,3.7l-1.1,1.1c-0.9-1.1-1.8-2-2.8-2.7l1.1-1C33.9,2.1,34.8,2.9,35.4,3.7z M37.6,2.7l-1.2,1.1
		c-0.8-1.1-1.7-2-2.8-2.8l1.1-1C35.6,0.6,36.6,1.5,37.6,2.7z"/>
	<path class="st1" d="M38.5,10.4V8.2h17.7v2.2H38.5z"/>
	<path class="st1" d="M63.7,3.6c0,0.1-0.1,0.3-0.3,0.4v3.6c0,1.7-0.3,3.5-1,5.1c-0.7,1.7-1.8,3.2-3.3,4.5l-1.8-1.3
		c1.4-1.3,2.4-2.7,3-4c0.6-1.4,0.8-2.7,0.8-3.8V3.4h2C63.5,3.4,63.7,3.4,63.7,3.6z M68.5,2.8c0,0.1-0.1,0.3-0.3,0.4v10.5
		c2.4-1.1,4.5-2.8,6-5.1l1.5,1.6c-1.7,2.4-4.2,4.4-7.5,6l-0.7,0.7l-2-1.9l0.4-0.1V2.6h2C68.2,2.6,68.4,2.6,68.5,2.8z"/>
</g>
<path class="st1" d="M84.9,1.4c-2.4,2.3-3.6,5-3.6,8.1c0,3,1.2,5.7,3.6,8.1l-1.4,1.2c-2.7-2.6-4-5.7-4-9.2c0-3.6,1.3-6.7,4-9.2
	L84.9,1.4z"/>
<path class="st1" d="M93.4,2.2c0.8,0.7,1.1,1.7,1.1,3c0,1.4-0.6,2.5-1.7,3.4c1.3,0.9,2,2.2,2,3.7c0,1.4-0.4,2.6-1.2,3.4
	c-0.8,0.8-1.8,1.2-3,1.2s-2.2-0.4-3-1.2c-0.8-0.8-1.2-1.9-1.2-3.4c0-1.3,0.6-2.5,1.8-3.7c-1-0.8-1.5-2-1.5-3.4c0-1.2,0.4-2.2,1.1-3
	c0.7-0.6,1.6-1,2.8-1C91.8,1.2,92.7,1.6,93.4,2.2z M89.2,14.2c0.4,0.4,0.9,0.6,1.5,0.6s1-0.2,1.5-0.6c0.5-0.5,0.8-1.2,0.8-2
	s-0.3-1.5-0.8-2c-0.4-0.4-0.9-0.6-1.5-0.6s-1,0.2-1.5,0.6c-0.5,0.5-0.8,1.2-0.8,2C88.4,13,88.7,13.7,89.2,14.2z M91.9,3.7
	c-0.4-0.3-0.8-0.5-1.3-0.5s-0.9,0.2-1.3,0.5c-0.4,0.4-0.6,0.9-0.6,1.6c0,0.6,0.2,1.2,0.6,1.6c0.4,0.3,0.8,0.5,1.3,0.5
	s0.9-0.2,1.3-0.5c0.4-0.4,0.6-0.9,0.6-1.6S92.3,4.1,91.9,3.7z"/>
<path class="st1" d="M99.1,6.6h-2.4V4.2h2.4V6.6z M99.1,14.7h-2.4v-2.4h2.4V14.7z"/>
<path class="st1" d="M107.5,8.5c1.3,1.1,1.9,2.4,1.9,3.9c0,1.3-0.4,2.4-1.3,3.2c-0.8,0.7-1.8,1.1-3,1.1c-1.1,0-2.1-0.4-2.8-1.1
	c-0.8-0.7-1.2-2.1-1.4-4.1h2c0,1.3,0.3,2.3,0.9,2.9c0.4,0.3,0.8,0.5,1.4,0.5s1.1-0.2,1.5-0.6c0.5-0.4,0.7-1.1,0.7-1.9
	c0-0.8-0.3-1.5-0.8-2s-1.4-0.8-2.4-0.7V7.5c1.9,0.2,2.8-0.6,2.8-2.4c0-0.7-0.2-1.2-0.6-1.6c-0.3-0.3-0.7-0.4-1.2-0.4
	s-0.9,0.1-1.2,0.4c-0.6,0.5-0.8,1.4-0.8,2.5h-2c0.1-1.6,0.6-2.9,1.4-3.7c0.7-0.7,1.6-1,2.6-1c1.1,0,2,0.3,2.8,1
	c0.7,0.7,1.1,1.6,1.1,2.8C109.1,6.5,108.6,7.6,107.5,8.5z"/>
<path class="st1" d="M118.5,2.2c1.3,1.2,1.9,3.5,1.9,6.8s-0.6,5.5-1.9,6.8c-0.7,0.6-1.5,1-2.6,1s-1.9-0.3-2.6-1
	c-1.3-1.2-1.9-3.5-1.9-6.8s0.6-5.5,1.9-6.8c0.7-0.6,1.5-1,2.6-1S117.8,1.6,118.5,2.2z M114.6,3.6c-0.8,0.8-1.2,2.6-1.2,5.4
	s0.4,4.6,1.2,5.4c0.4,0.4,0.8,0.6,1.3,0.6s0.9-0.2,1.3-0.6c0.8-0.8,1.2-2.6,1.2-5.4s-0.4-4.6-1.2-5.4c-0.4-0.4-0.8-0.6-1.3-0.6
	S115,3.2,114.6,3.6z"/>
<path class="st1" d="M132.1,1.1c0,0.1-0.1,0.3-0.3,0.4v2.1l6.2-0.2v2.1l-6.2,0.2v2.1l4.9-0.1v2.1l-4.9,0.1V12c2.2,0.5,4.2,1.3,6,2.3
	l-1,2c-1.7-0.9-3.4-1.7-5.1-2.2c-0.3,2.4-1.7,3.7-4.2,3.7c-1.2,0-2.2-0.3-2.8-1c-0.6-0.5-0.8-1.2-0.8-2s0.3-1.6,0.9-2.2
	c0.8-0.7,1.8-1.1,3.2-1.1c0.4,0,0.9,0,1.5,0.1V10l-5.7,0.1L123.6,8l5.9-0.1v-2l-7.1,0.2L122.2,4l7.3-0.2V0.9h2
	C131.9,0.9,132.1,0.9,132.1,1.1z M126.4,13.8c-0.4,0.2-0.6,0.6-0.6,1c0,0.8,0.7,1.1,1.9,1c0.5,0,0.9-0.2,1.2-0.4
	c0.4-0.2,0.5-0.8,0.5-1.7c-0.7-0.1-1.3-0.2-1.8-0.2C127.2,13.5,126.8,13.6,126.4,13.8z"/>
<path class="st1" d="M156.2,4.9c-1.5-0.1-2.8-0.1-3.8,0.2c-1.6,0.4-2.8,1-3.6,1.8c-1,1-1.5,2.2-1.5,3.6c0,1.2,0.4,2.2,1.1,2.9
	c1,1,3,1.5,6,1.6l-0.6,2.2c-0.8,0-1.6-0.1-2.4-0.3c-0.8-0.1-1.7-0.4-2.5-0.7c-1.4-0.5-2.3-1.3-2.9-2.2c-0.6-1-0.9-2-0.9-3
	c-0.1-1,0.1-2,0.4-2.8c0.3-0.8,0.9-1.7,1.8-2.5c-1.9,0.2-4.1,0.6-6.7,1l-0.5-2.4c5.4-0.3,10.6-0.9,15.7-1.8L156.2,4.9z M155.3,9.5
	l-1.1,1.2c-1-0.8-2-1.5-3.2-2.2l1.1-1.1C153.6,8.3,154.6,9,155.3,9.5z M156.8,7.7l-1.1,1.2c-1.1-0.7-2.1-1.5-3.2-2.2l1-1.1
	C154.8,6.3,155.9,7,156.8,7.7z"/>
<path class="st1" d="M159.1,18.7l-1.4-1.2c2.4-2.3,3.6-5,3.6-8.1c0-3-1.2-5.7-3.6-8.1l1.4-1.2c2.7,2.6,4,5.7,4,9.2
	C163,13,161.7,16.1,159.1,18.7z"/>
</svg>
