<?xml version="1.0" encoding="utf-8"?>
<!-- Generator: Adobe Illustrator 19.2.0, SVG Export Plug-In . SVG Version: 6.00 Build 0)  -->
<svg version="1.1" id="レイヤー_1" xmlns="http://www.w3.org/2000/svg" xmlns:xlink="http://www.w3.org/1999/xlink" x="0px"
	 y="0px" viewBox="0 0 120 23" style="enable-background:new 0 0 120 23;" xml:space="preserve" height="40">
<style type="text/css">
	.st0{enable-background:new    ;}
	.st1{fill:#FCFAFA;}
</style>
<g class="st0">
	<path class="st1" d="M28.5,4.5c0.2,0.2,0.2,0.4,0.1,0.6c-0.1,0.1-0.1,0.1-0.2,0.1c-0.1,0-0.2,0-0.4-0.1c-1.3,0.3-2.5,0.6-3.8,0.7
		v1.5h3.4v1.9h-3.4V11h3.5V13h-3.5v2l4.2-0.9l0.2,1.9l-4.4,1.1v3.1h-2.1v-2.6l-0.5,0.1c0,0.1,0,0.2-0.1,0.2
		c-0.1,0.1-0.2,0.2-0.3,0.1c-0.1-0.1-0.2-0.3-0.2-0.5l-0.5-2l1.6-0.2V3.8c0.5,0.1,1,0.2,1.5,0.3c1.7-0.1,3-0.5,3.9-1L28.5,4.5z
		 M29.3,3.4h6.4v4.2c0,0.1,0,0.3,0.1,0.4c0.1,0.1,0.2,0.1,0.4,0.1h0.2c0.2,0,0.3-0.2,0.4-0.5l0.3-1l2,0.5l-0.5,1.8
		c-0.1,0.1-0.1,0.3-0.2,0.5c-0.1,0.2-0.3,0.3-0.5,0.4C37.7,10,37.4,10,37.1,10h-2c-1,0-1.5-0.6-1.5-1.6V5.3h-2.1v1.7
		c0,0.3,0,0.6-0.1,0.8c-0.2,1.2-0.9,2.1-2.1,2.8h6.2l0.4-0.4l1.2,1.4c0.5,0.6,0.4,0.9-0.3,0.9c-0.3,0.7-0.6,1.4-0.9,2
		c-0.4,0.7-0.8,1.2-1.3,1.6c1,0.7,2.5,1.2,4.4,1.6L38,20c-0.6-0.1-1.1-0.3-1.7-0.5c-1.2-0.5-2.3-1.1-3.2-1.7c-0.4,0.4-0.9,0.7-1.5,1
		c-1.3,0.7-2.5,1.2-3.6,1.4l-0.9-2c1.5-0.4,3.1-1,4.6-1.9c-0.9-1-1.5-2.3-1.8-3.7h-1.1v-1.6c-0.2,0.1-0.3,0.1-0.4,0.2l-1-1.8
		c1.3-0.5,2-1.3,2-2.3V3.4z M33.2,15.1c0.1,0,0.1-0.1,0.2-0.1c0.3-0.2,0.5-0.6,0.8-1.1c0.2-0.4,0.3-0.8,0.4-1.2h-2.8
		C32.2,13.8,32.7,14.7,33.2,15.1z"/>
	<path class="st1" d="M43.9,15c-0.6,1-1.1,1.9-1.8,2.6l-2-1.2c0.6-0.7,1.2-1.6,1.8-2.6c0.7-1,1.3-2.2,1.8-3.4l1.8,0.8
		c0.4,0.1,0.5,0.3,0.5,0.5c0,0.2-0.2,0.3-0.5,0.3C45,13,44.5,14,43.9,15z M50.2,3.3c0.1,0.1-0.1,0.3-0.3,0.4v3.5h7v2.1h-7v10.5h-2.3
		V9.4h-7V7.3h7V3.1h2C49.9,3.1,50.1,3.2,50.2,3.3z M57.7,16.1l-1.8,1.3c-0.6-0.9-1.3-1.9-2.1-2.9c-0.8-1-1.6-1.9-2.4-2.7l1.8-1.3
		C54.8,12.2,56.3,14,57.7,16.1z M55.9,5.9L54.8,7c-0.9-1.1-1.8-2-2.8-2.7l1.1-1C54.4,4.3,55.3,5.1,55.9,5.9z M58.1,4.9L56.9,6
		c-0.8-1.1-1.7-2-2.8-2.8l1.1-1C56.1,2.8,57.1,3.7,58.1,4.9z"/>
	<path class="st1" d="M59,12.6v-2.2h17.7v2.2H59z"/>
	<path class="st1" d="M84.2,5.8c0,0.1-0.1,0.3-0.3,0.4v3.6c0,1.7-0.3,3.5-1,5.1c-0.7,1.7-1.8,3.2-3.3,4.5l-1.8-1.3
		c1.4-1.3,2.4-2.7,3-4c0.6-1.4,0.8-2.7,0.8-3.8V5.6h2C84,5.6,84.2,5.6,84.2,5.8z M89,5c0,0.1-0.1,0.3-0.3,0.4v10.5
		c2.4-1.1,4.5-2.8,6-5.1l1.5,1.6c-1.7,2.4-4.2,4.4-7.5,6L88,19.1l-2-1.9l0.4-0.1V4.8h2C88.7,4.8,88.9,4.8,89,5z"/>
</g>
</svg>
