<?xml version="1.0" encoding="utf-8"?>
<!-- Generator: Adobe Illustrator 19.2.0, SVG Export Plug-In . SVG Version: 6.00 Build 0)  -->
<svg version="1.1" id="レイヤー_1" xmlns="http://www.w3.org/2000/svg" xmlns:xlink="http://www.w3.org/1999/xlink" x="0px"
	 y="0px" viewBox="0 0 83.6 38.8" style="enable-background:new 0 0 83.6 38.8;" xml:space="preserve" height="60">
<style type="text/css">
	.st0{enable-background:new    ;}
	.st1{fill:#FCFAFA;}
</style>
<g class="st0">
	<path class="st1" d="M11.9,2.3c0.2,0.2,0.2,0.4,0.1,0.6C11.9,3,11.9,3,11.8,3c-0.1,0-0.2,0-0.4-0.1c-1.3,0.3-2.5,0.6-3.8,0.7v1.5
		H11V7H7.6v1.8h3.5v2H7.6v2l4.2-0.9l0.2,1.9l-4.4,1.1V18H5.5v-2.6L5,15.5c0,0.1,0,0.2-0.1,0.2c-0.1,0.1-0.2,0.2-0.3,0.1
		c-0.1-0.1-0.2-0.3-0.2-0.5l-0.5-2l1.6-0.2V1.6C6,1.7,6.5,1.8,7,1.9c1.7-0.1,3-0.5,3.9-1L11.9,2.3z M12.7,1.2h6.4v4.2
		c0,0.1,0,0.3,0.1,0.4c0.1,0.1,0.2,0.1,0.4,0.1h0.2c0.2,0,0.3-0.2,0.4-0.5l0.3-1l2,0.5L22,6.7c-0.1,0.1-0.1,0.3-0.2,0.5
		s-0.3,0.3-0.5,0.4c-0.2,0.2-0.5,0.2-0.8,0.2h-2c-1,0-1.5-0.6-1.5-1.6V3.1h-2.1v1.7c0,0.3,0,0.6-0.1,0.8c-0.2,1.2-0.9,2.1-2.1,2.8
		h6.2L19.3,8l1.2,1.4c0.5,0.6,0.4,0.9-0.3,0.9c-0.3,0.7-0.6,1.4-0.9,2c-0.4,0.7-0.8,1.2-1.3,1.6c1,0.7,2.5,1.2,4.4,1.6l-1,2.3
		c-0.6-0.1-1.1-0.3-1.7-0.5c-1.2-0.5-2.3-1.1-3.2-1.7c-0.4,0.4-0.9,0.7-1.5,1c-1.3,0.7-2.5,1.2-3.6,1.4l-0.9-2
		c1.5-0.4,3.1-1,4.6-1.9c-0.9-1-1.5-2.3-1.8-3.7h-1.1V8.8C12,8.9,11.9,8.9,11.8,9l-1-1.8c1.3-0.5,2-1.3,2-2.3L12.7,1.2L12.7,1.2z
		 M16.6,12.9c0.1,0,0.1-0.1,0.2-0.1c0.3-0.2,0.5-0.6,0.8-1.1c0.2-0.4,0.3-0.8,0.4-1.2h-2.8C15.6,11.6,16.1,12.5,16.6,12.9z"/>
	<path class="st1" d="M27.3,12.8c-0.6,1-1.1,1.9-1.8,2.6l-2-1.2c0.6-0.7,1.2-1.6,1.8-2.6c0.7-1,1.3-2.2,1.8-3.4L28.9,9
		c0.4,0.1,0.5,0.3,0.5,0.5s-0.2,0.3-0.5,0.3C28.4,10.8,27.9,11.8,27.3,12.8z M33.6,1.1c0.1,0.1-0.1,0.3-0.3,0.4V5h7v2.1h-7v10.5H31
		V7.2h-7V5.1h7V0.9h2C33.3,0.9,33.5,1,33.6,1.1z M41.1,13.9l-1.8,1.3c-0.6-0.9-1.3-1.9-2.1-2.9s-1.6-1.9-2.4-2.7l1.8-1.3
		C38.2,10,39.7,11.8,41.1,13.9z M39.3,3.7l-1.1,1.1c-0.9-1.1-1.8-2-2.8-2.7l1.1-1C37.8,2.1,38.7,2.9,39.3,3.7z M41.5,2.7l-1.2,1.1
		c-0.8-1.1-1.7-2-2.8-2.8l1.1-1C39.5,0.6,40.5,1.5,41.5,2.7z"/>
	<path class="st1" d="M42.4,10.4V8.2h17.7v2.2H42.4z"/>
	<path class="st1" d="M67.6,3.6c0,0.1-0.1,0.3-0.3,0.4v3.6c0,1.7-0.3,3.5-1,5.1c-0.7,1.7-1.8,3.2-3.3,4.5l-1.8-1.3
		c1.4-1.3,2.4-2.7,3-4c0.6-1.4,0.8-2.7,0.8-3.8V3.4h2C67.4,3.4,67.6,3.4,67.6,3.6z M72.4,2.8c0,0.1-0.1,0.3-0.3,0.4v10.5
		c2.4-1.1,4.5-2.8,6-5.1l1.5,1.6c-1.7,2.4-4.2,4.4-7.5,6l-0.7,0.7l-2-1.9l0.4-0.1V2.6h2C72.1,2.6,72.3,2.6,72.4,2.8z"/>
</g>
<path class="st1" d="M5.4,21.4c-2.4,2.3-3.6,5-3.6,8.1c0,3,1.2,5.7,3.6,8.1L4,38.8c-2.7-2.6-4-5.7-4-9.2c0-3.6,1.3-6.7,4-9.2
	L5.4,21.4z"/>
<path class="st1" d="M13.9,22.2c0.8,0.7,1.1,1.7,1.1,3c0,1.4-0.6,2.5-1.7,3.4c1.3,0.9,2,2.2,2,3.7c0,1.4-0.4,2.6-1.2,3.4
	c-0.8,0.8-1.8,1.2-3,1.2s-2.2-0.4-3-1.2c-0.8-0.8-1.2-1.9-1.2-3.4c0-1.3,0.6-2.5,1.8-3.7c-1-0.8-1.5-2-1.5-3.4c0-1.2,0.4-2.2,1.1-3
	c0.7-0.6,1.6-1,2.8-1C12.3,21.2,13.2,21.6,13.9,22.2z M9.7,34.2c0.4,0.4,0.9,0.6,1.5,0.6s1-0.2,1.5-0.6c0.5-0.5,0.8-1.2,0.8-2
	s-0.3-1.5-0.8-2c-0.4-0.4-0.9-0.6-1.5-0.6s-1,0.2-1.5,0.6c-0.5,0.5-0.8,1.2-0.8,2C8.9,33,9.2,33.7,9.7,34.2z M12.4,23.7
	c-0.4-0.3-0.8-0.5-1.3-0.5s-0.9,0.2-1.3,0.5c-0.4,0.4-0.6,0.9-0.6,1.6c0,0.6,0.2,1.2,0.6,1.6c0.4,0.3,0.8,0.5,1.3,0.5
	s0.9-0.2,1.3-0.5c0.4-0.4,0.6-0.9,0.6-1.6C13,24.6,12.8,24.1,12.4,23.7z"/>
<path class="st1" d="M19.6,26.6h-2.4v-2.4h2.4V26.6z M19.6,34.7h-2.4v-2.4h2.4V34.7z"/>
<path class="st1" d="M28,28.5c1.3,1.1,1.9,2.4,1.9,3.9c0,1.3-0.4,2.4-1.3,3.2c-0.8,0.7-1.8,1.1-3,1.1c-1.1,0-2.1-0.4-2.8-1.1
	c-0.8-0.7-1.2-2.1-1.4-4.1h2c0,1.3,0.3,2.3,0.9,2.9c0.4,0.3,0.8,0.5,1.4,0.5s1.1-0.2,1.5-0.6c0.5-0.4,0.7-1.1,0.7-1.9
	s-0.3-1.5-0.8-2s-1.4-0.8-2.4-0.7v-2.2c1.9,0.2,2.8-0.6,2.8-2.4c0-0.7-0.2-1.2-0.6-1.6c-0.3-0.3-0.7-0.4-1.2-0.4s-0.9,0.1-1.2,0.4
	c-0.6,0.5-0.8,1.4-0.8,2.5h-2c0.1-1.6,0.6-2.9,1.4-3.7c0.7-0.7,1.6-1,2.6-1c1.1,0,2,0.3,2.8,1c0.7,0.7,1.1,1.6,1.1,2.8
	C29.6,26.5,29.1,27.6,28,28.5z"/>
<path class="st1" d="M39,22.2c1.3,1.2,1.9,3.5,1.9,6.8s-0.6,5.5-1.9,6.8c-0.7,0.6-1.5,1-2.6,1s-1.9-0.3-2.6-1
	c-1.3-1.2-1.9-3.5-1.9-6.8s0.6-5.5,1.9-6.8c0.7-0.6,1.5-1,2.6-1S38.3,21.6,39,22.2z M35.1,23.6c-0.8,0.8-1.2,2.6-1.2,5.4
	s0.4,4.6,1.2,5.4c0.4,0.4,0.8,0.6,1.3,0.6s0.9-0.2,1.3-0.6c0.8-0.8,1.2-2.6,1.2-5.4s-0.4-4.6-1.2-5.4c-0.4-0.4-0.8-0.6-1.3-0.6
	S35.5,23.2,35.1,23.6z"/>
<path class="st1" d="M52.6,21.1c0,0.1-0.1,0.3-0.3,0.4v2.1l6.2-0.2v2.1l-6.2,0.2v2.1l4.9-0.1v2.1l-4.9,0.1V32c2.2,0.5,4.2,1.3,6,2.3
	l-1,2c-1.7-0.9-3.4-1.7-5.1-2.2c-0.3,2.4-1.7,3.7-4.2,3.7c-1.2,0-2.2-0.3-2.8-1c-0.6-0.5-0.8-1.2-0.8-2c0-0.8,0.3-1.6,0.9-2.2
	c0.8-0.7,1.8-1.1,3.2-1.1c0.4,0,0.9,0,1.5,0.1V30l-5.7,0.1L44.1,28l5.9-0.1v-2l-7.1,0.2L42.7,24l7.3-0.2v-2.9h2
	C52.4,20.9,52.6,20.9,52.6,21.1z M46.9,33.8c-0.4,0.2-0.6,0.6-0.6,1c0,0.8,0.7,1.1,1.9,1c0.5,0,0.9-0.2,1.2-0.4
	c0.4-0.2,0.5-0.8,0.5-1.7c-0.7-0.1-1.3-0.2-1.8-0.2C47.7,33.5,47.3,33.6,46.9,33.8z"/>
<path class="st1" d="M76.7,24.9c-1.5-0.1-2.8-0.1-3.8,0.2c-1.6,0.4-2.8,1-3.6,1.8c-1,1-1.5,2.2-1.5,3.6c0,1.2,0.4,2.2,1.1,2.9
	c1,1,3,1.5,6,1.6l-0.6,2.2c-0.8,0-1.6-0.1-2.4-0.3c-0.8-0.1-1.7-0.4-2.5-0.7c-1.4-0.5-2.3-1.3-2.9-2.2c-0.6-1-0.9-2-0.9-3
	c-0.1-1,0.1-2,0.4-2.8c0.3-0.8,0.9-1.7,1.8-2.5c-1.9,0.2-4.1,0.6-6.7,1l-0.5-2.4c5.4-0.3,10.6-0.9,15.7-1.8L76.7,24.9z M75.8,29.5
	l-1.1,1.2c-1-0.8-2-1.5-3.2-2.2l1.1-1.1C74.1,28.3,75.1,29,75.8,29.5z M77.3,27.7l-1.1,1.2c-1.1-0.7-2.1-1.5-3.2-2.2l1-1.1
	C75.3,26.3,76.4,27,77.3,27.7z"/>
<path class="st1" d="M79.6,38.7l-1.4-1.2c2.4-2.3,3.6-5,3.6-8.1c0-3-1.2-5.7-3.6-8.1l1.4-1.2c2.7,2.6,4,5.7,4,9.2
	C83.5,33,82.2,36.1,79.6,38.7z"/>
</svg>
