<?xml version="1.0" encoding="utf-8"?>
<!-- Generator: Adobe Illustrator 19.2.0, SVG Export Plug-In . SVG Version: 6.00 Build 0)  -->
<svg version="1.1" id="レイヤー_1" xmlns="http://www.w3.org/2000/svg" xmlns:xlink="http://www.w3.org/1999/xlink" x="0px"
	 y="0px" viewBox="0 0 96.1 39.8" style="enable-background:new 0 0 96.1 39.8;" xml:space="preserve" height="60">
<style type="text/css">
	.st0{enable-background:new    ;}
	.st1{fill:#FCFAFA;}
</style>
<g class="st0">
	<path class="st1" d="M8,4.7l9.6,8l-1.9,1.5l-8-7.1c-0.5-0.4-1-0.4-1.4,0.1l-4.6,4.9L0,10.5l5.7-5.6C6.4,4.1,7.2,4.1,8,4.7z
		 M15.1,2.2c0.5,0.4,0.7,1,0.7,1.6S15.6,5,15.1,5.4c-0.5,0.4-1,0.7-1.7,0.7s-1.2-0.2-1.7-0.7C11.2,5,11,4.4,11,3.8s0.2-1.2,0.7-1.6
		s1-0.7,1.7-0.7C14.1,1.5,14.6,1.7,15.1,2.2z M14.2,4.6c0.2-0.2,0.3-0.5,0.3-0.8s-0.1-0.5-0.3-0.7c-0.3-0.2-0.5-0.4-0.8-0.4
		S12.8,2.8,12.6,3c-0.3,0.2-0.4,0.5-0.4,0.8s0.1,0.6,0.4,0.8c0.2,0.2,0.5,0.3,0.8,0.3C13.8,4.9,14,4.8,14.2,4.6z"/>
	<path class="st1" d="M21.3,11.3c-0.5-1.2-1.1-2.5-2-4l1.8-0.9c0.9,1.3,1.6,2.6,2.1,3.8L21.3,11.3z M32.3,6.6c0,0.1-0.1,0.2-0.4,0.2
		c-0.5,3.6-1.4,6.1-2.8,7.5c-1.6,1.5-3.6,2.7-6,3.6L21.7,16c2.4-0.8,4.4-1.8,5.7-3c1.3-1.3,2.1-3.7,2.2-7.3l2,0.5
		C32.1,6.2,32.3,6.4,32.3,6.6z M27,9.3l-2,0.9c-0.7-1.4-1.3-2.8-2-4l1.8-0.9C25.6,6.3,26.3,7.6,27,9.3z"/>
	<path class="st1" d="M38.2,1.7c0.1,0.1-0.1,0.3-0.3,0.4V7c1.2,0.3,2.4,0.7,3.7,1.2c1.2,0.5,2.4,1.1,3.6,1.7l-1.1,1.8
		c-1.1-0.6-2.1-1.1-3-1.5c-1-0.4-2.1-0.8-3.1-1v8h-2.3V1.4h2C37.9,1.4,38.1,1.5,38.2,1.7z"/>
	<path class="st1" d="M50.2,12.8c-0.6,1-1.1,1.9-1.8,2.6l-2-1.2c0.6-0.7,1.2-1.6,1.8-2.6c0.7-1,1.3-2.2,1.8-3.4L51.8,9
		c0.4,0.1,0.5,0.3,0.5,0.5s-0.2,0.3-0.5,0.3C51.4,10.8,50.8,11.8,50.2,12.8z M56.5,1.1c0.1,0.1-0.1,0.3-0.3,0.4V5h7v2.1h-7v10.5
		h-2.3V7.2h-7V5.1h7V0.9h2C56.2,0.9,56.4,1,56.5,1.1z M64,13.9l-1.8,1.3c-0.6-0.9-1.3-1.9-2.1-2.9s-1.6-1.9-2.4-2.7l1.8-1.3
		C61.1,10,62.6,11.8,64,13.9z M62.2,3.7l-1.1,1.1c-0.9-1.1-1.8-2-2.8-2.7l1.1-1C60.7,2.1,61.6,2.9,62.2,3.7z M64.4,2.7l-1.2,1.1
		c-0.8-1.1-1.7-2-2.8-2.8l1.1-1C62.4,0.6,63.4,1.5,64.4,2.7z"/>
	<path class="st1" d="M69.6,1.7c0,0.1-0.1,0.3-0.3,0.4V7c1.2,0.3,2.4,0.7,3.7,1.2c1.2,0.5,2.4,1.1,3.6,1.7l-1.1,1.8
		c-1.1-0.6-2.1-1.1-3-1.5c-1-0.4-2.1-0.8-3.1-1v8h-2.3V1.4h2C69.3,1.4,69.5,1.5,69.6,1.7z"/>
	<path class="st1" d="M84.2,3.6c0,0.1-0.1,0.3-0.3,0.4v3.6c0,1.7-0.3,3.5-1,5.1c-0.7,1.7-1.8,3.2-3.3,4.5l-1.8-1.3
		c1.4-1.3,2.4-2.7,3-4c0.6-1.4,0.8-2.7,0.8-3.8V3.4h2C83.9,3.4,84.1,3.4,84.2,3.6z M88.9,2.8c0.1,0.1-0.1,0.3-0.3,0.4v10.5
		c2.4-1.1,4.5-2.8,6-5.1l1.5,1.6c-1.7,2.4-4.2,4.4-7.5,6l-0.7,0.6l-2-1.9l0.4-0.1V2.6h2C88.7,2.6,88.9,2.6,88.9,2.8z"/>
	<path class="st1" d="M10.5,22.4c-2.4,2.3-3.6,5-3.6,8.1c0,3,1.2,5.7,3.6,8.1l-1.4,1.2c-2.7-2.6-4-5.7-4-9.2c0-3.6,1.3-6.7,4-9.2
		L10.5,22.4z"/>
	<path class="st1" d="M19,23.2c0.8,0.7,1.1,1.7,1.1,3c0,1.4-0.6,2.5-1.7,3.4c1.3,0.9,2,2.2,2,3.7c0,1.4-0.4,2.6-1.2,3.4
		c-0.8,0.8-1.8,1.2-3,1.2s-2.2-0.4-3-1.2c-0.8-0.8-1.2-1.9-1.2-3.4c0-1.3,0.6-2.5,1.8-3.7c-1-0.8-1.5-2-1.5-3.4c0-1.2,0.4-2.2,1.1-3
		c0.7-0.6,1.6-1,2.8-1C17.4,22.2,18.3,22.6,19,23.2z M14.8,35.2c0.4,0.4,0.9,0.6,1.5,0.6s1-0.2,1.5-0.6c0.5-0.5,0.8-1.2,0.8-2
		c0-0.8-0.3-1.5-0.8-2c-0.4-0.4-0.9-0.6-1.5-0.6s-1,0.2-1.5,0.6c-0.5,0.5-0.8,1.2-0.8,2S14.3,34.7,14.8,35.2z M17.5,24.7
		c-0.4-0.3-0.8-0.5-1.3-0.5s-0.9,0.2-1.3,0.5c-0.4,0.4-0.6,0.9-0.6,1.6c0,0.6,0.2,1.2,0.6,1.6c0.4,0.3,0.8,0.5,1.3,0.5
		s0.9-0.2,1.3-0.5c0.4-0.4,0.6-0.9,0.6-1.6C18.1,25.6,17.9,25.1,17.5,24.7z"/>
	<path class="st1" d="M24.7,27.6h-2.4v-2.4h2.4V27.6z M24.7,35.7h-2.4v-2.4h2.4V35.7z"/>
	<path class="st1" d="M33.1,29.5c1.3,1.1,1.9,2.4,1.9,3.9c0,1.3-0.4,2.4-1.3,3.2c-0.8,0.7-1.8,1.1-3,1.1c-1.1,0-2.1-0.4-2.8-1.1
		c-0.8-0.7-1.2-2.1-1.4-4.1h2c0,1.3,0.3,2.3,0.9,2.9c0.4,0.3,0.8,0.5,1.4,0.5s1.1-0.2,1.5-0.6c0.5-0.4,0.7-1.1,0.7-1.9
		s-0.3-1.5-0.8-2s-1.4-0.8-2.4-0.7v-2.2c1.9,0.2,2.8-0.6,2.8-2.4c0-0.7-0.2-1.2-0.6-1.6c-0.3-0.3-0.7-0.4-1.2-0.4s-0.9,0.1-1.2,0.4
		C29,25,28.8,25.9,28.8,27h-2c0.1-1.6,0.6-2.9,1.4-3.7c0.7-0.7,1.6-1,2.6-1c1.1,0,2,0.3,2.8,1c0.7,0.7,1.1,1.6,1.1,2.8
		C34.7,27.5,34.2,28.6,33.1,29.5z"/>
	<path class="st1" d="M44.1,23.2c1.3,1.2,1.9,3.5,1.9,6.8s-0.6,5.5-1.9,6.8c-0.7,0.6-1.5,1-2.6,1s-1.9-0.3-2.6-1
		C37.6,35.6,37,33.3,37,30s0.6-5.5,1.9-6.8c0.7-0.6,1.5-1,2.6-1S43.4,22.6,44.1,23.2z M40.2,24.6C39.4,25.4,39,27.2,39,30
		s0.4,4.6,1.2,5.4c0.4,0.4,0.8,0.6,1.3,0.6s0.9-0.2,1.3-0.6c0.8-0.8,1.2-2.6,1.2-5.4s-0.4-4.6-1.2-5.4C42.4,24.2,42,24,41.5,24
		S40.6,24.2,40.2,24.6z"/>
	<path class="st1" d="M57.7,22.1c0,0.1-0.1,0.3-0.3,0.4v2.1l6.2-0.2v2.1l-6.2,0.2v2.1l4.9-0.1v2.1l-4.9,0.1V33
		c2.2,0.5,4.2,1.3,6,2.3l-1,2c-1.7-0.9-3.4-1.7-5.1-2.2c-0.3,2.4-1.7,3.7-4.2,3.7c-1.2,0-2.2-0.3-2.8-1c-0.6-0.5-0.8-1.2-0.8-2
		s0.3-1.6,0.9-2.2c0.8-0.7,1.8-1.1,3.2-1.1c0.4,0,0.9,0,1.5,0.1V31l-5.7,0.1L49.2,29l5.9-0.1v-2L48,27.1L47.8,25l7.3-0.2v-2.9h2
		C57.5,21.9,57.7,21.9,57.7,22.1z M52,34.8c-0.4,0.2-0.6,0.6-0.6,1c0,0.8,0.7,1.1,1.9,1c0.5,0,0.9-0.2,1.2-0.4
		c0.4-0.2,0.5-0.8,0.5-1.7c-0.7-0.1-1.3-0.2-1.8-0.2C52.8,34.5,52.4,34.6,52,34.8z"/>
	<path class="st1" d="M81.8,25.9c-1.5-0.1-2.8-0.1-3.8,0.2c-1.6,0.4-2.8,1-3.6,1.8c-1,1-1.5,2.2-1.5,3.6c0,1.2,0.4,2.2,1.1,2.9
		c1,1,3,1.5,6,1.6l-0.6,2.2c-0.8,0-1.6-0.1-2.4-0.3c-0.8-0.1-1.7-0.4-2.5-0.7c-1.4-0.5-2.3-1.3-2.9-2.2c-0.6-1-0.9-2-0.9-3
		c-0.1-1,0.1-2,0.4-2.8c0.3-0.8,0.9-1.7,1.8-2.5c-1.9,0.2-4.1,0.6-6.7,1l-0.5-2.4c5.4-0.3,10.6-0.9,15.7-1.8L81.8,25.9z M80.9,30.5
		l-1.1,1.2c-1-0.8-2-1.5-3.2-2.2l1.1-1.1C79.2,29.3,80.2,30,80.9,30.5z M82.4,28.7l-1.1,1.2c-1.1-0.7-2.1-1.5-3.2-2.2l1-1.1
		C80.4,27.3,81.5,28,82.4,28.7z"/>
	<path class="st1" d="M84.7,39.7l-1.4-1.2c2.4-2.3,3.6-5,3.6-8.1c0-3-1.2-5.7-3.6-8.1l1.4-1.2c2.7,2.6,4,5.7,4,9.2
		C88.6,34,87.3,37.1,84.7,39.7z"/>
</g>
</svg>
