<?xml version="1.0" encoding="utf-8"?>
<!-- Generator: Adobe Illustrator 19.2.0, SVG Export Plug-In . SVG Version: 6.00 Build 0)  -->
<svg version="1.1" id="レイヤー_1" xmlns="http://www.w3.org/2000/svg" xmlns:xlink="http://www.w3.org/1999/xlink" x="0px"
	 y="0px" viewBox="0 0 188 23" style="enable-background:new 0 0 188 23;" xml:space="preserve" height="46px">
<style type="text/css">
	.st0{enable-background:new    ;}
	.st1{fill:#FCFAFA;}
</style>
<g class="st0">
	<path class="st1" d="M9.7,6.9l9.6,8l-1.9,1.5L9.4,9.3C8.9,8.9,8.4,8.9,8,9.4l-4.6,4.9l-1.7-1.6l5.7-5.6C8.1,6.3,8.9,6.3,9.7,6.9z
		 M16.8,4.4c0.5,0.4,0.7,1,0.7,1.6c0,0.6-0.2,1.2-0.7,1.6c-0.5,0.4-1,0.7-1.7,0.7c-0.7,0-1.2-0.2-1.7-0.7c-0.5-0.4-0.7-1-0.7-1.6
		c0-0.6,0.2-1.2,0.7-1.6c0.5-0.4,1-0.7,1.7-0.7C15.8,3.7,16.3,3.9,16.8,4.4z M15.9,6.8c0.2-0.2,0.3-0.5,0.3-0.8
		c0-0.3-0.1-0.5-0.3-0.7c-0.3-0.2-0.5-0.4-0.8-0.4S14.5,5,14.3,5.2c-0.3,0.2-0.4,0.5-0.4,0.8c0,0.3,0.1,0.6,0.4,0.8
		c0.2,0.2,0.5,0.3,0.8,0.3C15.5,7.1,15.7,7,15.9,6.8z"/>
	<path class="st1" d="M23,13.5c-0.5-1.2-1.1-2.5-2-4l1.8-0.9c0.9,1.3,1.6,2.6,2.1,3.8L23,13.5z M34,8.8C34,8.9,33.9,9,33.6,9
		c-0.5,3.6-1.4,6.1-2.8,7.5c-1.6,1.5-3.6,2.7-6,3.6l-1.4-1.9c2.4-0.8,4.4-1.8,5.7-3c1.3-1.3,2.1-3.7,2.2-7.3l2,0.5
		C33.8,8.4,34,8.6,34,8.8z M28.7,11.5l-2,0.9c-0.7-1.4-1.3-2.8-2-4l1.8-0.9C27.3,8.5,28,9.8,28.7,11.5z"/>
	<path class="st1" d="M39.9,3.9c0.1,0.1-0.1,0.3-0.3,0.4v4.9c1.2,0.3,2.4,0.7,3.7,1.2c1.2,0.5,2.4,1.1,3.6,1.7l-1.1,1.8
		c-1.1-0.6-2.1-1.1-3-1.5c-1-0.4-2.1-0.8-3.1-1v8h-2.3V3.6h2C39.6,3.6,39.8,3.7,39.9,3.9z"/>
	<path class="st1" d="M51.9,15c-0.6,1-1.1,1.9-1.8,2.6l-2-1.2c0.6-0.7,1.2-1.6,1.8-2.6c0.7-1,1.3-2.2,1.8-3.4l1.8,0.8
		c0.4,0.1,0.5,0.3,0.5,0.5c0,0.2-0.2,0.3-0.5,0.3C53.1,13,52.5,14,51.9,15z M58.2,3.3c0.1,0.1-0.1,0.3-0.3,0.4v3.5h7v2.1h-7v10.5
		h-2.3V9.4h-7V7.3h7V3.1h2C57.9,3.1,58.1,3.2,58.2,3.3z M65.7,16.1l-1.8,1.3c-0.6-0.9-1.3-1.9-2.1-2.9c-0.8-1-1.6-1.9-2.4-2.7
		l1.8-1.3C62.8,12.2,64.3,14,65.7,16.1z M63.9,5.9L62.8,7c-0.9-1.1-1.8-2-2.8-2.7l1.1-1C62.4,4.3,63.3,5.1,63.9,5.9z M66.1,4.9
		L64.9,6c-0.8-1.1-1.7-2-2.8-2.8l1.1-1C64.1,2.8,65.1,3.7,66.1,4.9z"/>
	<path class="st1" d="M71.3,3.9C71.3,4,71.2,4.2,71,4.3v4.9c1.2,0.3,2.4,0.7,3.7,1.2c1.2,0.5,2.4,1.1,3.6,1.7l-1.1,1.8
		c-1.1-0.6-2.1-1.1-3-1.5c-1-0.4-2.1-0.8-3.1-1v8h-2.3V3.6h2C71,3.6,71.2,3.7,71.3,3.9z"/>
	<path class="st1" d="M85.9,5.8c0,0.1-0.1,0.3-0.3,0.4v3.6c0,1.7-0.3,3.5-1,5.1c-0.7,1.7-1.8,3.2-3.3,4.5l-1.8-1.3
		c1.4-1.3,2.4-2.7,3-4c0.6-1.4,0.8-2.7,0.8-3.8V5.6h2C85.6,5.6,85.8,5.6,85.9,5.8z M90.6,5c0.1,0.1-0.1,0.3-0.3,0.4v10.5
		c2.4-1.1,4.5-2.8,6-5.1l1.5,1.6c-1.7,2.4-4.2,4.4-7.5,6l-0.7,0.6l-2-1.9l0.4-0.1V4.8h2C90.4,4.8,90.6,4.8,90.6,5z"/>
	<path class="st1" d="M104.9,3.5c-2.4,2.3-3.6,5-3.6,8.1c0,3,1.2,5.7,3.6,8.1l-1.4,1.2c-2.7-2.6-4-5.7-4-9.2c0-3.6,1.3-6.7,4-9.2
		L104.9,3.5z"/>
	<path class="st1" d="M113.4,4.3c0.8,0.7,1.1,1.7,1.1,3c0,1.4-0.6,2.5-1.7,3.4c1.3,0.9,2,2.2,2,3.7c0,1.4-0.4,2.6-1.2,3.4
		c-0.8,0.8-1.8,1.2-3,1.2c-1.2,0-2.2-0.4-3-1.2c-0.8-0.8-1.2-1.9-1.2-3.4c0-1.3,0.6-2.5,1.8-3.7c-1-0.8-1.5-2-1.5-3.4
		c0-1.2,0.4-2.2,1.1-3c0.7-0.6,1.6-1,2.8-1C111.8,3.3,112.7,3.7,113.4,4.3z M109.2,16.3c0.4,0.4,0.9,0.6,1.5,0.6
		c0.6,0,1-0.2,1.5-0.6c0.5-0.5,0.8-1.2,0.8-2c0-0.8-0.3-1.5-0.8-2c-0.4-0.4-0.9-0.6-1.5-0.6c-0.6,0-1,0.2-1.5,0.6
		c-0.5,0.5-0.8,1.2-0.8,2C108.4,15.1,108.7,15.8,109.2,16.3z M111.9,5.8c-0.4-0.3-0.8-0.5-1.3-0.5c-0.5,0-0.9,0.2-1.3,0.5
		c-0.4,0.4-0.6,0.9-0.6,1.6c0,0.6,0.2,1.2,0.6,1.6c0.4,0.3,0.8,0.5,1.3,0.5c0.5,0,0.9-0.2,1.3-0.5c0.4-0.4,0.6-0.9,0.6-1.6
		C112.5,6.7,112.3,6.2,111.9,5.8z"/>
	<path class="st1" d="M119.1,8.7h-2.4V6.3h2.4V8.7z M119.1,16.8h-2.4v-2.4h2.4V16.8z"/>
	<path class="st1" d="M127.5,10.6c1.3,1.1,1.9,2.4,1.9,3.9c0,1.3-0.4,2.4-1.3,3.2c-0.8,0.7-1.8,1.1-3,1.1c-1.1,0-2.1-0.4-2.8-1.1
		c-0.8-0.7-1.2-2.1-1.4-4.1h2c0,1.3,0.3,2.3,0.9,2.9c0.4,0.3,0.8,0.5,1.4,0.5c0.6,0,1.1-0.2,1.5-0.6c0.5-0.4,0.7-1.1,0.7-1.9
		c0-0.8-0.3-1.5-0.8-2s-1.4-0.8-2.4-0.7V9.6c1.9,0.2,2.8-0.6,2.8-2.4c0-0.7-0.2-1.2-0.6-1.6c-0.3-0.3-0.7-0.4-1.2-0.4
		c-0.5,0-0.9,0.1-1.2,0.4c-0.6,0.5-0.8,1.4-0.8,2.5h-2c0.1-1.6,0.6-2.9,1.4-3.7c0.7-0.7,1.6-1,2.6-1c1.1,0,2,0.3,2.8,1
		c0.7,0.7,1.1,1.6,1.1,2.8C129.1,8.6,128.6,9.7,127.5,10.6z"/>
	<path class="st1" d="M138.5,4.3c1.3,1.2,1.9,3.5,1.9,6.8c0,3.3-0.6,5.5-1.9,6.8c-0.7,0.6-1.5,1-2.6,1s-1.9-0.3-2.6-1
		c-1.3-1.2-1.9-3.5-1.9-6.8c0-3.3,0.6-5.5,1.9-6.8c0.7-0.6,1.5-1,2.6-1S137.8,3.7,138.5,4.3z M134.6,5.7c-0.8,0.8-1.2,2.6-1.2,5.4
		c0,2.8,0.4,4.6,1.2,5.4c0.4,0.4,0.8,0.6,1.3,0.6s0.9-0.2,1.3-0.6c0.8-0.8,1.2-2.6,1.2-5.4c0-2.8-0.4-4.6-1.2-5.4
		c-0.4-0.4-0.8-0.6-1.3-0.6S135,5.3,134.6,5.7z"/>
	<path class="st1" d="M152.1,3.2c0,0.1-0.1,0.3-0.3,0.4v2.1l6.2-0.2v2.1l-6.2,0.2v2.1l4.9-0.1v2.1l-4.9,0.1v2.1
		c2.2,0.5,4.2,1.3,6,2.3l-1,2c-1.7-0.9-3.4-1.7-5.1-2.2c-0.3,2.4-1.7,3.7-4.2,3.7c-1.2,0-2.2-0.3-2.8-1c-0.6-0.5-0.8-1.2-0.8-2
		c0-0.8,0.3-1.6,0.9-2.2c0.8-0.7,1.8-1.1,3.2-1.1c0.4,0,0.9,0,1.5,0.1v-1.6l-5.7,0.1l-0.2-2.1l5.9-0.1V8l-7.1,0.2l-0.2-2.1l7.3-0.2
		V3h2C151.9,3,152.1,3,152.1,3.2z M146.4,15.9c-0.4,0.2-0.6,0.6-0.6,1c0,0.8,0.7,1.1,1.9,1c0.5,0,0.9-0.2,1.2-0.4
		c0.4-0.2,0.5-0.8,0.5-1.7c-0.7-0.1-1.3-0.2-1.8-0.2C147.2,15.6,146.8,15.7,146.4,15.9z"/>
	<path class="st1" d="M176.2,7c-1.5-0.1-2.8-0.1-3.8,0.2c-1.6,0.4-2.8,1-3.6,1.8c-1,1-1.5,2.2-1.5,3.6c0,1.2,0.4,2.2,1.1,2.9
		c1,1,3,1.5,6,1.6l-0.6,2.2c-0.8,0-1.6-0.1-2.4-0.3c-0.8-0.1-1.7-0.4-2.5-0.7c-1.4-0.5-2.3-1.3-2.9-2.2c-0.6-1-0.9-2-0.9-3
		c-0.1-1,0.1-2,0.4-2.8c0.3-0.8,0.9-1.7,1.8-2.5c-1.9,0.2-4.1,0.6-6.7,1l-0.5-2.4c5.4-0.3,10.6-0.9,15.7-1.8L176.2,7z M175.3,11.6
		l-1.1,1.2c-1-0.8-2-1.5-3.2-2.2l1.1-1.1C173.6,10.4,174.6,11.1,175.3,11.6z M176.8,9.8l-1.1,1.2c-1.1-0.7-2.1-1.5-3.2-2.2l1-1.1
		C174.8,8.4,175.9,9.1,176.8,9.8z"/>
	<path class="st1" d="M179.1,20.8l-1.4-1.2c2.4-2.3,3.6-5,3.6-8.1c0-3-1.2-5.7-3.6-8.1l1.4-1.2c2.7,2.6,4,5.7,4,9.2
		C183,15.1,181.7,18.2,179.1,20.8z"/>
</g>
</svg>
