<?xml version="1.0" encoding="utf-8"?>
<!-- Generator: Adobe Illustrator 19.2.0, SVG Export Plug-In . SVG Version: 6.00 Build 0)  -->
<svg version="1.1" id="レイヤー_1" xmlns="http://www.w3.org/2000/svg" xmlns:xlink="http://www.w3.org/1999/xlink" x="0px"
	 y="0px" viewBox="0 0 120 23" style="enable-background:new 0 0 120 23;" xml:space="preserve" height="46px">
<style type="text/css">
	.st0{enable-background:new    ;}
	.st1{fill:#FCFAFA;}
</style>
<g class="st0">
	<path class="st1" d="M52.3,3.4c0.1,0.1-0.1,0.3-0.3,0.4v3.4l6-0.1l-0.3,8.4c-0.1,1.3-0.3,2.2-0.8,2.6c-0.7,0.5-1.3,0.7-1.9,0.7h-3
		l-0.3-2.5c1,0.1,1.9,0.2,2.9,0.2c0.6,0,0.9-0.8,1-2.2l0.2-5.1l-4,0.1c-0.1,1.7-0.6,3.5-1.7,5.4c-1,1.7-2.5,3.3-4.6,4.8l-1.7-1.7
		c3.8-2.4,5.7-5.2,5.7-8.4L44,9.6V7.4l5.7-0.1V3.2h2C52.1,3.2,52.3,3.3,52.3,3.4z"/>
	<path class="st1" d="M70.9,16.3c-2.3,1.4-5.3,2.2-9,2.5c-0.1,0.3-0.3,0.4-0.5,0.4c-0.2,0-0.3-0.2-0.4-0.6l-0.3-2.1
		c3.3-0.1,6.1-0.8,8.5-2c2.3-1.2,4.1-3.3,5.2-6.3l1.9,1.3C75.1,12.7,73.3,14.9,70.9,16.3z M67,8.3L65.4,10C64.7,9.4,64,8.7,63.1,8
		c-0.9-0.7-1.6-1.2-2-1.5L62.5,5C64,5.8,65.5,6.9,67,8.3z"/>
</g>
</svg>
