<?xml version="1.0" encoding="utf-8"?>
<!-- Generator: Adobe Illustrator 19.2.0, SVG Export Plug-In . SVG Version: 6.00 Build 0)  -->
<svg version="1.1" id="レイヤー_1" xmlns="http://www.w3.org/2000/svg" xmlns:xlink="http://www.w3.org/1999/xlink" x="0px"
	 y="0px" viewBox="0 0 129.5 18.7" style="enable-background:new 0 0 129.5 18.7;" xml:space="preserve" height="40">
<style type="text/css">
	.st0{enable-background:new    ;}
	.st1{fill:#FCFAFA;}
</style>
<g class="st0">
	<path class="st1" d="M8.5,1.2c0.1,0.1-0.1,0.3-0.3,0.4V5l6-0.1l-0.3,8.4c-0.1,1.3-0.3,2.2-0.8,2.6c-0.7,0.5-1.3,0.7-1.9,0.7h-3
		l-0.3-2.5c1,0.1,1.9,0.2,2.9,0.2c0.6,0,0.9-0.8,1-2.2L12,7L8,7.1c-0.1,1.7-0.6,3.5-1.7,5.4c-1,1.7-2.5,3.3-4.6,4.8L0,15.6
		c3.8-2.4,5.7-5.2,5.7-8.4L0.2,7.4V5.2l5.7-0.1V1h2C8.3,1,8.5,1.1,8.5,1.2z"/>
	<path class="st1" d="M27.1,14.1c-2.3,1.4-5.3,2.2-9,2.5C18,16.9,17.8,17,17.6,17s-0.3-0.2-0.4-0.6l-0.3-2.1c3.3-0.1,6.1-0.8,8.5-2
		c2.3-1.2,4.1-3.3,5.2-6.3l1.9,1.3C31.3,10.5,29.5,12.7,27.1,14.1z M23.2,6.1l-1.6,1.7c-0.7-0.6-1.4-1.3-2.3-2s-1.6-1.2-2-1.5
		l1.4-1.5C20.2,3.6,21.7,4.7,23.2,6.1z"/>
</g>
<path class="st1" d="M40.7,1.3c-2.4,2.3-3.6,5-3.6,8.1c0,3,1.2,5.7,3.6,8.1l-1.4,1.2c-2.7-2.6-4-5.7-4-9.2c0-3.6,1.3-6.7,4-9.2
	L40.7,1.3z"/>
<path class="st1" d="M47.8,1.3v15.2h-2V4.9h-2.5V3.2c1.8-0.1,2.9-0.7,3.1-1.9H47.8z"/>
<path class="st1" d="M59.9,2.2c0.8,0.8,1.2,1.8,1.2,3c0,2-0.9,3.9-2.8,5.7c-1.3,1.3-2.3,2.6-3,4h5.6v1.8h-8v-1.6
	c0.9-1.9,2.1-3.6,3.8-5.2c1.6-1.6,2.4-3.1,2.4-4.5c0-0.8-0.2-1.4-0.6-1.8c-0.4-0.3-0.8-0.5-1.4-0.5c-1.3,0-2,1.2-2.1,3.7h-2
	c0-1.9,0.5-3.4,1.6-4.5c0.7-0.6,1.5-1,2.5-1C58.3,1.1,59.2,1.5,59.9,2.2z"/>
<path class="st1" d="M65.6,6.5h-2.4V4.1h2.4V6.5z M65.6,14.6h-2.4v-2.4h2.4V14.6z"/>
<path class="st1" d="M74,8.4c1.3,1.1,1.9,2.4,1.9,3.9c0,1.3-0.4,2.4-1.3,3.2c-0.8,0.7-1.8,1.1-3,1.1c-1.1,0-2.1-0.4-2.8-1.1
	c-0.8-0.7-1.2-2.1-1.4-4.1h2c0,1.3,0.3,2.3,0.9,2.9c0.4,0.3,0.8,0.5,1.4,0.5c0.6,0,1.1-0.2,1.5-0.6c0.5-0.4,0.7-1.1,0.7-1.9
	c0-0.8-0.3-1.5-0.8-2c-0.6-0.5-1.4-0.8-2.4-0.7V7.4c1.9,0.2,2.8-0.6,2.8-2.4c0-0.7-0.2-1.2-0.6-1.6C72.6,3.1,72.2,3,71.7,3
	s-0.9,0.1-1.2,0.4c-0.6,0.5-0.8,1.4-0.8,2.5h-2c0.1-1.6,0.6-2.9,1.4-3.7c0.7-0.7,1.6-1,2.6-1c1.1,0,2,0.3,2.8,1
	c0.7,0.7,1.1,1.6,1.1,2.8C75.5,6.4,75,7.5,74,8.4z"/>
<path class="st1" d="M84.9,2.1c1.3,1.2,1.9,3.5,1.9,6.8s-0.6,5.5-1.9,6.8c-0.7,0.6-1.5,1-2.6,1s-1.9-0.3-2.6-1
	c-1.3-1.2-1.9-3.5-1.9-6.8s0.6-5.5,1.9-6.8c0.7-0.6,1.5-1,2.6-1S84.3,1.5,84.9,2.1z M81,3.5c-0.8,0.8-1.2,2.6-1.2,5.4
	s0.4,4.6,1.2,5.4c0.4,0.4,0.8,0.6,1.3,0.6s0.9-0.2,1.3-0.6c0.8-0.8,1.2-2.6,1.2-5.4s-0.4-4.6-1.2-5.4c-0.4-0.4-0.8-0.6-1.3-0.6
	S81.4,3.1,81,3.5z"/>
<path class="st1" d="M98.5,1c0,0.1-0.1,0.3-0.3,0.4v2.1l6.2-0.2v2.1l-6.2,0.2v2.1l4.9-0.1v2.1l-4.9,0.1v2.1c2.2,0.5,4.2,1.3,6,2.3
	l-1,2c-1.7-0.9-3.4-1.7-5.1-2.2c-0.3,2.4-1.7,3.7-4.2,3.7c-1.2,0-2.2-0.3-2.8-1c-0.6-0.5-0.8-1.2-0.8-2s0.3-1.6,0.9-2.2
	c0.8-0.7,1.8-1.1,3.2-1.1c0.4,0,0.9,0,1.5,0.1V9.9L90.2,10L90,7.9l5.9-0.1v-2L88.8,6l-0.2-2.1l7.3-0.2V0.8h2
	C98.3,0.8,98.5,0.8,98.5,1z M92.9,13.7c-0.4,0.2-0.6,0.6-0.6,1c0,0.8,0.7,1.1,1.9,1c0.5,0,0.9-0.2,1.2-0.4c0.4-0.2,0.5-0.8,0.5-1.7
	c-0.7-0.1-1.3-0.2-1.8-0.2C93.6,13.4,93.2,13.5,92.9,13.7z"/>
<path class="st1" d="M122.7,4.8c-1.5-0.1-2.8-0.1-3.8,0.2c-1.6,0.4-2.8,1-3.6,1.8c-1,1-1.5,2.2-1.5,3.6c0,1.2,0.4,2.2,1.1,2.9
	c1,1,3,1.5,6,1.6l-0.6,2.2c-0.8,0-1.6-0.1-2.4-0.3c-0.8-0.1-1.7-0.4-2.5-0.7c-1.4-0.5-2.3-1.3-2.9-2.2c-0.6-1-0.9-2-0.9-3
	c-0.1-1,0.1-2,0.4-2.8c0.3-0.8,0.9-1.7,1.8-2.5c-1.9,0.2-4.1,0.6-6.7,1l-0.5-2.4c5.4-0.3,10.6-0.9,15.7-1.8L122.7,4.8z M121.7,9.4
	l-1.1,1.2c-1-0.8-2-1.5-3.2-2.2l1.1-1.1C120,8.2,121.1,8.9,121.7,9.4z M123.3,7.6l-1.1,1.2c-1.1-0.7-2.1-1.5-3.2-2.2l1-1.1
	C121.2,6.2,122.3,6.9,123.3,7.6z"/>
<path class="st1" d="M125.5,18.6l-1.4-1.2c2.4-2.3,3.6-5,3.6-8.1c0-3-1.2-5.7-3.6-8.1l1.4-1.2c2.7,2.6,4,5.7,4,9.2
	C129.5,12.9,128.1,16,125.5,18.6z"/>
</svg>
