<?xml version="1.0" encoding="utf-8"?>
<!-- Generator: Adobe Illustrator 19.2.0, SVG Export Plug-In . SVG Version: 6.00 Build 0)  -->
<svg version="1.1" id="レイヤー_1" xmlns="http://www.w3.org/2000/svg" xmlns:xlink="http://www.w3.org/1999/xlink" x="0px"
	 y="0px" viewBox="0 0 94.2 36.5" style="enable-background:new 0 0 94.2 36.5;" xml:space="preserve" height="60">
<style type="text/css">
	.st0{enable-background:new    ;}
	.st1{fill:#FCFAFA;}
</style>
<g class="st0">
	<path class="st1" d="M37.1,0.2c0.1,0.1-0.1,0.3-0.3,0.4V4l6-0.1l-0.3,8.4c-0.1,1.3-0.3,2.2-0.8,2.6c-0.7,0.5-1.3,0.7-1.9,0.7h-3
		l-0.3-2.5c1,0.1,1.9,0.2,2.9,0.2c0.6,0,0.9-0.8,1-2.2L40.6,6l-4,0.1c-0.1,1.7-0.6,3.5-1.7,5.4c-1,1.7-2.5,3.3-4.6,4.8l-1.7-1.7
		c3.8-2.4,5.7-5.2,5.7-8.4l-5.5,0.2V4.2l5.7-0.1V0h2C36.9,0,37.1,0.1,37.1,0.2z"/>
	<path class="st1" d="M55.7,13.1c-2.3,1.4-5.3,2.2-9,2.5c-0.1,0.3-0.3,0.4-0.5,0.4c-0.2,0-0.3-0.2-0.4-0.6l-0.3-2.1
		c3.3-0.1,6.1-0.8,8.5-2c2.3-1.2,4.1-3.3,5.2-6.3l1.9,1.3C59.9,9.5,58.1,11.7,55.7,13.1z M51.8,5.1l-1.6,1.7c-0.7-0.6-1.4-1.3-2.3-2
		c-0.9-0.7-1.6-1.2-2-1.5l1.4-1.5C48.8,2.6,50.3,3.7,51.8,5.1z"/>
</g>
<path class="st1" d="M5.4,19.1c-2.4,2.3-3.6,5-3.6,8.1c0,3,1.2,5.7,3.6,8.1L4,36.5c-2.7-2.6-4-5.7-4-9.2c0-3.6,1.3-6.7,4-9.2
	L5.4,19.1z"/>
<path class="st1" d="M12.5,19.1v15.2h-2V22.7H8V21c1.8-0.1,2.9-0.7,3.1-1.9C11.1,19.1,12.5,19.1,12.5,19.1z"/>
<path class="st1" d="M24.6,20c0.8,0.8,1.2,1.8,1.2,3c0,2-0.9,3.9-2.8,5.7c-1.3,1.3-2.3,2.6-3,4h5.6v1.8h-8v-1.6
	c0.9-1.9,2.1-3.6,3.8-5.2c1.6-1.6,2.4-3.1,2.4-4.5c0-0.8-0.2-1.4-0.6-1.8c-0.4-0.3-0.8-0.5-1.4-0.5c-1.3,0-2,1.2-2.1,3.7h-2
	c0-1.9,0.5-3.4,1.6-4.5c0.7-0.6,1.5-1,2.5-1C23,18.9,23.9,19.3,24.6,20z"/>
<path class="st1" d="M30.3,24.3h-2.4v-2.4h2.4V24.3z M30.3,32.4h-2.4V30h2.4V32.4z"/>
<path class="st1" d="M38.7,26.2c1.3,1.1,1.9,2.4,1.9,3.9c0,1.3-0.4,2.4-1.3,3.2c-0.8,0.7-1.8,1.1-3,1.1c-1.1,0-2.1-0.4-2.8-1.1
	c-0.8-0.7-1.2-2.1-1.4-4.1h2c0,1.3,0.3,2.3,0.9,2.9c0.4,0.3,0.8,0.5,1.4,0.5s1.1-0.2,1.5-0.6c0.5-0.4,0.7-1.1,0.7-1.9
	c0-0.8-0.3-1.5-0.8-2c-0.6-0.5-1.4-0.8-2.4-0.7v-2.2c1.9,0.2,2.8-0.6,2.8-2.4c0-0.7-0.2-1.2-0.6-1.6c-0.3-0.3-0.7-0.4-1.2-0.4
	s-0.9,0.1-1.2,0.4c-0.6,0.5-0.8,1.4-0.8,2.5h-2c0.1-1.6,0.6-2.9,1.4-3.7c0.7-0.7,1.6-1,2.6-1c1.1,0,2,0.3,2.8,1
	c0.7,0.7,1.1,1.6,1.1,2.8C40.2,24.2,39.7,25.3,38.7,26.2z"/>
<path class="st1" d="M49.6,19.9c1.3,1.2,1.9,3.5,1.9,6.8s-0.6,5.5-1.9,6.8c-0.7,0.6-1.5,1-2.6,1s-1.9-0.3-2.6-1
	c-1.3-1.2-1.9-3.5-1.9-6.8s0.6-5.5,1.9-6.8c0.7-0.6,1.5-1,2.6-1S49,19.3,49.6,19.9z M45.7,21.3c-0.8,0.8-1.2,2.6-1.2,5.4
	s0.4,4.6,1.2,5.4c0.4,0.4,0.8,0.6,1.3,0.6s0.9-0.2,1.3-0.6c0.8-0.8,1.2-2.6,1.2-5.4s-0.4-4.6-1.2-5.4c-0.4-0.4-0.8-0.6-1.3-0.6
	S46.1,20.9,45.7,21.3z"/>
<path class="st1" d="M63.2,18.8c0,0.1-0.1,0.3-0.3,0.4v2.1l6.2-0.2v2.1l-6.2,0.2v2.1l4.9-0.1v2.1l-4.9,0.1v2.1
	c2.2,0.5,4.2,1.3,6,2.3l-1,2c-1.7-0.9-3.4-1.7-5.1-2.2c-0.3,2.4-1.7,3.7-4.2,3.7c-1.2,0-2.2-0.3-2.8-1c-0.6-0.5-0.8-1.2-0.8-2
	c0-0.8,0.3-1.6,0.9-2.2c0.8-0.7,1.8-1.1,3.2-1.1c0.4,0,0.9,0,1.5,0.1v-1.6l-5.7,0.1l-0.2-2.1l5.9-0.1v-2l-7.1,0.2l-0.2-2.1l7.3-0.2
	v-2.9h2C63,18.6,63.2,18.6,63.2,18.8z M57.6,31.5c-0.4,0.2-0.6,0.6-0.6,1c0,0.8,0.7,1.1,1.9,1c0.5,0,0.9-0.2,1.2-0.4
	c0.4-0.2,0.5-0.8,0.5-1.7c-0.7-0.1-1.3-0.2-1.8-0.2S57.9,31.3,57.6,31.5z"/>
<path class="st1" d="M87.4,22.6c-1.5-0.1-2.8-0.1-3.8,0.2c-1.6,0.4-2.8,1-3.6,1.8c-1,1-1.5,2.2-1.5,3.6c0,1.2,0.4,2.2,1.1,2.9
	c1,1,3,1.5,6,1.6L85,34.9c-0.8,0-1.6-0.1-2.4-0.3c-0.8-0.1-1.7-0.4-2.5-0.7c-1.4-0.5-2.3-1.3-2.9-2.2c-0.6-1-0.9-2-0.9-3
	c-0.1-1,0.1-2,0.4-2.8c0.3-0.8,0.9-1.7,1.8-2.5c-1.9,0.2-4.1,0.6-6.7,1L71.3,22c5.4-0.3,10.6-0.9,15.7-1.8L87.4,22.6z M86.4,27.2
	l-1.1,1.2c-1-0.8-2-1.5-3.2-2.2l1.1-1.1C84.7,26,85.8,26.7,86.4,27.2z M88,25.4l-1.1,1.2c-1.1-0.7-2.1-1.5-3.2-2.2l1-1.1
	C85.9,24,87,24.7,88,25.4z"/>
<path class="st1" d="M90.2,36.4l-1.4-1.2c2.4-2.3,3.6-5,3.6-8.1c0-3-1.2-5.7-3.6-8.1l1.4-1.2c2.7,2.6,4,5.7,4,9.2
	C94.2,30.7,92.8,33.8,90.2,36.4z"/>
</svg>
