<?xml version="1.0" encoding="utf-8"?>
<!-- Generator: Adobe Illustrator 19.2.0, SVG Export Plug-In . SVG Version: 6.00 Build 0)  -->
<svg version="1.1" id="レイヤー_1" xmlns="http://www.w3.org/2000/svg" xmlns:xlink="http://www.w3.org/1999/xlink" x="0px"
	 y="0px" viewBox="0 0 128.8 18.7" style="enable-background:new 0 0 128.8 18.7;" xml:space="preserve" height="40">
<style type="text/css">
	.st0{enable-background:new    ;}
	.st1{fill:#FCFAFA;}
</style>
<g class="st0">
	<path class="st1" d="M2.6,3.6C2.7,3.7,2.5,3.9,2.3,4v3.7c3.2-0.3,6.2-0.9,9.2-1.8l0.4,1.8c0.2,0.8-0.1,1-0.7,0.5
		C9.8,8.5,8.4,8.8,7,9.1C5.6,9.4,4,9.6,2.3,9.8v4.4c0,0.6,0.2,0.9,0.7,0.9h9.2L12,17.2H2.3c-0.5,0-1-0.2-1.5-0.6S0,15.6,0,15V3.4h2
		C2.4,3.4,2.6,3.4,2.6,3.6z M11,6C9.9,4.7,9,3.7,8.3,3.1l1.2-1c1,0.8,1.9,1.8,2.8,2.8L11,6z M13.1,5c-0.8-1.1-1.6-2.1-2.6-3l1.2-1
		c1.2,1,2.1,2,2.8,2.8L13.1,5z"/>
	<path class="st1" d="M26,14.9c-2.3,1.4-5.3,2.2-9,2.5c-0.1,0.3-0.3,0.4-0.5,0.4s-0.3-0.2-0.4-0.6l-0.3-2.1c3.3-0.1,6.1-0.8,8.5-2
		c2.3-1.2,4.1-3.3,5.2-6.3l1.9,1.3C30.2,11.3,28.4,13.5,26,14.9z M22.1,6.9l-1.6,1.7c-0.6-0.6-1.4-1.2-2.2-1.9
		c-0.9-0.7-1.6-1.2-2-1.5l1.4-1.6C19.1,4.4,20.6,5.5,22.1,6.9z"/>
</g>
<path class="st1" d="M40,1.3c-2.4,2.3-3.6,5-3.6,8.1c0,3,1.2,5.7,3.6,8.1l-1.4,1.2c-2.7-2.6-4-5.7-4-9.2c0-3.6,1.3-6.7,4-9.2L40,1.3
	z"/>
<path class="st1" d="M47.1,1.3v15.2h-2V4.9h-2.5V3.2c1.8-0.1,2.9-0.7,3.1-1.9H47.1z"/>
<path class="st1" d="M59.2,2.2C60,3,60.4,4,60.4,5.2c0,2-0.9,3.9-2.8,5.7c-1.3,1.3-2.3,2.6-3,4h5.6v1.8h-8v-1.6
	c0.9-1.9,2.1-3.6,3.8-5.2c1.6-1.6,2.4-3.1,2.4-4.5c0-0.8-0.2-1.4-0.6-1.8c-0.4-0.3-0.8-0.5-1.4-0.5c-1.3,0-2,1.2-2.1,3.7h-2
	c0-1.9,0.5-3.4,1.6-4.5c0.7-0.6,1.5-1,2.5-1C57.6,1.1,58.5,1.5,59.2,2.2z"/>
<path class="st1" d="M64.9,6.5h-2.4V4.1h2.4V6.5z M64.9,14.6h-2.4v-2.4h2.4V14.6z"/>
<path class="st1" d="M73.3,8.4c1.3,1.1,1.9,2.4,1.9,3.9c0,1.3-0.4,2.4-1.3,3.2c-0.8,0.7-1.8,1.1-3,1.1c-1.1,0-2.1-0.4-2.8-1.1
	c-0.8-0.7-1.2-2.1-1.4-4.1h2c0,1.3,0.3,2.3,0.9,2.9c0.4,0.3,0.8,0.5,1.4,0.5c0.6,0,1.1-0.2,1.5-0.6c0.5-0.4,0.7-1.1,0.7-1.9
	c0-0.8-0.3-1.5-0.8-2C71.8,9.8,71,9.5,70,9.6V7.4c1.9,0.2,2.8-0.6,2.8-2.4c0-0.7-0.2-1.2-0.6-1.6C71.9,3.1,71.5,3,71,3
	s-0.9,0.1-1.2,0.4C69.2,3.9,69,4.8,69,5.9h-2c0.1-1.6,0.6-2.9,1.4-3.7c0.7-0.7,1.6-1,2.6-1c1.1,0,2,0.3,2.8,1
	c0.7,0.7,1.1,1.6,1.1,2.8C74.8,6.4,74.3,7.5,73.3,8.4z"/>
<path class="st1" d="M84.2,2.1c1.3,1.2,1.9,3.5,1.9,6.8s-0.6,5.5-1.9,6.8c-0.7,0.6-1.5,1-2.6,1s-1.9-0.3-2.6-1
	c-1.3-1.2-1.9-3.5-1.9-6.8s0.6-5.5,1.9-6.8c0.7-0.6,1.5-1,2.6-1S83.6,1.5,84.2,2.1z M80.3,3.5c-0.8,0.8-1.2,2.6-1.2,5.4
	s0.4,4.6,1.2,5.4c0.4,0.4,0.8,0.6,1.3,0.6s0.9-0.2,1.3-0.6c0.8-0.8,1.2-2.6,1.2-5.4s-0.4-4.6-1.2-5.4c-0.4-0.4-0.8-0.6-1.3-0.6
	S80.7,3.1,80.3,3.5z"/>
<path class="st1" d="M97.8,1c0,0.1-0.1,0.3-0.3,0.4v2.1l6.2-0.2v2.1l-6.2,0.2v2.1l4.9-0.1v2.1l-4.9,0.1v2.1c2.2,0.5,4.2,1.3,6,2.3
	l-1,2c-1.7-0.9-3.4-1.7-5.1-2.2c-0.3,2.4-1.7,3.7-4.2,3.7c-1.2,0-2.2-0.3-2.8-1c-0.6-0.5-0.8-1.2-0.8-2s0.3-1.6,0.9-2.2
	c0.8-0.7,1.8-1.1,3.2-1.1c0.4,0,0.9,0,1.5,0.1V9.9L89.5,10l-0.2-2.1l5.9-0.1v-2L88.1,6l-0.2-2.1l7.3-0.2V0.8h2
	C97.6,0.8,97.8,0.8,97.8,1z M92.2,13.7c-0.4,0.2-0.6,0.6-0.6,1c0,0.8,0.7,1.1,1.9,1c0.5,0,0.9-0.2,1.2-0.4c0.4-0.2,0.5-0.8,0.5-1.7
	c-0.7-0.1-1.3-0.2-1.8-0.2C92.9,13.4,92.5,13.5,92.2,13.7z"/>
<path class="st1" d="M122,4.8c-1.5-0.1-2.8-0.1-3.8,0.2c-1.6,0.4-2.8,1-3.6,1.8c-1,1-1.5,2.2-1.5,3.6c0,1.2,0.4,2.2,1.1,2.9
	c1,1,3,1.5,6,1.6l-0.6,2.2c-0.8,0-1.6-0.1-2.4-0.3c-0.8-0.1-1.7-0.4-2.5-0.7c-1.4-0.5-2.3-1.3-2.9-2.2c-0.6-1-0.9-2-0.9-3
	c-0.1-1,0.1-2,0.4-2.8c0.3-0.8,0.9-1.7,1.8-2.5c-1.9,0.2-4.1,0.6-6.7,1l-0.5-2.4c5.4-0.3,10.6-0.9,15.7-1.8L122,4.8z M121,9.4
	l-1.1,1.2c-1-0.8-2-1.5-3.2-2.2l1.1-1.1C119.3,8.2,120.4,8.9,121,9.4z M122.6,7.6l-1.1,1.2c-1.1-0.7-2.1-1.5-3.2-2.2l1-1.1
	C120.5,6.2,121.6,6.9,122.6,7.6z"/>
<path class="st1" d="M124.8,18.6l-1.4-1.2c2.4-2.3,3.6-5,3.6-8.1c0-3-1.2-5.7-3.6-8.1l1.4-1.2c2.7,2.6,4,5.7,4,9.2
	C128.8,12.9,127.4,16,124.8,18.6z"/>
</svg>
