<?xml version="1.0" encoding="utf-8"?>
<!-- Generator: Adobe Illustrator 19.2.0, SVG Export Plug-In . SVG Version: 6.00 Build 0)  -->
<svg version="1.1" id="レイヤー_1" xmlns="http://www.w3.org/2000/svg" xmlns:xlink="http://www.w3.org/1999/xlink" x="0px"
	 y="0px" viewBox="0 0 120 23" style="enable-background:new 0 0 120 23;" xml:space="preserve">
<style type="text/css">
	.st0{enable-background:new    ;}
	.st1{fill:#FCFAFA;}
</style>
<g class="st0">
	<path class="st1" d="M48.8,5c0.1,0.1-0.1,0.3-0.3,0.4v3.7c3.2-0.3,6.2-0.9,9.2-1.8l0.4,1.8c0.2,0.8-0.1,1-0.7,0.5
		c-1.4,0.3-2.8,0.6-4.2,0.9c-1.4,0.3-3,0.5-4.7,0.7v4.4c0,0.6,0.2,0.9,0.7,0.9h9.2l-0.2,2.1h-9.7c-0.5,0-1-0.2-1.5-0.6
		s-0.8-1-0.8-1.6V4.8h2C48.6,4.8,48.8,4.8,48.8,5z M57.2,7.4c-1.1-1.3-2-2.3-2.7-2.9l1.2-1c1,0.8,1.9,1.8,2.8,2.8L57.2,7.4z
		 M59.3,6.4c-0.8-1.1-1.6-2.1-2.6-3l1.2-1c1.2,1,2.1,2,2.8,2.8L59.3,6.4z"/>
	<path class="st1" d="M72.2,16.3c-2.3,1.4-5.3,2.2-9,2.5c-0.1,0.3-0.3,0.4-0.5,0.4s-0.3-0.2-0.4-0.6L62,16.5c3.3-0.1,6.1-0.8,8.5-2
		c2.3-1.2,4.1-3.3,5.2-6.3l1.9,1.3C76.4,12.7,74.6,14.9,72.2,16.3z M68.3,8.3L66.7,10c-0.6-0.6-1.4-1.2-2.2-1.9
		c-0.9-0.7-1.6-1.2-2-1.5L63.9,5C65.3,5.8,66.8,6.9,68.3,8.3z"/>
</g>
</svg>
