<?xml version="1.0" encoding="utf-8"?>
<!-- Generator: Adobe Illustrator 19.2.0, SVG Export Plug-In . SVG Version: 6.00 Build 0)  -->
<svg version="1.1" id="レイヤー_1" xmlns="http://www.w3.org/2000/svg" xmlns:xlink="http://www.w3.org/1999/xlink" x="0px"
	 y="0px" viewBox="0 0 94.2 38.7" style="enable-background:new 0 0 94.2 38.7;" xml:space="preserve" height="60">
<style type="text/css">
	.st0{enable-background:new    ;}
	.st1{fill:#FCFAFA;}
</style>
<g class="st0">
	<path class="st1" d="M33.9,2.6C34,2.7,33.8,2.9,33.6,3v3.7c3.2-0.3,6.2-0.9,9.2-1.8l0.4,1.8c0.2,0.8-0.1,1-0.7,0.5
		c-1.4,0.3-2.8,0.6-4.2,0.9c-1.4,0.3-3,0.5-4.7,0.7v4.4c0,0.6,0.2,0.9,0.7,0.9h9.2l-0.2,2.1h-9.7c-0.5,0-1-0.2-1.5-0.6
		s-0.8-1-0.8-1.6V2.4h2C33.7,2.4,33.9,2.4,33.9,2.6z M42.3,5c-1.1-1.3-2-2.3-2.7-2.9l1.2-1c1,0.8,1.9,1.8,2.8,2.8L42.3,5z M44.4,4
		c-0.8-1.1-1.6-2.1-2.6-3L43,0c1.2,1,2.1,2,2.8,2.8L44.4,4z"/>
	<path class="st1" d="M57.3,13.9c-2.3,1.4-5.3,2.2-9,2.5c-0.1,0.3-0.3,0.4-0.5,0.4s-0.3-0.2-0.4-0.6l-0.3-2.1c3.3-0.1,6.1-0.8,8.5-2
		c2.3-1.2,4.1-3.3,5.2-6.3l1.9,1.3C61.5,10.3,59.7,12.5,57.3,13.9z M53.4,5.9l-1.6,1.7c-0.6-0.6-1.4-1.2-2.2-1.9
		c-0.9-0.7-1.6-1.2-2-1.5L49,2.6C50.4,3.4,51.9,4.5,53.4,5.9z"/>
</g>
<path class="st1" d="M5.4,21.3c-2.4,2.3-3.6,5-3.6,8.1c0,3,1.2,5.7,3.6,8.1L4,38.7c-2.7-2.6-4-5.7-4-9.2c0-3.6,1.3-6.7,4-9.2
	L5.4,21.3z"/>
<path class="st1" d="M12.5,21.3v15.2h-2V24.9H8v-1.7c1.8-0.1,2.9-0.7,3.1-1.9C11.1,21.3,12.5,21.3,12.5,21.3z"/>
<path class="st1" d="M24.6,22.2c0.8,0.8,1.2,1.8,1.2,3c0,2-0.9,3.9-2.8,5.7c-1.3,1.3-2.3,2.6-3,4h5.6v1.8h-8v-1.6
	c0.9-1.9,2.1-3.6,3.8-5.2c1.6-1.6,2.4-3.1,2.4-4.5c0-0.8-0.2-1.4-0.6-1.8c-0.4-0.3-0.8-0.5-1.4-0.5c-1.3,0-2,1.2-2.1,3.7h-2
	c0-1.9,0.5-3.4,1.6-4.5c0.7-0.6,1.5-1,2.5-1C23,21.1,23.9,21.5,24.6,22.2z"/>
<path class="st1" d="M30.3,26.5h-2.4v-2.4h2.4V26.5z M30.3,34.6h-2.4v-2.4h2.4V34.6z"/>
<path class="st1" d="M38.7,28.4c1.3,1.1,1.9,2.4,1.9,3.9c0,1.3-0.4,2.4-1.3,3.2c-0.8,0.7-1.8,1.1-3,1.1c-1.1,0-2.1-0.4-2.8-1.1
	c-0.8-0.7-1.2-2.1-1.4-4.1h2c0,1.3,0.3,2.3,0.9,2.9c0.4,0.3,0.8,0.5,1.4,0.5s1.1-0.2,1.5-0.6c0.5-0.4,0.7-1.1,0.7-1.9
	c0-0.8-0.3-1.5-0.8-2c-0.6-0.5-1.4-0.8-2.4-0.7v-2.2c1.9,0.2,2.8-0.6,2.8-2.4c0-0.7-0.2-1.2-0.6-1.6c-0.3-0.3-0.7-0.4-1.2-0.4
	s-0.9,0.1-1.2,0.4c-0.6,0.5-0.8,1.4-0.8,2.5h-2c0.1-1.6,0.6-2.9,1.4-3.7c0.7-0.7,1.6-1,2.6-1c1.1,0,2,0.3,2.8,1
	c0.7,0.7,1.1,1.6,1.1,2.8C40.2,26.4,39.7,27.5,38.7,28.4z"/>
<path class="st1" d="M49.6,22.1c1.3,1.2,1.9,3.5,1.9,6.8s-0.6,5.5-1.9,6.8c-0.7,0.6-1.5,1-2.6,1s-1.9-0.3-2.6-1
	c-1.3-1.2-1.9-3.5-1.9-6.8s0.6-5.5,1.9-6.8c0.7-0.6,1.5-1,2.6-1S49,21.5,49.6,22.1z M45.7,23.5c-0.8,0.8-1.2,2.6-1.2,5.4
	s0.4,4.6,1.2,5.4c0.4,0.4,0.8,0.6,1.3,0.6s0.9-0.2,1.3-0.6c0.8-0.8,1.2-2.6,1.2-5.4s-0.4-4.6-1.2-5.4c-0.4-0.4-0.8-0.6-1.3-0.6
	S46.1,23.1,45.7,23.5z"/>
<path class="st1" d="M63.2,21c0,0.1-0.1,0.3-0.3,0.4v2.1l6.2-0.2v2.1l-6.2,0.2v2.1l4.9-0.1v2.1l-4.9,0.1v2.1c2.2,0.5,4.2,1.3,6,2.3
	l-1,2c-1.7-0.9-3.4-1.7-5.1-2.2c-0.3,2.4-1.7,3.7-4.2,3.7c-1.2,0-2.2-0.3-2.8-1c-0.6-0.5-0.8-1.2-0.8-2c0-0.8,0.3-1.6,0.9-2.2
	c0.8-0.7,1.8-1.1,3.2-1.1c0.4,0,0.9,0,1.5,0.1v-1.6L54.9,30l-0.2-2.1l5.9-0.1v-2L53.5,26l-0.2-2.1l7.3-0.2v-2.9h2
	C63,20.8,63.2,20.8,63.2,21z M57.6,33.7c-0.4,0.2-0.6,0.6-0.6,1c0,0.8,0.7,1.1,1.9,1c0.5,0,0.9-0.2,1.2-0.4c0.4-0.2,0.5-0.8,0.5-1.7
	c-0.7-0.1-1.3-0.2-1.8-0.2C58.3,33.4,57.9,33.5,57.6,33.7z"/>
<path class="st1" d="M87.4,24.8c-1.5-0.1-2.8-0.1-3.8,0.2c-1.6,0.4-2.8,1-3.6,1.8c-1,1-1.5,2.2-1.5,3.6c0,1.2,0.4,2.2,1.1,2.9
	c1,1,3,1.5,6,1.6L85,37.1c-0.8,0-1.6-0.1-2.4-0.3c-0.8-0.1-1.7-0.4-2.5-0.7c-1.4-0.5-2.3-1.3-2.9-2.2c-0.6-1-0.9-2-0.9-3
	c-0.1-1,0.1-2,0.4-2.8c0.3-0.8,0.9-1.7,1.8-2.5c-1.9,0.2-4.1,0.6-6.7,1l-0.5-2.4c5.4-0.3,10.6-0.9,15.7-1.8L87.4,24.8z M86.4,29.4
	l-1.1,1.2c-1-0.8-2-1.5-3.2-2.2l1.1-1.1C84.7,28.2,85.8,28.9,86.4,29.4z M88,27.6l-1.1,1.2c-1.1-0.7-2.1-1.5-3.2-2.2l1-1.1
	C85.9,26.2,87,26.9,88,27.6z"/>
<path class="st1" d="M90.2,38.6l-1.4-1.2c2.4-2.3,3.6-5,3.6-8.1c0-3-1.2-5.7-3.6-8.1l1.4-1.2c2.7,2.6,4,5.7,4,9.2
	C94.2,32.9,92.8,36,90.2,38.6z"/>
</svg>
