<?xml version="1.0" encoding="utf-8"?>
<!-- Generator: Adobe Illustrator 19.2.0, SVG Export Plug-In . SVG Version: 6.00 Build 0)  -->
<svg version="1.1" id="レイヤー_1" xmlns="http://www.w3.org/2000/svg" xmlns:xlink="http://www.w3.org/1999/xlink" x="0px"
	 y="0px" viewBox="0 0 192 23" style="enable-background:new 0 0 192 23;" xml:space="preserve" height="23px">
<style type="text/css">
	.st0{enable-background:new    ;}
	.st1{fill:#FCFAFA;}
</style>
<g class="st0">
	<path class="st1" d="M14.7,4.8c0.6,0.4,0.6,0.6,0,0.7C13,7,11.2,8.5,9.5,10l9.4-1v2.2l-5.1,0.4c-1.2,0.2-2.1,0.7-2.8,1.3
		c-0.7,0.6-1,1.4-1,2.4c0,1.2,0.6,2,1.8,2.4c1.3,0.4,2.6,0.5,4.1,0.4L15.2,20c-2.8,0.1-4.8-0.4-6.1-1.7C8.3,17.6,8,16.8,8,15.7
		c0-1.5,0.6-2.8,1.8-3.7l-6.7,1l-0.4-2.2L6,10.3c0.8-0.4,1.7-1.1,2.7-1.9c1-0.8,1.8-1.6,2.4-2.3C9.6,6.3,8,6.5,6.2,6.6L5.9,4.5
		c2.7-0.1,4.8-0.3,6.6-0.6l0.6-0.4L14.7,4.8z"/>
	<path class="st1" d="M35.7,6c1.4,1.2,2.1,2.9,2.1,5.2c0,1.8-0.6,3.4-1.7,4.7c-1.1,1.3-2.7,2.4-4.6,3.2l-1.8-1.9
		c3.9-1.4,5.8-3.4,5.8-6c0-1.6-0.5-2.8-1.4-3.7c-1-0.9-2.4-1.4-4.4-1.4c0.8,0.2,1.2,0.4,1.2,0.6C31,7,30.9,7.1,30.6,7.1
		c-0.2,1.1-0.5,2.9-1.1,5.1c-0.6,2.1-1.1,3.6-1.8,4.3C27,17.6,26.1,18,25.3,18c-0.9,0-1.7-0.3-2.4-1c-1.1-1-1.6-2.6-1.6-4.8
		c0-2.1,0.8-4,2.4-5.6c1.6-1.6,3.7-2.4,6.1-2.4C32.2,4.2,34.2,4.8,35.7,6z M25.2,15.6c0.6,0,1-0.4,1.4-1.1c0.9-2.4,1.6-5.2,1.9-8.2
		c-1.7,0.2-3,1-3.8,2.3c-0.8,1.2-1.1,2.4-1.1,3.7c0,1.4,0.3,2.4,0.8,2.9C24.7,15.5,24.9,15.6,25.2,15.6z"/>
	<path class="st1" d="M45.6,3.4c0.2,0,0.2,0.1,0.2,0.2c0,0.1-0.1,0.3-0.4,0.4c-0.4,1.2-0.7,2.5-1.1,3.9c0.2,0,0.3,0,0.4,0
		c0.1,0.1,0.2,0.2,0.2,0.4c-0.1,0.1-0.2,0.2-0.3,0.3v1l1.8-0.4V5h1.8c0.6,0,0.7,0.2,0.3,0.6v3L50.3,8V3h1.8c0.6,0.1,0.7,0.2,0.3,0.6
		v3.8l2.2-0.7l0.5-0.4l1.9,1c0.3,0.2,0.3,0.4,0.1,0.5c-0.1,0-0.1,0-0.2,0l-0.2,6.1c-0.1,0.5-0.2,0.9-0.5,1.2c-0.3,0.3-0.6,0.4-1,0.4
		H53l-0.3-2h1.5c0.3,0,0.5-0.1,0.5-0.4l0.1-4.3l-2.2,0.7v6.3h-2.1v-5.7l-1.8,0.5v6.6c0,0.1,0,0.3,0.1,0.4c0.1,0.1,0.2,0.1,0.4,0.1
		h6.2c0.1,0,0.2,0,0.3-0.1c0.2,0,0.3-0.3,0.3-0.7l0.2-1.3l2.3,0.4L58,18c-0.1,0.2-0.1,0.5-0.2,0.7c-0.2,0.7-0.8,1.1-1.8,1.1h-8.2
		c-1-0.1-1.5-0.6-1.5-1.6v-6.9l-1.5,0.4l-0.3-1.9V20h-2.1v-8.5c-0.4,0.6-0.8,1.2-1.3,1.6l-1.6-1.7c1-0.8,1.8-2,2.4-3.4
		c0.8-1.9,1.3-3.7,1.5-5.1l1.8,0.4C45.3,3.3,45.5,3.4,45.6,3.4z"/>
	<path class="st1" d="M61.9,7.7c-0.1,0.1-0.1,0.2-0.2,0.2c0.1,0.9,0,2.1-0.2,3.5c-0.1,0.6-0.2,1.1-0.4,1.5l-1.8-1
		c0.2-0.4,0.4-1.2,0.5-2.2c0.1-1.1,0.1-2,0.1-2.8l1.6,0.3C61.8,7.2,62,7.4,61.9,7.7z M63.9,3.6v3.4l1.1-1.1l0.7,1.4
		C66,6.3,66.2,4.9,66.3,3h1.2c0.7,0,1,0.2,0.9,0.4c-0.1,0.1-0.2,0.1-0.3,0.1C68.1,3.9,68,4.3,68,4.7h2.8c0,0.8,0,1.6-0.1,2.3h1V3
		h1.8c0.6,0,0.7,0.2,0.3,0.6v1.2l1.2-1c0.7,0.6,1.3,1.3,1.8,1.9l-1.5,1.1c-0.4-0.6-0.9-1.2-1.5-1.8V7h3.4v1.8h-3.4
		c0.1,0.4,0.3,0.8,0.5,1.1c0.8,1.4,1.9,2.7,3.4,3.7l-1.1,1.9c-1.3-0.8-2.5-2.2-3.7-4c-0.3,0.6-0.6,1.3-1.1,2
		c-0.6,0.9-1.3,1.6-2.1,2.2l-1.4-1.5c1.8-1.4,2.9-3.2,3.3-5.5h-1.2c-0.1,0.8-0.4,1.7-0.8,2.6c-0.9,1.6-2.1,3-3.6,4l-1.4-1.5
		c0.5-0.2,0.9-0.5,1.3-0.9c0.7-0.5,1.1-1.1,1.4-1.6c-0.4-0.3-0.7-0.6-1-0.8c-0.3,0.4-0.7,0.9-1.1,1.3l-1.1-1.4
		c0.7-0.6,1.2-1.5,1.5-2.7l-1.7,1.3v5.3l1.7,1.7c0-0.2,0.1-0.4,0.2-0.6l1.8,0.6c-0.1,0.5-0.3,1.1-0.5,1.7c-0.4,1-0.8,1.9-1.3,2.5
		l-1.6-1c0.1-0.1,0.2-0.3,0.4-0.5c0.5-0.7,0.9-1.5,1.1-2.2L64.5,18c-0.3-0.4-0.7-0.9-1.1-1.4c-0.6,1.7-1.4,3-2.4,4l-1.4-1.5
		c0.4-0.4,0.8-1,1.1-1.6c0.7-1.3,1.1-2.6,1.1-4V3h1.7C64.2,3,64.3,3.2,63.9,3.6z M68.1,10c0.1-0.2,0.2-0.5,0.3-0.7l-1.2-0.7L67,9.3
		C67.4,9.6,67.7,9.8,68.1,10z M67.7,7.2c0.4,0.1,0.7,0.3,1.1,0.5C68.9,7.4,69,7,69.1,6.5h-1.2C67.8,6.7,67.7,7,67.7,7.2z M70.4,19.8
		L68.1,20c0.2-1.3,0.1-2.6-0.2-3.9l2-0.1C70.3,17.2,70.4,18.5,70.4,19.8z M74,19.4l-2.3,0.3c-0.2-1.5-0.5-2.8-0.9-3.9l1.8-0.2
		C73.2,16.8,73.7,18.1,74,19.4z M77.6,19.1L75.5,20c-0.5-1.3-1.2-2.7-2.1-4l1.8-0.8C76.1,16.3,76.9,17.6,77.6,19.1z"/>
	<path class="st1" d="M91.4,3.6c0,0.2-0.1,0.3-0.3,0.4C91.1,4.9,91,5.7,91,6.5c2-0.3,3.6,0.1,4.6,1c0.9,0.8,1.3,1.8,1.3,3
		c0,1.4-0.4,2.5-1.1,3.2c-0.8,0.7-1.7,1.1-2.8,1.1c-0.9,0-1.6-0.1-2.1-0.2c-0.9-0.2-1.7-0.6-2.3-1l1-2c0.5,0.3,1.1,0.6,1.7,0.8
		c0.6,0.2,1.1,0.3,1.5,0.3c1.4,0,2.1-0.6,2.1-1.9c0-0.7-0.2-1.3-0.6-1.7c-0.5-0.5-1.3-0.7-2.3-0.7C91,8.4,90,8.6,88.9,9
		c-1.3,0.4-2.3,0.8-3,1.2c1,3.5,2.1,6.3,3.3,8.6l-2.1,1.1c-1.3-2.7-2.4-5.7-3.2-8.9c-1.1,0.5-2.3,1.1-3.4,1.6l-1.1-2.2
		c1.4-0.4,2.8-1,4.1-1.6c-0.3-1.5-0.5-3.1-0.6-4.7h2c0.4,0,0.7,0.1,0.8,0.2c0.1,0.2-0.1,0.3-0.4,0.4c0.1,1.3,0.2,2.4,0.4,3.3
		c1.2-0.4,2.3-0.8,3.3-1.1c0-1.2,0.1-2.4,0.1-3.6h2C91.2,3.4,91.4,3.5,91.4,3.6z"/>
	<path class="st1" d="M106.5,3.2c0.1,0.2,0,0.3-0.4,0.4c0.3,1.2,0.6,2.2,0.9,3c1.7-0.1,3.3-0.3,4.7-0.7l0.4,2.1
		c-1,0.1-2.4,0.3-4.2,0.5c0.6,1.6,2.1,3.1,4.6,4.6l-1.5,1.7c-1.1-0.7-2.1-1.1-3.2-1.2c-1.1-0.1-1.9-0.1-2.5-0.1
		c-0.9,0-1.7,0.1-2.2,0.3c-0.9,0.3-1.3,0.8-1.3,1.6c0,0.6,0.2,1,0.5,1.3c0.7,0.6,2.2,1,4.7,1h3.3l-0.5,2.2h-2.1
		c-0.4,0-1.2,0-2.3-0.1c-2.4-0.2-4.1-0.7-4.8-1.4c-0.8-0.7-1.1-1.7-1.1-2.8c0-1,0.4-1.9,1.1-2.7c0.9-0.8,2.1-1.3,3.8-1.3
		c0.9,0,2,0.1,3.3,0.2c-0.9-1-1.5-2-2-3.1c-2.2,0.2-4.3,0.3-6.4,0.2l-0.5-2.2c2.2,0.1,4.2,0.1,6-0.1c-0.4-1.2-0.8-2.5-1.1-3.9h2.1
		C106.1,2.9,106.4,3,106.5,3.2z"/>
	<path class="st1" d="M121.6,3.8c0,0.1-0.1,0.2-0.4,0.3c-0.2,0.7-0.4,1.4-0.6,2.1c0.8-0.1,1.7-0.3,2.5-0.5l0.4,2.2
		c-1.2,0.2-2.4,0.4-3.6,0.5c-0.3,0.8-0.9,2.2-1.7,4.1c-0.8,1.7-1.5,3.1-2.1,4.2l-2-1.2c0.6-0.9,1.3-2.1,2.1-3.7
		c0.6-1.1,1-2.1,1.3-3.1c-1.2,0.1-2.2,0.1-3,0.1l-0.2-2.2c1.3,0,2.6,0,3.9-0.1c0.4-1.1,0.7-2.4,1-3.7l1.8,0.6
		C121.5,3.4,121.6,3.6,121.6,3.8z M126.9,9.9c0,0.1-0.1,0.2-0.2,0.4v4.3c1.5,0.5,2.9,1.2,4.1,2l-1.1,1.8c-1.1-0.7-2.1-1.2-3.1-1.6
		c-0.1,0.9-0.4,1.6-1,2.2c-0.7,0.6-1.7,1-3.1,1c-1,0-1.8-0.3-2.6-0.7c-0.8-0.6-1.2-1.4-1.1-2.3c0-1,0.5-1.8,1.5-2.4
		c1.2-0.6,2.6-0.8,4.2-0.4V9.7h1.8C126.7,9.7,126.9,9.7,126.9,9.9z M121.3,16.3c-0.3,0.2-0.4,0.4-0.4,0.7s0.2,0.5,0.5,0.7
		c0.3,0.1,0.7,0.2,1.3,0.2c0.5,0,0.9-0.1,1.3-0.4c0.3-0.3,0.5-0.8,0.5-1.4c-0.4-0.1-0.6-0.1-0.8-0.1c-0.4,0-0.8-0.1-1.1-0.1
		C122,15.9,121.5,16.1,121.3,16.3z M129.9,9.7c-1.1-0.7-3-1.5-5.5-2.5l0.9-1.6c2,0.6,3.8,1.4,5.5,2.4L129.9,9.7z"/>
	<path class="st1" d="M135.9,5.6c0,0.1-0.1,0.3-0.4,0.4c-0.2,1.4-0.3,3-0.4,4.8c-0.1,1.7,0.1,3.2,0.4,4.4c0.2,0.7,0.4,1.1,0.8,1.1
		c0.4,0,0.8-0.4,1.3-1.3l0.9-1.9l1.9,1.4c-0.4,0.9-0.7,1.7-1.1,2.5c-0.8,1.2-1.7,1.8-2.8,1.8c-2.4-0.3-3.6-2.7-3.6-7.4
		c0-2.5,0.1-4.8,0.3-6.9l2.1,0.5C135.6,5.2,135.8,5.3,135.9,5.6z M146.6,15.2c-0.2-1.3-0.5-2.7-1-4c-0.6-1.4-1.5-2.8-2.7-4.3
		l1.7-1.2c1.3,1.3,2.4,2.7,3.1,4.3c0.8,1.6,1.2,3.2,1.4,4.5L146.6,15.2z"/>
	<path class="st1" d="M164.5,16v2.2h-9.3c-2.9,0-4.2-1.4-3.9-4.1c0.1-0.5,0.3-1.1,0.5-1.7L154,13c-0.4,0.6-0.5,1.2-0.5,1.8
		c0,0.8,0.7,1.3,2,1.3H164.5z M162.4,5.1c-0.2-0.1-0.3-0.1-0.3-0.1l0.9-1.1c1.4,0.8,2.5,1.5,3.3,2.2l-1,1.2
		c-0.8-0.7-1.6-1.3-2.3-1.7v1.9h-10.6V5.1h10.1C162.5,5.1,162.4,5.1,162.4,5.1z M167.3,4.2l-1,1.3c-0.6-0.6-1.2-1-1.7-1.3
		c-0.6-0.3-1.1-0.6-1.7-0.9l1-1.1C165.2,2.7,166.3,3.4,167.3,4.2z"/>
	<path class="st1" d="M176.9,4.1l1.5,1.3c0.4,0.3,0.3,0.6-0.3,0.9c-0.6,1.3-1.1,2.7-1.7,4c1.5,0.2,3.1,0.5,4.6,1
		c0.1-1.5,0.1-3,0-4.3l2,0.4c0.4,0.1,0.6,0.2,0.6,0.4c0,0.1-0.1,0.2-0.4,0.3c0.1,0.9,0,2.3-0.2,4c1.1,0.4,2.2,0.9,3.4,1.6l-1.1,1.9
		c-0.9-0.5-1.8-1-2.8-1.4c-0.6,2.1-1.7,4-3.2,5.4l-1.8-1.4c1.4-1.2,2.4-2.8,3.1-4.8c-1.8-0.6-3.5-1-5.1-1.2
		c-0.3,0.7-0.7,1.7-1.4,2.9c-0.4,0.7-0.9,1.4-1.6,2.1c-0.5,0.5-1.1,0.7-1.9,0.7c-0.6,0-1.2-0.2-1.7-0.7c-0.6-0.5-0.8-1.3-0.8-2.2
		c0-1.2,0.5-2.3,1.5-3.2c1.2-1.1,2.7-1.7,4.7-1.7c0.4-0.7,0.8-1.9,1.4-3.6c-1.2,0.2-2.5,0.5-4.1,0.9L171,5.3c0.8,0,1.8-0.1,3-0.3
		c0.8-0.1,1.5-0.3,2-0.4C176.3,4.4,176.6,4.3,176.9,4.1z M170.8,15.9c0.3,0.1,0.7-0.2,1.1-0.8c0.6-0.9,1.1-1.8,1.6-2.8
		c-2,0.2-3.1,1.1-3.3,2.8C170.2,15.5,170.4,15.8,170.8,15.9z"/>
</g>
</svg>
