<?xml version="1.0" encoding="utf-8"?>
<!-- Generator: Adobe Illustrator 19.2.0, SVG Export Plug-In . SVG Version: 6.00 Build 0)  -->
<svg version="1.1" id="レイヤー_1" xmlns="http://www.w3.org/2000/svg" xmlns:xlink="http://www.w3.org/1999/xlink" x="0px"
	 y="0px" viewBox="0 0 281 18.8" style="enable-background:new 0 0 281 18.8;" xml:space="preserve" height="40">
<style type="text/css">
	.st0{enable-background:new    ;}
	.st1{fill:#FCFAFA;}
</style>
<g class="st0">
	<path class="st1" d="M12,2.6c0.6,0.4,0.6,0.6,0,0.7c-1.7,1.5-3.5,3-5.2,4.5l9.4-1V9l-5.1,0.4C9.9,9.6,9,10.1,8.3,10.7
		c-0.7,0.6-1,1.4-1,2.4c0,1.2,0.6,2,1.8,2.4c1.3,0.4,2.6,0.5,4.1,0.4l-0.7,1.9c-2.8,0.1-4.8-0.4-6.1-1.7c-0.8-0.7-1.1-1.5-1.1-2.6
		c0-1.5,0.6-2.8,1.8-3.7l-6.7,1L0,8.6l3.3-0.5C4.1,7.7,5,7,6,6.2s1.8-1.6,2.4-2.3C6.9,4.1,5.3,4.3,3.5,4.4L3.2,2.3
		C5.9,2.2,8,2,9.8,1.7l0.6-0.4L12,2.6z"/>
	<path class="st1" d="M33,3.8C34.4,5,35.1,6.7,35.1,9c0,1.8-0.6,3.4-1.7,4.7c-1.1,1.3-2.7,2.4-4.6,3.2L27,15c3.9-1.4,5.8-3.4,5.8-6
		c0-1.6-0.5-2.8-1.4-3.7c-1-0.9-2.4-1.4-4.4-1.4c0.8,0.2,1.2,0.4,1.2,0.6c0.1,0.3,0,0.4-0.3,0.4C27.7,6,27.4,7.8,26.8,10
		c-0.6,2.1-1.1,3.6-1.8,4.3c-0.7,1.1-1.6,1.5-2.4,1.5c-0.9,0-1.7-0.3-2.4-1c-1.1-1-1.6-2.6-1.6-4.8c0-2.1,0.8-4,2.4-5.6
		S24.7,2,27.1,2S31.5,2.6,33,3.8z M22.5,13.4c0.6,0,1-0.4,1.4-1.1c0.9-2.4,1.6-5.2,1.9-8.2c-1.7,0.2-3,1-3.8,2.3
		c-0.8,1.2-1.1,2.4-1.1,3.7c0,1.4,0.3,2.4,0.8,2.9C22,13.3,22.2,13.4,22.5,13.4z"/>
	<path class="st1" d="M42.9,1.2c0.2,0,0.2,0.1,0.2,0.2S43,1.7,42.7,1.8C42.3,3,42,4.3,41.6,5.7c0.2,0,0.3,0,0.4,0
		c0.1,0.1,0.2,0.2,0.2,0.4c-0.1,0.1-0.2,0.2-0.3,0.3v1L43.7,7V2.8h1.8c0.6,0,0.7,0.2,0.3,0.6v3l1.8-0.6v-5h1.8
		C50,0.9,50.1,1,49.7,1.4v3.8l2.2-0.7l0.5-0.4l1.9,1c0.3,0.2,0.3,0.4,0.1,0.5c-0.1,0-0.1,0-0.2,0L54,11.7c-0.1,0.5-0.2,0.9-0.5,1.2
		s-0.6,0.4-1,0.4h-2.2l-0.3-2h1.5c0.3,0,0.5-0.1,0.5-0.4l0.1-4.3l-2.2,0.7v6.3h-2.1V7.9L46,8.4V15c0,0.1,0,0.3,0.1,0.4
		s0.2,0.1,0.4,0.1h6.2c0.1,0,0.2,0,0.3-0.1c0.2,0,0.3-0.3,0.3-0.7l0.2-1.3l2.3,0.4l-0.5,2c-0.1,0.2-0.1,0.5-0.2,0.7
		c-0.2,0.7-0.8,1.1-1.8,1.1h-8.2c-1-0.1-1.5-0.6-1.5-1.6V9.1l-1.5,0.4l-0.3-1.9v10.2h-2.1V9.3c-0.4,0.6-0.8,1.2-1.3,1.6l-1.6-1.7
		c1-0.8,1.8-2,2.4-3.4c0.8-1.9,1.3-3.7,1.5-5.1l1.8,0.4C42.6,1.1,42.8,1.2,42.9,1.2z"/>
	<path class="st1" d="M59.2,5.5c-0.1,0.1-0.1,0.2-0.2,0.2c0.1,0.9,0,2.1-0.2,3.5c-0.1,0.6-0.2,1.1-0.4,1.5l-1.8-1
		c0.2-0.4,0.4-1.2,0.5-2.2c0.1-1.1,0.1-2,0.1-2.8L58.8,5C59.1,5,59.3,5.2,59.2,5.5z M61.2,1.4v3.4l1.1-1.1L63,5.1
		c0.3-1,0.5-2.4,0.6-4.3h1.2c0.7,0,1,0.2,0.9,0.4c-0.1,0.1-0.2,0.1-0.3,0.1c0,0.4-0.1,0.8-0.1,1.2h2.8c0,0.8,0,1.6-0.1,2.3h1v-4h1.8
		c0.6,0,0.7,0.2,0.3,0.6v1.2l1.2-1c0.7,0.6,1.3,1.3,1.8,1.9l-1.5,1.1c-0.4-0.6-0.9-1.2-1.5-1.8v2h3.4v1.8h-3.4
		c0.1,0.4,0.3,0.8,0.5,1.1c0.8,1.4,1.9,2.7,3.4,3.7l-1.1,1.9c-1.3-0.8-2.5-2.2-3.7-4c-0.3,0.6-0.6,1.3-1.1,2
		c-0.6,0.9-1.3,1.6-2.1,2.2L65.6,12c1.8-1.4,2.9-3.2,3.3-5.5h-1.2c-0.1,0.8-0.4,1.7-0.8,2.6c-0.9,1.6-2.1,3-3.6,4l-1.4-1.5
		c0.5-0.2,0.9-0.5,1.3-0.9c0.7-0.5,1.1-1.1,1.4-1.6c-0.4-0.3-0.7-0.6-1-0.8c-0.3,0.4-0.7,0.9-1.1,1.3l-1.1-1.4
		c0.7-0.6,1.2-1.5,1.5-2.7l-1.7,1.3v5.3l1.7,1.7c0-0.2,0.1-0.4,0.2-0.6l1.8,0.6c-0.1,0.5-0.3,1.1-0.5,1.7c-0.4,1-0.8,1.9-1.3,2.5
		l-1.6-1c0.1-0.1,0.2-0.3,0.4-0.5c0.5-0.7,0.9-1.5,1.1-2.2l-1.2,1.5c-0.3-0.4-0.7-0.9-1.1-1.4c-0.6,1.7-1.4,3-2.4,4l-1.4-1.5
		c0.4-0.4,0.8-1,1.1-1.6c0.7-1.3,1.1-2.6,1.1-4V0.8h1.7C61.5,0.8,61.6,1,61.2,1.4z M65.4,7.8c0.1-0.2,0.2-0.5,0.3-0.7l-1.2-0.7
		l-0.2,0.7C64.7,7.4,65,7.6,65.4,7.8z M65,5c0.4,0.1,0.7,0.3,1.1,0.5c0.1-0.3,0.2-0.7,0.3-1.2h-1.2C65.1,4.5,65,4.8,65,5z
		 M67.7,17.6l-2.3,0.2c0.2-1.3,0.1-2.6-0.2-3.9l2-0.1C67.6,15,67.7,16.3,67.7,17.6z M71.3,17.2L69,17.5c-0.2-1.5-0.5-2.8-0.9-3.9
		l1.8-0.2C70.5,14.6,71,15.9,71.3,17.2z M74.9,16.9l-2.1,0.9c-0.5-1.3-1.2-2.7-2.1-4l1.8-0.8C73.4,14.1,74.2,15.4,74.9,16.9z"/>
	<path class="st1" d="M88.7,1.4c0,0.2-0.1,0.3-0.3,0.4c0,0.9-0.1,1.7-0.1,2.5c2-0.3,3.6,0.1,4.6,1c0.9,0.8,1.3,1.8,1.3,3
		c0,1.4-0.4,2.5-1.1,3.2c-0.8,0.7-1.7,1.1-2.8,1.1c-0.9,0-1.6-0.1-2.1-0.2c-0.9-0.2-1.7-0.6-2.3-1l1-2c0.5,0.3,1.1,0.6,1.7,0.8
		s1.1,0.3,1.5,0.3c1.4,0,2.1-0.6,2.1-1.9c0-0.7-0.2-1.3-0.6-1.7c-0.5-0.5-1.3-0.7-2.3-0.7s-2,0.2-3.1,0.6c-1.3,0.4-2.3,0.8-3,1.2
		c1,3.5,2.1,6.3,3.3,8.6l-2.1,1.1C83.1,15,82,12,81.2,8.8c-1.1,0.5-2.3,1.1-3.4,1.6l-1.1-2.2c1.4-0.4,2.8-1,4.1-1.6
		c-0.3-1.5-0.5-3.1-0.6-4.7h2c0.4,0,0.7,0.1,0.8,0.2c0.1,0.2-0.1,0.3-0.4,0.4c0.1,1.3,0.2,2.4,0.4,3.3c1.2-0.4,2.3-0.8,3.3-1.1
		c0-1.2,0.1-2.4,0.1-3.6h2C88.5,1.2,88.7,1.3,88.7,1.4z"/>
	<path class="st1" d="M103.8,1c0.1,0.2,0,0.3-0.4,0.4c0.3,1.2,0.6,2.2,0.9,3c1.7-0.1,3.3-0.3,4.7-0.7l0.4,2.1
		c-1,0.1-2.4,0.3-4.2,0.5c0.6,1.6,2.1,3.1,4.6,4.6l-1.5,1.7c-1.1-0.7-2.1-1.1-3.2-1.2c-1.1-0.1-1.9-0.1-2.5-0.1
		c-0.9,0-1.7,0.1-2.2,0.3c-0.9,0.3-1.3,0.8-1.3,1.6c0,0.6,0.2,1,0.5,1.3c0.7,0.6,2.2,1,4.7,1h3.3l-0.5,2.2H105c-0.4,0-1.2,0-2.3-0.1
		c-2.4-0.2-4.1-0.7-4.8-1.4c-0.8-0.7-1.1-1.7-1.1-2.8c0-1,0.4-1.9,1.1-2.7c0.9-0.8,2.1-1.3,3.8-1.3c0.9,0,2,0.1,3.3,0.2
		c-0.9-1-1.5-2-2-3.1c-2.2,0.2-4.3,0.3-6.4,0.2l-0.5-2.2c2.2,0.1,4.2,0.1,6-0.1c-0.4-1.2-0.8-2.5-1.1-3.9h2.1
		C103.4,0.7,103.7,0.8,103.8,1z"/>
	<path class="st1" d="M118.9,1.6c0,0.1-0.1,0.2-0.4,0.3c-0.2,0.7-0.4,1.4-0.6,2.1c0.8-0.1,1.7-0.3,2.5-0.5l0.4,2.2
		c-1.2,0.2-2.4,0.4-3.6,0.5c-0.3,0.8-0.9,2.2-1.7,4.1c-0.8,1.7-1.5,3.1-2.1,4.2l-2-1.2c0.6-0.9,1.3-2.1,2.1-3.7
		c0.6-1.1,1-2.1,1.3-3.1c-1.2,0.1-2.2,0.1-3,0.1l-0.2-2.2c1.3,0,2.6,0,3.9-0.1c0.4-1.1,0.7-2.4,1-3.7l1.8,0.6
		C118.8,1.2,118.9,1.4,118.9,1.6z M124.2,7.7c0,0.1-0.1,0.2-0.2,0.4v4.3c1.5,0.5,2.9,1.2,4.1,2l-1.1,1.8c-1.1-0.7-2.1-1.2-3.1-1.6
		c-0.1,0.9-0.4,1.6-1,2.2c-0.7,0.6-1.7,1-3.1,1c-1,0-1.8-0.3-2.6-0.7c-0.8-0.6-1.2-1.4-1.1-2.3c0-1,0.5-1.8,1.5-2.4
		c1.2-0.6,2.6-0.8,4.2-0.4V7.5h1.8C124,7.5,124.2,7.5,124.2,7.7z M118.6,14.1c-0.3,0.2-0.4,0.4-0.4,0.7s0.2,0.5,0.5,0.7
		c0.3,0.1,0.7,0.2,1.3,0.2c0.5,0,0.9-0.1,1.3-0.4c0.3-0.3,0.5-0.8,0.5-1.4c-0.4-0.1-0.6-0.1-0.8-0.1c-0.4,0-0.8-0.1-1.1-0.1
		C119.3,13.7,118.8,13.9,118.6,14.1z M127.2,7.5c-1.1-0.7-3-1.5-5.5-2.5l0.9-1.6c2,0.6,3.8,1.4,5.5,2.4L127.2,7.5z"/>
	<path class="st1" d="M133.2,3.4c0,0.1-0.1,0.3-0.4,0.4c-0.2,1.4-0.3,3-0.4,4.8c-0.1,1.7,0.1,3.2,0.4,4.4c0.2,0.7,0.4,1.1,0.8,1.1
		c0.4,0,0.8-0.4,1.3-1.3l0.9-1.9l1.9,1.4c-0.4,0.9-0.7,1.7-1.1,2.5c-0.8,1.2-1.7,1.8-2.8,1.8c-2.4-0.3-3.6-2.7-3.6-7.4
		c0-2.5,0.1-4.8,0.3-6.9l2.1,0.5C132.9,3,133.1,3.1,133.2,3.4z M143.9,13c-0.2-1.3-0.5-2.7-1-4c-0.6-1.4-1.5-2.8-2.7-4.3l1.7-1.2
		c1.3,1.3,2.4,2.7,3.1,4.3c0.8,1.6,1.2,3.2,1.4,4.5L143.9,13z"/>
	<path class="st1" d="M161.8,13.8V16h-9.3c-2.9,0-4.2-1.4-3.9-4.1c0.1-0.5,0.3-1.1,0.5-1.7l2.2,0.6c-0.4,0.6-0.5,1.2-0.5,1.8
		c0,0.8,0.7,1.3,2,1.3h9V13.8z M159.7,2.9c-0.2-0.1-0.3-0.1-0.3-0.1l0.9-1.1c1.4,0.8,2.5,1.5,3.3,2.2l-1,1.2
		c-0.8-0.7-1.6-1.3-2.3-1.7v1.9h-10.6V2.9H159.7C159.8,2.9,159.7,2.9,159.7,2.9z M164.6,2l-1,1.3c-0.6-0.6-1.2-1-1.7-1.3
		c-0.6-0.3-1.1-0.6-1.7-0.9l1-1.1C162.5,0.5,163.6,1.2,164.6,2z"/>
	<path class="st1" d="M174.2,1.9l1.5,1.3c0.4,0.3,0.3,0.6-0.3,0.9c-0.6,1.3-1.1,2.7-1.7,4c1.5,0.2,3.1,0.5,4.6,1
		c0.1-1.5,0.1-3,0-4.3l2,0.4c0.4,0.1,0.6,0.2,0.6,0.4c0,0.1-0.1,0.2-0.4,0.3c0.1,0.9,0,2.3-0.2,4c1.1,0.4,2.2,0.9,3.4,1.6l-1.1,1.9
		c-0.9-0.5-1.8-1-2.8-1.4c-0.6,2.1-1.7,4-3.2,5.4l-1.8-1.4c1.4-1.2,2.4-2.8,3.1-4.8c-1.8-0.6-3.5-1-5.1-1.2
		c-0.3,0.7-0.7,1.7-1.4,2.9c-0.4,0.7-0.9,1.4-1.6,2.1c-0.5,0.5-1.1,0.7-1.9,0.7c-0.6,0-1.2-0.2-1.7-0.7c-0.6-0.5-0.8-1.3-0.8-2.2
		c0-1.2,0.5-2.3,1.5-3.2c1.2-1.1,2.7-1.7,4.7-1.7c0.4-0.7,0.8-1.9,1.4-3.6c-1.2,0.2-2.5,0.5-4.1,0.9l-0.6-2.1c0.8,0,1.8-0.1,3-0.3
		c0.8-0.1,1.5-0.3,2-0.4C173.6,2.2,173.9,2.1,174.2,1.9z M168.1,13.7c0.3,0.1,0.7-0.2,1.1-0.8c0.6-0.9,1.1-1.8,1.6-2.8
		c-2,0.2-3.1,1.1-3.3,2.8C167.5,13.3,167.7,13.6,168.1,13.7z"/>
</g>
<path class="st1" d="M192.2,1.4c-2.4,2.3-3.6,5-3.6,8.1c0,3,1.2,5.7,3.6,8.1l-1.4,1.2c-2.7-2.6-4-5.7-4-9.2c0-3.6,1.3-6.7,4-9.2
	L192.2,1.4z"/>
<path class="st1" d="M199.3,1.4v15.2h-2V5h-2.5V3.3c1.8-0.1,2.9-0.7,3.1-1.9H199.3z"/>
<path class="st1" d="M211.4,2.3c0.8,0.8,1.2,1.8,1.2,3c0,2-0.9,3.9-2.8,5.7c-1.3,1.3-2.3,2.6-3,4h5.6v1.8h-8v-1.6
	c0.9-1.9,2.1-3.6,3.8-5.2c1.6-1.6,2.4-3.1,2.4-4.5c0-0.8-0.2-1.4-0.6-1.8c-0.4-0.3-0.8-0.5-1.4-0.5c-1.3,0-2,1.2-2.1,3.7h-2
	c0-1.9,0.5-3.4,1.6-4.5c0.7-0.6,1.5-1,2.5-1C209.8,1.2,210.7,1.6,211.4,2.3z"/>
<path class="st1" d="M217.1,6.6h-2.4V4.2h2.4V6.6z M217.1,14.7h-2.4v-2.4h2.4V14.7z"/>
<path class="st1" d="M225.5,8.5c1.3,1.1,1.9,2.4,1.9,3.9c0,1.3-0.4,2.4-1.3,3.2c-0.8,0.7-1.8,1.1-3,1.1c-1.1,0-2.1-0.4-2.8-1.1
	c-0.8-0.7-1.2-2.1-1.4-4.1h2c0,1.3,0.3,2.3,0.9,2.9c0.4,0.3,0.8,0.5,1.4,0.5c0.6,0,1.1-0.2,1.5-0.6c0.5-0.4,0.7-1.1,0.7-1.9
	c0-0.8-0.3-1.5-0.8-2c-0.6-0.5-1.4-0.8-2.4-0.7V7.5c1.9,0.2,2.8-0.6,2.8-2.4c0-0.7-0.2-1.2-0.6-1.6c-0.3-0.3-0.7-0.4-1.2-0.4
	s-0.9,0.1-1.2,0.4c-0.6,0.5-0.8,1.4-0.8,2.5h-2c0.1-1.6,0.6-2.9,1.4-3.7c0.7-0.7,1.6-1,2.6-1c1.1,0,2,0.3,2.8,1
	c0.7,0.7,1.1,1.6,1.1,2.8C227,6.5,226.5,7.6,225.5,8.5z"/>
<path class="st1" d="M236.4,2.2c1.3,1.2,1.9,3.5,1.9,6.8s-0.6,5.5-1.9,6.8c-0.7,0.6-1.5,1-2.6,1s-1.9-0.3-2.6-1
	c-1.3-1.2-1.9-3.5-1.9-6.8s0.6-5.5,1.9-6.8c0.7-0.6,1.5-1,2.6-1S235.8,1.6,236.4,2.2z M232.5,3.6c-0.8,0.8-1.2,2.6-1.2,5.4
	s0.4,4.6,1.2,5.4c0.4,0.4,0.8,0.6,1.3,0.6s0.9-0.2,1.3-0.6c0.8-0.8,1.2-2.6,1.2-5.4s-0.4-4.6-1.2-5.4c-0.4-0.4-0.8-0.6-1.3-0.6
	S232.9,3.2,232.5,3.6z"/>
<path class="st1" d="M250,1.1c0,0.1-0.1,0.3-0.3,0.4v2.1l6.2-0.2v2.1l-6.2,0.2v2.1l4.9-0.1v2.1l-4.9,0.1V12c2.2,0.5,4.2,1.3,6,2.3
	l-1,2c-1.7-0.9-3.4-1.7-5.1-2.2c-0.3,2.4-1.7,3.7-4.2,3.7c-1.2,0-2.2-0.3-2.8-1c-0.6-0.5-0.8-1.2-0.8-2s0.3-1.6,0.9-2.2
	c0.8-0.7,1.8-1.1,3.2-1.1c0.4,0,0.9,0,1.5,0.1V10l-5.7,0.1L241.5,8l5.9-0.1v-2l-7.1,0.2L240.1,4l7.3-0.2V0.9h2
	C249.8,0.9,250,0.9,250,1.1z M244.4,13.8c-0.4,0.2-0.6,0.6-0.6,1c0,0.8,0.7,1.1,1.9,1c0.5,0,0.9-0.2,1.2-0.4
	c0.4-0.2,0.5-0.8,0.5-1.7c-0.7-0.1-1.3-0.2-1.8-0.2C245.1,13.5,244.7,13.6,244.4,13.8z"/>
<path class="st1" d="M274.2,4.9c-1.5-0.1-2.8-0.1-3.8,0.2c-1.6,0.4-2.8,1-3.6,1.8c-1,1-1.5,2.2-1.5,3.6c0,1.2,0.4,2.2,1.1,2.9
	c1,1,3,1.5,6,1.6l-0.6,2.2c-0.8,0-1.6-0.1-2.4-0.3c-0.8-0.1-1.7-0.4-2.5-0.7c-1.4-0.5-2.3-1.3-2.9-2.2c-0.6-1-0.9-2-0.9-3
	c-0.1-1,0.1-2,0.4-2.8s0.9-1.7,1.8-2.5c-1.9,0.2-4.1,0.6-6.7,1l-0.5-2.4c5.4-0.3,10.6-0.9,15.7-1.8L274.2,4.9z M273.2,9.5l-1.1,1.2
	c-1-0.8-2-1.5-3.2-2.2l1.1-1.1C271.5,8.3,272.6,9,273.2,9.5z M274.8,7.7l-1.1,1.2c-1.1-0.7-2.1-1.5-3.2-2.2l1-1.1
	C272.7,6.3,273.8,7,274.8,7.7z"/>
<path class="st1" d="M277,18.7l-1.4-1.2c2.4-2.3,3.6-5,3.6-8.1c0-3-1.2-5.7-3.6-8.1l1.4-1.2c2.7,2.6,4,5.7,4,9.2
	C281,13,279.6,16.1,277,18.7z"/>
</svg>
