<?xml version="1.0" encoding="utf-8"?>
<!-- Generator: Adobe Illustrator 19.2.0, SVG Export Plug-In . SVG Version: 6.00 Build 0)  -->
<svg version="1.1" id="レイヤー_1" xmlns="http://www.w3.org/2000/svg" xmlns:xlink="http://www.w3.org/1999/xlink" x="0px"
	 y="0px" viewBox="0 0 237.2 18.7" style="enable-background:new 0 0 237.2 18.7;" xml:space="preserve" height="40">
<style type="text/css">
	.st0{enable-background:new    ;}
	.st1{fill:#FCFAFA;}
</style>
<g class="st0">
	<path class="st1" d="M59.6,5.5c-0.1,0.1-0.1,0.2-0.2,0.2c0.1,0.9,0,2.1-0.2,3.5c-0.1,0.6-0.2,1.1-0.4,1.5l-1.8-1
		c0.2-0.4,0.4-1.2,0.5-2.2c0.1-1.1,0.1-2,0.1-2.8L59.2,5C59.6,5,59.7,5.2,59.6,5.5z M61.7,1.4v3.4l1.1-1.1l0.7,1.4
		c0.2-0.9,0.4-2.4,0.5-4.3h1.2c0.7,0,1,0.2,0.9,0.4c-0.1,0.1-0.2,0.1-0.3,0.1c-0.1,0.4-0.1,0.8-0.2,1.2h2.8c0,0.8,0,1.6-0.1,2.3h1
		v-4h1.8c0.6,0,0.7,0.2,0.3,0.6v1.2l1.2-1c0.7,0.6,1.3,1.3,1.8,1.9l-1.5,1.1C72.5,4,72,3.4,71.4,2.8v2h3.4v1.8h-3.4
		c0.1,0.4,0.3,0.8,0.5,1.1c0.8,1.4,1.9,2.7,3.4,3.7l-0.8,1.9c-1.3-0.8-2.5-2.2-3.7-4c-0.3,0.6-0.6,1.3-1.1,2
		c-0.6,0.9-1.3,1.6-2.1,2.2L66.2,12c1.8-1.4,2.9-3.2,3.3-5.5h-1.2c-0.1,0.8-0.4,1.7-0.8,2.6c-0.9,1.6-2.1,3-3.6,4l-1.4-1.4
		c0.5-0.2,0.9-0.5,1.3-0.9c0.7-0.5,1.1-1.1,1.4-1.6c-0.4-0.3-0.7-0.6-1-0.8c-0.3,0.4-0.7,0.9-1.1,1.3L62,8.3
		c0.7-0.6,1.2-1.5,1.5-2.7l-1.7,1.3v5.3l1.7,1.7c0-0.2,0.1-0.4,0.2-0.6l1.8,0.6c-0.1,0.5-0.3,1.1-0.5,1.7c-0.4,1-0.8,1.9-1.3,2.5
		l-1.6-1c0.1-0.1,0.2-0.3,0.4-0.5c0.5-0.7,0.9-1.5,1.1-2.2l-1.3,1.4c-0.3-0.4-0.7-0.9-1.1-1.4c-0.6,1.7-1.4,3-2.4,4l-1.4-1.5
		c0.4-0.4,0.8-1,1.1-1.6c0.7-1.3,1.1-2.6,1.1-4V0.8h1.7C62,0.8,62.1,1,61.7,1.4z M65.9,7.8c0.1-0.2,0.2-0.5,0.3-0.7L65,6.4l-0.2,0.7
		C65.1,7.4,65.5,7.6,65.9,7.8z M65.5,5c0.4,0.1,0.7,0.3,1.1,0.5c0.1-0.3,0.2-0.8,0.2-1.3h-1.2C65.6,4.5,65.5,4.8,65.5,5z M68.2,17.6
		l-2.3,0.2c0.2-1.3,0.1-2.6-0.2-3.9l2-0.1C68.1,15,68.2,16.3,68.2,17.6z M71.7,17.2l-2.3,0.3c-0.2-1.5-0.5-2.8-0.9-3.9l1.8-0.2
		C71,14.6,71.4,15.9,71.7,17.2z M75.3,16.9l-2,0.9c-0.5-1.3-1.2-2.7-2.1-4L73,13C73.9,14.1,74.7,15.4,75.3,16.9z"/>
	<path class="st1" d="M89.2,1.4c0.1,0.2-0.1,0.3-0.3,0.4c-0.1,0.8-0.1,1.7-0.2,2.5c2-0.3,3.6,0.1,4.6,1c0.9,0.8,1.3,1.8,1.3,3
		c0,1.4-0.4,2.5-1.1,3.2c-0.8,0.7-1.7,1.1-2.8,1.1c-0.9,0-1.6-0.1-2.1-0.2c-0.9-0.2-1.7-0.6-2.3-1l1-2c0.5,0.3,1.1,0.6,1.7,0.8
		s1.1,0.3,1.5,0.3c1.4,0,2.1-0.6,2.1-1.9c0-0.7-0.2-1.3-0.6-1.7c-0.5-0.5-1.3-0.7-2.3-0.7c-0.8,0-1.8,0.2-2.9,0.6
		c-1.3,0.4-2.3,0.8-3,1.2c1,3.5,2.1,6.3,3.3,8.6L85,17.7c-1.3-2.7-2.4-5.7-3.2-8.9c-1.1,0.5-2.3,1.1-3.4,1.6l-1.1-2.2
		c1.4-0.4,2.8-1,4.1-1.6c-0.3-1.5-0.5-3.1-0.6-4.7h2c0.4,0,0.7,0.1,0.8,0.2c0.1,0.2-0.1,0.3-0.4,0.4c0.1,1.3,0.2,2.4,0.4,3.3
		c0.8-0.3,1.9-0.7,2.9-1c0.1-1.2,0.1-2.4,0.1-3.6h2C88.9,1.2,89.1,1.3,89.2,1.4z"/>
	<path class="st1" d="M107.3,0.8c0.1,0.1-0.1,0.3-0.3,0.4v2.7l6.7-0.4v2.2L107,5.9v2.3c0.3,0.8,0.5,1.9,0.5,3.2c0,2-0.7,3.6-2,4.9
		c-0.7,0.7-1.5,1.3-2.3,1.8l-2-1.3c1.1-0.7,2-1.4,2.8-2.1c0.7-0.7,1.1-1.4,1.1-1.9c-0.5,0.2-1.1,0.4-2,0.4c-0.8,0-1.4-0.3-2-0.8
		c-0.6-0.6-0.9-1.2-0.9-1.9c0-1,0.3-1.8,0.8-2.4c0.5-0.4,1-0.8,1.7-1c0.5-0.1,1.2-0.2,2.1-0.1V6.1l-8.1,0.5l-0.3-2.2l8.3-0.4V0.5h2
		C107,0.5,107.2,0.6,107.3,0.8z M102.6,9c-0.3,0.2-0.5,0.6-0.5,1c0,0.3,0.1,0.7,0.4,1c0.2,0.2,0.6,0.4,1.1,0.4s0.8-0.1,1.1-0.4
		c0.3-0.3,0.5-0.6,0.5-1c0-0.3-0.2-0.7-0.5-1c-0.3-0.2-0.6-0.4-1.1-0.4C103.2,8.7,102.8,8.8,102.6,9z"/>
	<path class="st1" d="M129,13.8V16h-9.3c-2.9,0-4.2-1.4-3.9-4.1c0.1-0.5,0.3-1.1,0.5-1.7l2.2,0.6c-0.4,0.6-0.5,1.2-0.5,1.8
		c0,0.8,0.7,1.3,2,1.3h9V13.8z M126.9,2.9c-0.2-0.1-0.3-0.2-0.4-0.2l1-1.1c1.4,0.8,2.5,1.5,3.3,2.2l-1,1.2c-0.8-0.7-1.6-1.3-2.3-1.7
		v1.9h-10.6V2.9H126.9L126.9,2.9z M131.8,2l-1,1.3c-0.6-0.6-1.2-1-1.7-1.3c-0.6-0.3-1.1-0.6-1.7-0.9l1-1.1
		C129.7,0.5,130.8,1.2,131.8,2z"/>
	<path class="st1" d="M141.4,1.9l1.5,1.3c0.4,0.3,0.3,0.6-0.3,0.9c-0.6,1.3-1.1,2.7-1.7,4c1.5,0.2,3.1,0.5,4.6,1c0-1.5,0-3,0-4.3
		l2,0.4c0.4,0.1,0.6,0.2,0.6,0.4c0,0.1-0.1,0.2-0.4,0.3c0,0.9,0,2.3-0.2,4c1.1,0.4,2.2,0.9,3.4,1.6l-1.1,1.9c-0.9-0.5-1.8-1-2.8-1.4
		c-0.6,2.1-1.7,4-3.2,5.4L142,16c1.4-1.2,2.4-2.8,3.1-4.8c-1.8-0.6-3.5-1-5.1-1.2c-0.3,0.7-0.7,1.7-1.4,2.9
		c-0.4,0.7-0.9,1.4-1.6,2.1c-0.5,0.5-1.1,0.7-1.9,0.7c-0.6,0-1.2-0.2-1.7-0.7c-0.6-0.5-0.8-1.3-0.8-2.2c0-1.2,0.5-2.3,1.5-3.2
		c1.2-1.1,2.7-1.7,4.7-1.7c0.4-0.7,0.8-1.9,1.4-3.6c-1.2,0.2-2.5,0.5-4.1,0.9l-0.6-2.1c0.8,0,1.8-0.1,3-0.3c0.8-0.1,1.5-0.3,2-0.4
		C140.8,2.2,141.1,2.1,141.4,1.9z M135.3,13.7c0.3,0.1,0.7-0.2,1.1-0.8c0.6-0.9,1.1-1.8,1.6-2.8c-2,0.2-3.1,1.1-3.3,2.8
		C134.7,13.3,134.9,13.6,135.3,13.7z"/>
</g>
<path class="st1" d="M159,1.3c-2.4,2.3-3.6,5-3.6,8.1c0,3,1.2,5.7,3.6,8.1l-1.4,1.2c-2.7-2.6-4-5.7-4-9.2c0-3.6,1.3-6.7,4-9.2
	L159,1.3z"/>
<path class="st1" d="M167.5,2.1c0.8,0.7,1.1,1.7,1.1,3c0,1.4-0.6,2.5-1.7,3.4c1.3,0.9,2,2.2,2,3.7c0,1.4-0.4,2.6-1.2,3.4
	c-0.8,0.8-1.8,1.2-3,1.2s-2.2-0.4-3-1.2c-0.8-0.8-1.2-1.9-1.2-3.4c0-1.3,0.6-2.5,1.8-3.7c-1-0.8-1.5-2-1.5-3.4c0-1.2,0.4-2.2,1.1-3
	c0.7-0.6,1.6-1,2.8-1C165.9,1.1,166.8,1.5,167.5,2.1z M163.3,14.1c0.4,0.4,0.9,0.6,1.5,0.6c0.6,0,1-0.2,1.5-0.6
	c0.5-0.5,0.8-1.2,0.8-2s-0.3-1.5-0.8-2c-0.4-0.4-0.9-0.6-1.5-0.6c-0.6,0-1,0.2-1.5,0.6c-0.5,0.5-0.8,1.2-0.8,2
	C162.5,12.9,162.8,13.6,163.3,14.1z M166,3.6c-0.4-0.3-0.8-0.5-1.3-0.5s-0.9,0.2-1.3,0.5c-0.4,0.4-0.6,0.9-0.6,1.6
	c0,0.6,0.2,1.2,0.6,1.6c0.4,0.3,0.8,0.5,1.3,0.5s0.9-0.2,1.3-0.5c0.4-0.4,0.6-0.9,0.6-1.6S166.4,4,166,3.6z"/>
<path class="st1" d="M173.2,6.5h-2.4V4.1h2.4V6.5z M173.2,14.6h-2.4v-2.4h2.4V14.6z"/>
<path class="st1" d="M181.6,8.4c1.3,1.1,1.9,2.4,1.9,3.9c0,1.3-0.4,2.4-1.3,3.2c-0.8,0.7-1.8,1.1-3,1.1c-1.1,0-2.1-0.4-2.8-1.1
	c-0.8-0.7-1.2-2.1-1.4-4.1h2c0,1.3,0.3,2.3,0.9,2.9c0.4,0.3,0.8,0.5,1.4,0.5c0.6,0,1.1-0.2,1.5-0.6c0.5-0.4,0.7-1.1,0.7-1.9
	c0-0.8-0.3-1.5-0.8-2s-1.4-0.8-2.4-0.7V7.4c1.9,0.2,2.8-0.6,2.8-2.4c0-0.7-0.2-1.2-0.6-1.6c-0.3-0.3-0.7-0.4-1.2-0.4
	s-0.9,0.1-1.2,0.4c-0.6,0.5-0.8,1.4-0.8,2.5h-2c0.1-1.6,0.6-2.9,1.4-3.7c0.7-0.7,1.6-1,2.6-1c1.1,0,2,0.3,2.8,1
	c0.7,0.7,1.1,1.6,1.1,2.8C183.2,6.4,182.7,7.5,181.6,8.4z"/>
<path class="st1" d="M192.6,2.1c1.3,1.2,1.9,3.5,1.9,6.8s-0.6,5.5-1.9,6.8c-0.7,0.6-1.5,1-2.6,1s-1.9-0.3-2.6-1
	c-1.3-1.2-1.9-3.5-1.9-6.8s0.6-5.5,1.9-6.8c0.7-0.6,1.5-1,2.6-1S191.9,1.5,192.6,2.1z M188.7,3.5c-0.8,0.8-1.2,2.6-1.2,5.4
	s0.4,4.6,1.2,5.4c0.4,0.4,0.8,0.6,1.3,0.6s0.9-0.2,1.3-0.6c0.8-0.8,1.2-2.6,1.2-5.4s-0.4-4.6-1.2-5.4c-0.4-0.4-0.8-0.6-1.3-0.6
	S189.1,3.1,188.7,3.5z"/>
<path class="st1" d="M206.2,1c0,0.1-0.1,0.3-0.3,0.4v2.1l6.2-0.2v2.1l-6.2,0.2v2.1l4.9-0.1v2.1l-4.9,0.1v2.1c2.2,0.5,4.2,1.3,6,2.3
	l-1,2c-1.7-0.9-3.4-1.7-5.1-2.2c-0.3,2.4-1.7,3.7-4.2,3.7c-1.2,0-2.2-0.3-2.8-1c-0.6-0.5-0.8-1.2-0.8-2s0.3-1.6,0.9-2.2
	c0.8-0.7,1.8-1.1,3.2-1.1c0.4,0,0.9,0,1.5,0.1V9.9l-5.7,0.1l-0.2-2.1l5.9-0.1v-2L196.5,6l-0.2-2.1l7.3-0.2V0.8h2
	C206,0.8,206.2,0.8,206.2,1z M200.5,13.7c-0.4,0.2-0.6,0.6-0.6,1c0,0.8,0.7,1.1,1.9,1c0.5,0,0.9-0.2,1.2-0.4
	c0.4-0.2,0.5-0.8,0.5-1.7c-0.7-0.1-1.3-0.2-1.8-0.2C201.3,13.4,200.9,13.5,200.5,13.7z"/>
<path class="st1" d="M230.3,4.8c-1.5-0.1-2.8-0.1-3.8,0.2c-1.6,0.4-2.8,1-3.6,1.8c-1,1-1.5,2.2-1.5,3.6c0,1.2,0.4,2.2,1.1,2.9
	c1,1,3,1.5,6,1.6l-0.6,2.2c-0.8,0-1.6-0.1-2.4-0.3c-0.8-0.1-1.7-0.4-2.5-0.7c-1.4-0.5-2.3-1.3-2.9-2.2c-0.6-1-0.9-2-0.9-3
	c-0.1-1,0.1-2,0.4-2.8c0.3-0.8,0.9-1.7,1.8-2.5c-1.9,0.2-4.1,0.6-6.7,1l-0.5-2.4c5.4-0.3,10.6-0.9,15.7-1.8L230.3,4.8z M229.4,9.4
	l-1.1,1.2c-1-0.8-2-1.5-3.2-2.2l1.1-1.1C227.7,8.2,228.7,8.9,229.4,9.4z M230.9,7.6l-1.1,1.2c-1.1-0.7-2.1-1.5-3.2-2.2l1-1.1
	C228.9,6.2,230,6.9,230.9,7.6z"/>
<path class="st1" d="M233.2,18.6l-1.4-1.2c2.4-2.3,3.6-5,3.6-8.1c0-3-1.2-5.7-3.6-8.1l1.4-1.2c2.7,2.6,4,5.7,4,9.2
	C237.1,12.9,235.8,16,233.2,18.6z"/>
<path class="st1" d="M12,3.2c0.6,0.4,0.6,0.6,0,0.7c-1.7,1.5-3.5,3-5.2,4.5l9.4-1v2.2L11.1,10c-1.2,0.2-2.1,0.7-2.8,1.3
	c-0.7,0.6-1,1.4-1,2.4c0,1.2,0.6,2,1.8,2.4c1.3,0.4,2.6,0.5,4.1,0.4l-0.7,1.9c-2.8,0.1-4.8-0.4-6.1-1.7c-0.8-0.7-1.1-1.5-1.1-2.6
	c0-1.5,0.6-2.8,1.8-3.7l-6.7,1L0,9.2l3.3-0.5C4.1,8.3,5,7.6,6,6.8s1.8-1.6,2.4-2.3C6.9,4.7,5.3,4.9,3.5,5L3.2,2.9
	C5.9,2.8,8,2.6,9.8,2.3l0.6-0.4L12,3.2z"/>
<path class="st1" d="M33,4.4c1.4,1.2,2.1,2.9,2.1,5.2c0,1.8-0.6,3.4-1.7,4.7c-1.1,1.3-2.7,2.4-4.6,3.2L27,15.6
	c3.9-1.4,5.8-3.4,5.8-6c0-1.6-0.5-2.8-1.4-3.7C30.4,5,29,4.5,27,4.5c0.8,0.2,1.2,0.4,1.2,0.6c0.1,0.3,0,0.4-0.3,0.4
	c-0.2,1.1-0.5,2.9-1.1,5.1c-0.6,2.1-1.1,3.6-1.8,4.3c-0.7,1.1-1.6,1.5-2.4,1.5c-0.9,0-1.7-0.3-2.4-1c-1.1-1-1.6-2.6-1.6-4.8
	c0-2.1,0.8-4,2.4-5.6s3.7-2.4,6.1-2.4S31.5,3.2,33,4.4z M22.5,14c0.6,0,1-0.4,1.4-1.1c0.9-2.4,1.6-5.2,1.9-8.2c-1.7,0.2-3,1-3.8,2.3
	c-0.8,1.2-1.1,2.4-1.1,3.7c0,1.4,0.3,2.4,0.8,2.9C22,13.9,22.2,14,22.5,14z"/>
<path class="st1" d="M42.9,1.8c0.2,0,0.2,0.1,0.2,0.2S43,2.3,42.7,2.4c-0.4,1.2-0.7,2.5-1.1,3.9c0.2,0,0.3,0,0.4,0
	c0.1,0.1,0.2,0.2,0.2,0.4C42.1,6.8,42,6.9,41.9,7v1l1.8-0.4V3.4h1.8c0.6,0,0.7,0.2,0.3,0.6v3l1.8-0.6v-5h1.8C50,1.5,50.1,1.6,49.7,2
	v3.8l2.2-0.7l0.5-0.4l1.9,1c0.3,0.2,0.3,0.4,0.1,0.5c-0.1,0-0.1,0-0.2,0L54,12.3c-0.1,0.5-0.2,0.9-0.5,1.2s-0.6,0.4-1,0.4h-2.2
	l-0.3-2h1.5c0.3,0,0.5-0.1,0.5-0.4l0.1-4.3l-2.2,0.7v6.3h-2.1V8.5L46,9v6.6c0,0.1,0,0.3,0.1,0.4s0.2,0.1,0.4,0.1h6.2
	c0.1,0,0.2,0,0.3-0.1c0.2,0,0.3-0.3,0.3-0.7l0.2-1.3l2.3,0.4l-0.5,2c-0.1,0.2-0.1,0.5-0.2,0.7c-0.2,0.7-0.8,1.1-1.8,1.1h-8.2
	c-1-0.1-1.5-0.6-1.5-1.6V9.7l-1.5,0.4l-0.3-1.9v10.2h-2.1V9.9c-0.4,0.6-0.8,1.2-1.3,1.6l-1.6-1.7c1-0.8,1.8-2,2.4-3.4
	c0.8-1.9,1.3-3.7,1.5-5.1l1.8,0.4C42.6,1.7,42.8,1.8,42.9,1.8z"/>
</svg>
