<?xml version="1.0" encoding="utf-8"?>
<!-- Generator: Adobe Illustrator 19.2.0, SVG Export Plug-In . SVG Version: 6.00 Build 0)  -->
<svg version="1.1" id="レイヤー_1" xmlns="http://www.w3.org/2000/svg" xmlns:xlink="http://www.w3.org/1999/xlink" x="0px"
	 y="0px" viewBox="0 0 71 22" style="enable-background:new 0 0 71 22;" xml:space="preserve">
<style type="text/css">
	.st0{enable-background:new    ;}
	.st1{fill:#FCFAFA;}
</style>
<g class="st0">
	<path class="st1" d="M16.5,11.2c-0.6,0.1-1.4,0.1-2.2,0.1c0,0.3-0.1,0.7-0.1,0.8c0,1.4,1,1.6,1.8,1.6c1.5,0,2.2-0.4,2.2-1.2
		c0-0.5-0.3-1.1-0.8-1.7c0.2-0.1,0.4-0.2,0.6-0.2c0.6,0.7,0.9,1.4,0.9,2c0,1.5-1.7,1.7-2.9,1.7c-0.9,0-2.5-0.1-2.5-2.2
		c0-0.4,0-0.7,0.1-0.9c-0.8,0-2-0.1-2-1c0-0.4,0.2-0.8,0.8-1.2l0.5,0.3c-0.4,0.2-0.6,0.5-0.6,0.8c0,0.5,0.7,0.5,1.4,0.5
		c0.1-0.6,0.1-1.3,0.2-2c-0.7-0.1-1.4-0.3-1.9-0.5l0.2-0.6C12.6,7.8,13.3,8,14,8.1c0.1-0.6,0.1-1.1,0.2-1.6l1,0.1
		c0,0.1-0.1,0.2-0.3,0.2c-0.1,0.4-0.1,0.9-0.2,1.4c0.3,0,0.6,0,0.9,0c0.4,0,0.7,0,1,0l0,0.6c-0.3,0-0.6,0-0.9,0c-0.4,0-0.7,0-1,0
		c-0.1,0.7-0.2,1.4-0.2,2c0.7,0,1.5,0,2.2-0.1L16.5,11.2z"/>
	<path class="st1" d="M25.9,8.1c0.1,0,0.2,0,0.3,0c1,0,2,0.6,2,1.8c0,1.2-0.8,1.9-2.1,1.9c-0.5,0-1.3-0.2-1.8-0.6
		c0.1-0.1,0.1-0.4,0.2-0.5c0.5,0.4,1.2,0.6,1.7,0.6c0.9,0,1.4-0.5,1.4-1.3c0-0.7-0.5-1.2-1.5-1.2c-0.8,0-2,0.4-3,0.7
		c0.4,1.4,1,3.5,1.4,4.8l-0.7,0.2c-0.3-1.3-0.9-3.4-1.3-4.8c-0.6,0.2-1.4,0.5-1.9,0.7c0,0.1-0.1,0.2-0.2,0.2L20,9.8
		c0.6-0.2,1.5-0.5,2.2-0.7c-0.3-0.9-0.5-1.7-0.7-2.3l1-0.2c0,0.1,0,0.2-0.2,0.2c0.2,0.7,0.4,1.3,0.6,2c1-0.3,1.9-0.6,2.7-0.7
		c-0.4-0.5-1.1-1.1-1.7-1.4l0.4-0.4c0.6,0.3,1.4,1,1.9,1.5L25.9,8.1z"/>
	<path class="st1" d="M33.6,7.7c0-0.2,0-1.2-0.1-1.4l1,0c0,0.1-0.1,0.2-0.2,0.2c0,0.1,0,0.2,0,1.2c1.1,0,2.3-0.1,3-0.1v0.6
		c-0.8,0-1.9,0-3,0c0,0.7,0,1.4,0.1,1.8c0.1,0.3,0.1,0.6,0.1,0.9c0,0.3,0,0.6-0.1,0.9c-0.2,1.1-1,2-2.7,2.6
		c-0.1-0.2-0.3-0.4-0.5-0.5c1.4-0.5,2.2-1.2,2.4-2.1h0c-0.2,0.3-0.5,0.5-1,0.5c-0.8,0-1.6-0.7-1.6-1.6c0-1,0.8-1.7,1.7-1.7
		c0.3,0,0.7,0.1,0.9,0.3c0-0.2,0-0.8,0-1.1c-1,0-3.9,0.1-4.3,0.1l0-0.6l2.1-0.1L33.6,7.7z M33.8,10.9c0-0.4,0-1.2-0.9-1.2
		c-0.6,0-1.1,0.5-1.1,1.1c0,0.6,0.5,1,1,1C33.5,11.9,33.8,11.4,33.8,10.9z"/>
	<path class="st1" d="M44.9,13.7c-0.8,0.1-1.9,0.2-2.8,0.2c-0.8,0-1.4,0-1.8-0.1c-1.1-0.2-1.6-0.9-1.6-1.7c0-0.7,0.4-1.4,0.9-1.9
		l0.5,0.3c-0.5,0.5-0.8,1.1-0.8,1.6c0,0.5,0.4,1,1.2,1.2c0.3,0.1,0.9,0.1,1.5,0.1c0.9,0,2-0.1,2.9-0.2L44.9,13.7z M40.8,9.2
		c0.5-0.4,1.1-0.8,1.6-1v0c-0.7,0.1-2.3,0.1-3.3,0.1c0-0.2,0-0.5,0-0.6h0.5c1.2,0,3.6,0,4.8-0.3L44.4,8c-0.3,0-0.5,0.1-1,0.3
		c-0.5,0.2-1.4,0.7-2.1,1.3L40.8,9.2z M44.9,10.4c-0.3-0.4-0.8-0.9-1.2-1.2L44,8.9c0.4,0.3,1,0.8,1.3,1.2L44.9,10.4z M45.9,9.6
		c-0.3-0.4-0.8-0.9-1.2-1.2l0.3-0.3c0.5,0.3,1,0.8,1.3,1.2L45.9,9.6z"/>
	<path class="st1" d="M54.5,8.9C54.5,9,54.4,9,54.2,9c-0.1,0.6-0.2,1.3-0.4,1.8c0.5,0.2,1,0.4,1.6,0.7l-0.3,0.6
		c-0.5-0.2-1-0.5-1.5-0.7c-0.4,1.3-1.1,2.2-2.1,2.9c-0.1-0.1-0.4-0.3-0.5-0.4c1-0.6,1.6-1.5,2-2.8c-0.9-0.4-1.8-0.6-2.5-0.7
		c-0.6,2.3-1.2,2.9-2.3,2.9s-1.3-0.9-1.3-1.4c0-1.4,1.5-2,3.1-2.1c0.2-0.7,0.4-1.6,0.5-2.5c-0.4,0-1.9,0.1-2.6,0.2
		c0,0.1-0.1,0.1-0.2,0.1L47.7,7c0.8,0,2.5-0.1,3.1-0.2c0.1,0,0.1-0.1,0.2-0.1L51.5,7c0,0.1-0.1,0.1-0.2,0.1c-0.1,1-0.4,2-0.6,2.8
		c0.7,0.1,1.6,0.3,2.5,0.6c0.2-0.5,0.3-1.2,0.4-2L54.5,8.9z M49.9,10.5c-1.3,0-2.4,0.5-2.4,1.5c0,0.5,0.3,0.8,0.7,0.8
		C48.9,12.8,49.3,12.6,49.9,10.5z"/>
</g>
</svg>
