<?xml version="1.0" encoding="utf-8"?>
<!-- Generator: Adobe Illustrator 19.2.0, SVG Export Plug-In . SVG Version: 6.00 Build 0)  -->
<svg version="1.1" id="レイヤー_1" xmlns="http://www.w3.org/2000/svg" xmlns:xlink="http://www.w3.org/1999/xlink" x="0px"
	 y="0px" viewBox="0 0 71 22" style="enable-background:new 0 0 71 22;" xml:space="preserve">
<style type="text/css">
	.st0{enable-background:new    ;}
	.st1{fill:#FCFAFA;}
</style>
<g class="st0">
	<path class="st1" d="M8.5,12.7c-0.9,0.1-2.2,0.2-3.4,0.2c0,0.5-0.1,1-0.1,1.3c0,2.2,1.5,2.4,2.9,2.4c2.3,0,3.4-0.6,3.4-1.9
		c0-0.7-0.4-1.6-1.2-2.6c0.3-0.1,0.7-0.2,0.9-0.3c0.9,1.1,1.3,2.2,1.3,3.1c0,2.4-2.7,2.7-4.4,2.7c-1.4,0-3.9-0.1-3.9-3.4
		c0-0.6,0.1-1.1,0.1-1.3c-1.2,0-3.1-0.1-3.1-1.6c0-0.6,0.4-1.2,1.2-1.8l0.8,0.4c-0.6,0.4-1,0.8-1,1.2c0,0.7,1.1,0.8,2.2,0.8
		c0.1-0.9,0.2-2,0.4-3.1c-1-0.1-2.2-0.4-3-0.8l0.3-0.9c0.8,0.4,1.8,0.6,2.9,0.8C4.8,7,4.9,6.1,5,5.3l1.5,0.2c0,0.2-0.2,0.3-0.5,0.3
		C5.9,6.4,5.8,7.2,5.7,8C6.1,8,6.5,8,7,8C7.5,8,8.1,8,8.6,8l0,0.9c-0.4,0-0.9,0-1.4,0c-0.6,0-1.1,0-1.6,0C5.4,9.9,5.3,11,5.2,12
		c1.1,0,2.4-0.1,3.3-0.2L8.5,12.7z"/>
	<path class="st1" d="M23.1,7.9c0.2,0,0.3,0,0.4,0c1.6,0,3.1,0.9,3.1,2.8c0,1.8-1.3,2.9-3.2,2.9c-0.8,0-2-0.3-2.9-1
		c0.1-0.2,0.2-0.6,0.3-0.8c0.8,0.6,1.8,0.9,2.6,0.9c1.4,0,2.2-0.7,2.2-2c0-1-0.7-1.8-2.3-1.8c-1.2,0-3.1,0.6-4.7,1.2
		c0.7,2.2,1.6,5.4,2.2,7.5l-1.1,0.2c-0.4-2-1.4-5.4-2-7.4c-0.9,0.3-2.2,0.7-3,1c0,0.1-0.1,0.3-0.2,0.3L14,10.6
		c0.9-0.3,2.4-0.7,3.4-1.1C16.9,8,16.5,6.8,16.3,6l1.5-0.3c0,0.2-0.1,0.3-0.3,0.4c0.3,1.1,0.6,2,0.9,3.1c1.6-0.5,3-1,4.1-1.1
		c-0.6-0.7-1.8-1.7-2.6-2.1l0.7-0.6c1,0.5,2.2,1.6,2.9,2.4L23.1,7.9z"/>
	<path class="st1" d="M35.2,7.3c0-0.3-0.1-1.8-0.1-2.2l1.5,0.1c0,0.1-0.1,0.3-0.4,0.3c0,0.2,0,0.3,0,1.8C38,7.3,39.9,7.2,41,7.2v1
		c-1.2,0-3,0-4.7,0.1c0,1.1,0.1,2.1,0.1,2.9c0.1,0.5,0.2,0.9,0.2,1.5c0,0.4,0,1-0.1,1.4C36,15.6,34.8,17,32.3,18
		c-0.2-0.2-0.5-0.6-0.7-0.8c2.2-0.8,3.4-1.9,3.7-3.3h0c-0.3,0.4-0.8,0.7-1.5,0.7c-1.3,0-2.4-1-2.4-2.5c0-1.5,1.2-2.6,2.6-2.6
		c0.5,0,1,0.2,1.3,0.4c0-0.2,0-1.2-0.1-1.8c-1.5,0-6,0.2-6.6,0.2l0-0.9l3.3-0.1L35.2,7.3z M35.5,12.3c0-0.5,0-1.8-1.5-1.8
		c-1,0-1.7,0.8-1.7,1.8c0,1,0.8,1.6,1.6,1.6C34.9,13.8,35.5,13.1,35.5,12.3z"/>
	<path class="st1" d="M52.7,16.6c-1.3,0.2-2.9,0.3-4.4,0.3c-1.2,0-2.2-0.1-2.8-0.2c-1.7-0.4-2.5-1.4-2.5-2.7c0-1.1,0.6-2.1,1.5-3
		l0.8,0.4c-0.8,0.8-1.3,1.7-1.3,2.5c0,0.8,0.6,1.6,1.8,1.8c0.5,0.1,1.3,0.2,2.3,0.2c1.4,0,3.1-0.1,4.5-0.4L52.7,16.6z M46.3,9.6
		C47,9,48,8.3,48.8,7.9v0c-1.1,0.1-3.6,0.2-5.2,0.2c0-0.3,0-0.7,0-1h0.8c1.8,0,5.6,0,7.4-0.4l0.1,1c-0.5,0.1-0.8,0.1-1.5,0.4
		c-0.8,0.3-2.2,1.1-3.3,2L46.3,9.6z M52.7,11.6c-0.4-0.6-1.3-1.5-1.9-1.9l0.5-0.4c0.7,0.5,1.5,1.3,2,1.9L52.7,11.6z M54.2,10.2
		c-0.4-0.6-1.3-1.4-1.9-1.9l0.5-0.4c0.7,0.5,1.5,1.3,2,1.9L54.2,10.2z"/>
	<path class="st1" d="M67.7,9.1c0,0.2-0.2,0.3-0.4,0.3c-0.2,1-0.4,2-0.6,2.9c0.8,0.3,1.6,0.7,2.4,1.1l-0.5,0.9
		c-0.8-0.4-1.5-0.7-2.3-1c-0.7,2-1.7,3.5-3.2,4.5c-0.2-0.2-0.6-0.4-0.8-0.6c1.5-1,2.4-2.3,3.1-4.3c-1.5-0.6-2.8-1-3.8-1
		c-1,3.5-1.9,4.5-3.6,4.5s-2.1-1.3-2.1-2.2c0-2.2,2.3-3.2,4.9-3.2c0.3-1.1,0.6-2.5,0.8-4c-0.7,0.1-3,0.2-4.1,0.3
		c-0.1,0.1-0.2,0.2-0.3,0.2l-0.1-1.1c1.2,0,3.9-0.2,4.8-0.3c0.2,0,0.2-0.1,0.3-0.2L63,6.2c-0.1,0.1-0.2,0.2-0.4,0.2
		c-0.2,1.6-0.6,3.2-0.9,4.4c1.1,0.1,2.4,0.5,3.9,1c0.2-0.8,0.5-1.9,0.6-3.1L67.7,9.1z M60.6,11.7c-2.1,0-3.7,0.8-3.7,2.3
		c0,0.8,0.4,1.3,1.1,1.3C58.9,15.3,59.6,14.9,60.6,11.7z"/>
</g>
</svg>
