<?xml version="1.0" encoding="utf-8"?>
<!-- Generator: Adobe Illustrator 19.2.0, SVG Export Plug-In . SVG Version: 6.00 Build 0)  -->
<svg version="1.1" id="レイヤー_1" xmlns="http://www.w3.org/2000/svg" xmlns:xlink="http://www.w3.org/1999/xlink" x="0px"
	 y="0px" viewBox="0 0 71 22" style="enable-background:new 0 0 71 22;" xml:space="preserve">
<style type="text/css">
	.st0{enable-background:new    ;}
	.st1{fill:#FCFAFA;}
</style>
<g class="st0">
	<path class="st1" d="M9.3,11.3c-0.8,0.1-1.9,0.1-2.9,0.1c0,0.4-0.1,0.9-0.1,1.1c0,1.9,1.3,2.1,2.5,2.1c1.9,0,2.9-0.5,2.9-1.6
		c0-0.6-0.3-1.4-1-2.2c0.2-0.1,0.6-0.2,0.8-0.3c0.8,0.9,1.1,1.9,1.1,2.6c0,2-2.3,2.3-3.8,2.3c-1.2,0-3.3-0.1-3.3-2.9
		c0-0.5,0-0.9,0.1-1.1c-1,0-2.7-0.1-2.7-1.3c0-0.5,0.3-1,1-1.5l0.7,0.4C4,9.2,3.6,9.6,3.6,10c0,0.6,1,0.7,1.9,0.7
		C5.7,9.8,5.8,8.9,5.9,8C5,7.9,4,7.6,3.3,7.3l0.2-0.8C4.2,6.8,5.1,7.1,6,7.2C6.1,6.4,6.2,5.6,6.2,5l1.3,0.2c0,0.1-0.2,0.2-0.4,0.2
		C7,5.9,7,6.6,6.9,7.2c0.4,0,0.7,0,1.1,0c0.5,0,0.9,0,1.4,0l0,0.8c-0.4,0-0.8,0-1.2,0c-0.5,0-1,0-1.4,0c-0.1,0.9-0.2,1.8-0.3,2.6
		c1,0,2.1-0.1,2.9-0.2L9.3,11.3z"/>
	<path class="st1" d="M21.8,7.2c0.1,0,0.2,0,0.4,0c1.3,0,2.7,0.8,2.7,2.4c0,1.6-1.1,2.5-2.8,2.5c-0.7,0-1.7-0.3-2.5-0.9
		c0.1-0.2,0.2-0.5,0.2-0.7c0.7,0.5,1.6,0.8,2.2,0.8c1.2,0,1.9-0.6,1.9-1.7C23.9,8.7,23.3,8,22,8c-1,0-2.7,0.5-4.1,1
		c0.6,1.9,1.4,4.6,1.8,6.4l-0.9,0.2c-0.4-1.7-1.2-4.6-1.7-6.3c-0.8,0.3-1.9,0.6-2.6,0.9c0,0.1-0.1,0.2-0.2,0.3l-0.4-1
		c0.8-0.2,2-0.6,2.9-0.9c-0.4-1.2-0.7-2.3-0.9-3l1.3-0.2c0,0.2,0,0.2-0.3,0.3c0.3,0.9,0.5,1.7,0.8,2.6c1.3-0.4,2.6-0.8,3.5-1
		c-0.6-0.6-1.5-1.4-2.2-1.8l0.6-0.5c0.8,0.5,1.9,1.4,2.5,2L21.8,7.2z"/>
	<path class="st1" d="M32.2,6.7c0-0.3,0-1.6-0.1-1.9l1.3,0c0,0.1-0.1,0.2-0.3,0.3c0,0.1,0,0.3,0,1.5c1.5,0,3.1-0.1,4-0.1v0.8
		c-1,0-2.5,0-4,0c0,0.9,0,1.8,0.1,2.5c0.1,0.4,0.1,0.8,0.1,1.3c0,0.4,0,0.8-0.1,1.2c-0.3,1.4-1.4,2.6-3.5,3.5
		c-0.2-0.2-0.4-0.5-0.6-0.7c1.9-0.7,2.9-1.7,3.2-2.8h0C32,12.7,31.5,13,31,13c-1.1,0-2.1-0.9-2.1-2.1c0-1.3,1-2.2,2.2-2.2
		c0.4,0,0.9,0.2,1.1,0.4c0-0.2,0-1,0-1.5c-1.3,0-5.2,0.2-5.7,0.2l0-0.8l2.8-0.1L32.2,6.7z M32.4,10.9c0-0.5,0-1.6-1.3-1.6
		c-0.8,0-1.5,0.6-1.5,1.5c0,0.8,0.7,1.4,1.4,1.4C31.9,12.3,32.4,11.6,32.4,10.9z"/>
	<path class="st1" d="M47.2,14.7c-1.1,0.2-2.5,0.3-3.8,0.3c-1,0-1.9-0.1-2.4-0.2c-1.5-0.3-2.1-1.2-2.1-2.3c0-0.9,0.5-1.8,1.3-2.6
		l0.7,0.4c-0.7,0.7-1.1,1.5-1.1,2.1c0,0.7,0.5,1.3,1.5,1.6c0.4,0.1,1.1,0.1,2,0.1c1.2,0,2.6-0.1,3.8-0.3L47.2,14.7z M41.7,8.6
		c0.6-0.5,1.5-1.1,2.2-1.4v0c-0.9,0.1-3.1,0.1-4.4,0.1c0-0.2,0-0.6,0-0.8h0.7c1.6,0,4.8,0,6.4-0.4L46.5,7c-0.4,0.1-0.7,0.1-1.3,0.4
		c-0.7,0.3-1.9,0.9-2.8,1.7L41.7,8.6z M47.2,10.3c-0.4-0.5-1.1-1.2-1.7-1.6l0.4-0.4c0.6,0.4,1.3,1.1,1.7,1.6L47.2,10.3z M48.5,9.2
		c-0.3-0.5-1.1-1.2-1.7-1.6l0.4-0.4c0.6,0.4,1.3,1.1,1.7,1.6L48.5,9.2z"/>
	<path class="st1" d="M60,8.2c0,0.1-0.2,0.2-0.4,0.2c-0.1,0.8-0.3,1.7-0.5,2.4c0.7,0.3,1.4,0.6,2.1,0.9l-0.4,0.8
		c-0.7-0.3-1.3-0.6-1.9-0.9c-0.6,1.7-1.4,3-2.7,3.8c-0.2-0.2-0.5-0.4-0.7-0.5c1.3-0.8,2.1-2,2.7-3.7c-1.2-0.5-2.4-0.8-3.3-0.9
		c-0.8,3-1.6,3.8-3.1,3.8s-1.8-1.2-1.8-1.9c0-1.9,2-2.7,4.2-2.7c0.3-1,0.5-2.1,0.7-3.4c-0.6,0-2.5,0.2-3.5,0.2
		c0,0.1-0.1,0.1-0.3,0.2l-0.1-1c1.1,0,3.3-0.2,4.1-0.3c0.1,0,0.2-0.1,0.3-0.1L56,5.8C56,5.9,55.9,5.9,55.7,6
		c-0.2,1.3-0.5,2.7-0.8,3.7c0.9,0.1,2.1,0.4,3.3,0.9c0.2-0.7,0.4-1.6,0.5-2.6L60,8.2z M53.9,10.4c-1.8,0-3.2,0.7-3.2,2
		c0,0.7,0.3,1.1,0.9,1.1C52.5,13.5,53.1,13.2,53.9,10.4z"/>
</g>
</svg>
