<?xml version="1.0" encoding="utf-8"?>
<!-- Generator: Adobe Illustrator 19.2.0, SVG Export Plug-In . SVG Version: 6.00 Build 0)  -->
<svg version="1.1" id="レイヤー_1" xmlns="http://www.w3.org/2000/svg" xmlns:xlink="http://www.w3.org/1999/xlink" x="0px"
	 y="0px" viewBox="0 0 120 23" style="enable-background:new 0 0 120 23;" xml:space="preserve">
<style type="text/css">
	.st0{enable-background:new    ;}
	.st1{fill:#FCFAFA;}
</style>
<g class="st0">
	<path class="st1" d="M27.2,11.1v0.5c0.5,0.3,1.8,1.4,2.2,1.6l-0.5,0.6c-0.3-0.3-1.1-1-1.7-1.5v2.9h-0.8v-3.2
		c-0.6,1-1.4,1.9-2.2,2.6c-0.1-0.2-0.3-0.5-0.5-0.7c0.9-0.6,1.9-1.8,2.5-2.9h-2.1v-0.7h2.4V9.1l1,0.1c0,0.1-0.1,0.1-0.2,0.2v1.1h2.1
		v0.7H27.2z M27.4,6.2h-1.2c-0.1,1.2-0.5,2.4-1.8,3.4c-0.1-0.2-0.4-0.4-0.6-0.5c1.2-0.9,1.5-1.9,1.6-2.9h-1.4V5.5h1.4V4.1l1,0.1
		c0,0.1-0.1,0.1-0.2,0.2v1.1h1.9v2.4c0,0.2,0,0.3,0.1,0.3h0.3c0.2,0,0.2-0.1,0.2-1.4C28.9,6.9,29.2,7,29.4,7c0,1.4-0.2,1.7-0.8,1.7
		h-0.5c-0.6,0-0.7-0.2-0.7-0.9V6.2z M35.4,13.9v0.7h-4.6v0.7H30V8.6c-0.2,0.5-0.5,0.9-0.8,1.2c-0.1-0.1-0.4-0.3-0.6-0.5
		c0.9-1.2,1.7-3.2,2.1-5.3l1,0.2c0,0.1-0.1,0.1-0.3,0.1c-0.1,0.7-0.3,1.3-0.6,2h1.7c0.3-0.7,0.5-1.6,0.7-2.2l1,0.3
		c0,0.1-0.1,0.1-0.3,0.1c-0.1,0.5-0.4,1.2-0.6,1.8h1.9v0.7h-1.9V9h1.8v0.7h-1.8v1.8h1.8v0.7h-1.8v1.8H35.4z M32.5,9V7.2h-1.8V9H32.5
		z M32.5,11.4V9.7h-1.8v1.8H32.5z M30.7,12.1v1.8h1.8v-1.8H30.7z"/>
	<path class="st1" d="M40.6,6.2v0.7h-4.4V6.2H40.6z M40.3,11.1v3.5h-2.8v0.6h-0.7v-4.1H40.3z M40.3,7.8v0.7h-3.5V7.8H40.3z
		 M36.8,10.1V9.4h3.5v0.7H36.8z M40.3,4.6v0.7h-3.4V4.6H40.3z M39.6,11.8h-2.1v2.2h2.1V11.8z M42.2,11.8c-0.1,1-0.4,2.2-1,2.9
		l-0.6-0.5c0.5-0.6,0.8-1.7,1-2.7L42.2,11.8z M43.9,8.8V6.6h-2.8V5.9h2.8V4.1L45,4.2c0,0.1-0.1,0.1-0.2,0.2v1.5h2.9v0.8h-2.9v2.1
		h2.7v0.7h-6.1V8.8H43.9z M43.6,14.1c0,0.3,0,0.3,0.4,0.3h1.2c0.3,0,0.4-0.2,0.4-1.3c0.2,0.1,0.5,0.3,0.7,0.3
		c-0.1,1.4-0.3,1.7-1,1.7h-1.4c-0.9,0-1.1-0.2-1.1-1v-2.9l1,0.1c0,0.1-0.1,0.1-0.2,0.2V14.1z M45,11.7c-0.4-0.5-1.3-1.2-2.1-1.6
		l0.5-0.5c0.8,0.4,1.7,1.1,2.2,1.5L45,11.7z M47.1,14.6c-0.2-0.8-0.7-2-1.4-2.9l0.7-0.3c0.7,0.9,1.2,2.1,1.4,2.9L47.1,14.6z"/>
	<path class="st1" d="M52.5,9.7c0,0.7-0.6,1.2-1.3,1.2c-0.7,0-1.3-0.6-1.3-1.2s0.6-1.2,1.3-1.2C51.9,8.5,52.5,9.1,52.5,9.7z"/>
	<path class="st1" d="M65.4,9.6h-4.3c-0.3,2.3-1.1,4-3.5,5.3c-0.2-0.2-0.5-0.4-0.7-0.6c2.2-1.2,3-2.7,3.3-4.8h-5V8.9h5.1
		c0.1-0.8,0.1-1.6,0.1-2.6c-1.3,0.3-2.9,0.5-4.2,0.7c-0.1-0.2-0.1-0.5-0.3-0.7c4.3-0.5,6.9-1.3,7.6-1.7l0.7,0.7c0,0-0.1,0-0.2,0
		c0,0-0.1,0-0.1,0c-0.7,0.3-1.8,0.6-2.8,0.8l0.4,0c0,0.1-0.1,0.2-0.3,0.2c0,0.9,0,1.7-0.1,2.5h4.2V9.6z"/>
	<path class="st1" d="M76.5,8.4c0,0-0.1,0.1-0.2,0.1c-1,3.6-3.1,5.4-6.7,6.4c-0.1-0.2-0.3-0.5-0.5-0.7c3.3-0.8,5.4-2.5,6.2-5.3h-8.2
		V8.1h8.5L75.8,8L76.5,8.4z M75.4,5.8h-7V5h7V5.8z"/>
	<path class="st1" d="M78.5,7.9C79.6,8.2,81,8.6,81.8,9l-0.4,0.8c-0.8-0.4-2.2-0.9-3.3-1.1L78.5,7.9z M79.3,13.8
		c4-1.3,6.7-3.4,8.4-7c0.2,0.2,0.6,0.4,0.8,0.5c-1.6,3.6-4.5,5.8-8.3,7.1c0,0.1,0,0.3-0.1,0.3L79.3,13.8z M79.9,5
		c1.1,0.3,2.5,0.8,3.3,1.2l-0.4,0.7c-0.9-0.4-2.2-0.9-3.3-1.2L79.9,5z"/>
</g>
</svg>
