<?xml version="1.0" encoding="utf-8"?>
<!-- Generator: Adobe Illustrator 19.2.0, SVG Export Plug-In . SVG Version: 6.00 Build 0)  -->
<svg version="1.1" id="レイヤー_1" xmlns="http://www.w3.org/2000/svg" xmlns:xlink="http://www.w3.org/1999/xlink" x="0px"
	 y="0px" viewBox="0 0 120 23" style="enable-background:new 0 0 120 23;" xml:space="preserve">
<style type="text/css">
	.st0{enable-background:new    ;}
	.st1{fill:#FCFAFA;}
</style>
<g class="st0">
	<path class="st1" d="M11.1,14.5v0.8c0.8,0.5,2.8,2.1,3.3,2.5l-0.7,0.9c-0.5-0.5-1.6-1.5-2.5-2.3v4.3H9.9V16
		c-0.9,1.5-2.2,2.9-3.3,3.8c-0.1-0.3-0.4-0.7-0.7-1c1.3-0.9,2.8-2.6,3.7-4.3H6.4v-1.1h3.5v-2l1.5,0.1c0,0.1-0.1,0.2-0.4,0.2v1.7h3.2
		v1.1H11.1z M11.4,7.1H9.5c-0.1,1.7-0.7,3.6-2.7,5.1C6.7,12,6.3,11.6,6,11.5c1.8-1.3,2.3-2.9,2.5-4.4h-2V6h2.1v-2L10,4.2
		c0,0.1-0.1,0.2-0.4,0.2V6h2.8v3.6c0,0.3,0,0.4,0.2,0.4h0.4c0.3,0,0.3-0.2,0.3-2.1c0.2,0.2,0.6,0.3,0.9,0.4C14.3,10.5,14,11,13.2,11
		h-0.8c-0.9,0-1.1-0.3-1.1-1.3V7.1z M23.3,18.7v1.1h-7v1h-1.2v-10c-0.4,0.7-0.7,1.3-1.1,1.9c-0.2-0.2-0.6-0.5-0.9-0.7
		c1.4-1.8,2.5-4.8,3.2-7.9l1.5,0.4c0,0.1-0.2,0.2-0.4,0.2c-0.2,1-0.5,2-0.8,3H19c0.4-1,0.8-2.3,1-3.3l1.5,0.4c0,0.1-0.2,0.2-0.4,0.2
		c-0.2,0.8-0.6,1.8-0.9,2.7h2.9v1.1h-2.9v2.6h2.7v1.1h-2.7V15h2.7V16h-2.7v2.7H23.3z M19,11.3V8.7h-2.7v2.6H19z M19,15v-2.6h-2.7V15
		H19z M16.3,16v2.7H19V16H16.3z"/>
	<path class="st1" d="M31.2,7.1v1h-6.6v-1H31.2z M30.7,14.5v5.3h-4.3v0.8h-1.1v-6.1H30.7z M30.7,9.6v1h-5.3v-1H30.7z M25.4,13v-1
		h5.3v1H25.4z M30.6,4.7v1h-5.1v-1H30.6z M29.7,15.5h-3.2v3.2h3.2V15.5z M33.6,15.5c-0.2,1.5-0.6,3.3-1.5,4.4l-1-0.7
		c0.8-0.9,1.2-2.5,1.4-4L33.6,15.5z M36.1,11V7.8h-4.2V6.7h4.2V4.1l1.6,0.1c0,0.1-0.1,0.2-0.4,0.3v2.3h4.4v1.1h-4.4V11h4.1v1.1h-9.1
		V11H36.1z M35.7,19c0,0.4,0.1,0.5,0.6,0.5h1.8c0.5,0,0.6-0.3,0.6-1.9c0.3,0.2,0.8,0.4,1.1,0.5c-0.1,2.1-0.4,2.6-1.6,2.6h-2.1
		c-1.3,0-1.7-0.3-1.7-1.6v-4.3l1.6,0.1c0,0.1-0.1,0.2-0.4,0.2V19z M37.7,15.3c-0.6-0.7-2-1.7-3.2-2.4l0.8-0.8
		c1.2,0.6,2.6,1.6,3.2,2.3L37.7,15.3z M40.9,19.7c-0.3-1.2-1.1-3-2-4.3l1-0.4c1,1.3,1.8,3.1,2.1,4.3L40.9,19.7z"/>
	<path class="st1" d="M49,12.4c0,1-0.9,1.9-1.9,1.9s-1.9-0.8-1.9-1.9c0-1,0.9-1.9,1.9-1.9C48.2,10.6,49,11.4,49,12.4z"/>
	<path class="st1" d="M68.4,12.3h-6.4c-0.4,3.5-1.6,6-5.2,8c-0.3-0.3-0.7-0.6-1-0.9c3.3-1.8,4.5-4,4.9-7.2h-7.5v-1.2h7.6
		c0.1-1.2,0.1-2.4,0.1-3.9c-1.9,0.4-4.3,0.8-6.4,1c-0.1-0.3-0.2-0.7-0.4-1c6.5-0.8,10.3-2,11.5-2.5l1,1.1c-0.1,0-0.1,0.1-0.2,0.1
		c-0.1,0-0.1,0-0.2,0c-1,0.4-2.7,0.8-4.1,1.2l0.6,0.1c0,0.2-0.1,0.3-0.4,0.3c0,1.4,0,2.6-0.1,3.7h6.3V12.3z"/>
	<path class="st1" d="M85,10.4c0,0.1-0.1,0.1-0.2,0.2c-1.5,5.4-4.6,8.1-10.1,9.6c-0.2-0.3-0.5-0.8-0.8-1c5-1.2,8.1-3.7,9.3-7.9H71
		V10h12.8l0.2-0.1L85,10.4z M83.3,6.6H72.8V5.4h10.5V6.6z"/>
	<path class="st1" d="M88,9.8c1.7,0.4,3.7,1,5,1.6l-0.6,1.1c-1.2-0.6-3.3-1.3-5-1.7L88,9.8z M89.2,18.6c6-2,10.1-5.1,12.6-10.5
		c0.3,0.2,0.9,0.6,1.1,0.8c-2.5,5.3-6.8,8.7-12.4,10.6c0,0.2-0.1,0.4-0.2,0.5L89.2,18.6z M90.1,5.3c1.7,0.4,3.7,1.2,5,1.8l-0.6,1.1
		c-1.3-0.6-3.2-1.4-4.9-1.8L90.1,5.3z"/>
</g>
</svg>
