<?xml version="1.0" encoding="utf-8"?>
<!-- Generator: Adobe Illustrator 19.2.0, SVG Export Plug-In . SVG Version: 6.00 Build 0)  -->
<svg version="1.1" id="レイヤー_1" xmlns="http://www.w3.org/2000/svg" xmlns:xlink="http://www.w3.org/1999/xlink" x="0px"
	 y="0px" viewBox="0 0 120 23" style="enable-background:new 0 0 120 23;" xml:space="preserve">
<style type="text/css">
	.st0{fill:#FCFAFA;}
	.st1{font-family:'KozGoPr6N-Regular-90ms-RKSJ-H';}
	.st2{font-size:9px;}
	.st3{fill:#73A62E;stroke:#FFFFFF;stroke-width:8.578608e-002;stroke-linecap:round;stroke-linejoin:round;stroke-miterlimit:10;}
	.st4{fill:#FFFFFF;}
	.st5{fill:#FFFFFF;stroke:#FFFFFF;stroke-width:1.542440e-002;stroke-linecap:round;stroke-linejoin:round;stroke-miterlimit:10;}
</style>
<text transform="matrix(1.0266 0 0 1 40.4129 14.8401)" class="st0 st1 st2">雑誌・チラシ</text>
<g>
	<path class="st3" d="M32.2,10.1c0,0-3.3,0.1-3.1,1.8c0.1,1.6,1.1,3.8,1.1,3.8s0.7-0.6,3.7-0.4L33,10.9l-0.2,0l0-0.3l-0.3,0l0-0.3
		l-0.3,0L32.2,10.1z"/>
	<path class="st3" d="M32,10.1c0,0-3.1,0.1-3,1.8c0.1,1.6,1.1,3.8,1.1,3.8s0.2-1.4,3.2-1.3L32,10.1z"/>
	<path class="st3" d="M25.4,11.2c0,0,2.8-1,3.5,0.4c0.7,1.4,1.2,4.1,1.2,4.1s-1.4-0.6-4.3,0.5L25,12.1l0.3-0.1L25,11.8l0.3-0.1
		l-0.1-0.3l0.3-0.1L25.4,11.2z"/>
	<path class="st3" d="M25.5,11c0,0,2.7-0.8,3.4,0.7c0.7,1.4,1.2,4.1,1.2,4.1s-0.8-1.4-3.8-0.6L25.5,11z"/>
	<polygon class="st3" points="35.2,14.7 30.1,12.9 32.6,5.8 37.8,7.6 	"/>
	<polygon class="st3" points="35.4,15.1 30.3,13.4 32.9,6.2 38,8 	"/>
	<polygon class="st4" points="37.2,9.7 32.4,8 33,6.5 37.8,8.2 	"/>
	<polygon class="st5" points="33,9.7 32,9.4 32.4,8.2 33.4,8.5 	"/>
	<line class="st5" x1="32.9" y1="9.9" x2="31.9" y2="9.6"/>
	<line class="st5" x1="32" y1="9.5" x2="32.9" y2="9.8"/>
	<line class="st5" x1="32.8" y1="10.1" x2="31.8" y2="9.7"/>
	<line class="st5" x1="31.9" y1="9.6" x2="32.9" y2="10"/>
	<polygon class="st5" points="34.2,10.1 33.2,9.8 33.6,8.6 34.6,9 	"/>
	<line class="st5" x1="34.2" y1="10.3" x2="33.2" y2="10"/>
	<line class="st5" x1="33.2" y1="9.9" x2="34.2" y2="10.3"/>
	<line class="st5" x1="34.1" y1="10.5" x2="33.1" y2="10.2"/>
	<line class="st5" x1="33.1" y1="10.1" x2="34.1" y2="10.4"/>
	<polygon class="st5" points="35.4,10.6 34.4,10.2 34.9,9 35.9,9.4 	"/>
	<line class="st5" x1="35.4" y1="10.8" x2="34.4" y2="10.4"/>
	<line class="st5" x1="34.4" y1="10.3" x2="35.4" y2="10.7"/>
	<line class="st5" x1="35.3" y1="10.9" x2="34.3" y2="10.6"/>
	<line class="st5" x1="34.3" y1="10.5" x2="35.3" y2="10.9"/>
	<polygon class="st5" points="36.7,11 35.7,10.7 36.1,9.5 37.1,9.8 	"/>
	<line class="st5" x1="36.6" y1="11.2" x2="35.6" y2="10.9"/>
	<line class="st5" x1="35.6" y1="10.8" x2="36.6" y2="11.1"/>
	<line class="st5" x1="36.5" y1="11.4" x2="35.5" y2="11"/>
	<line class="st5" x1="35.6" y1="11" x2="36.6" y2="11.3"/>
	<polygon class="st5" points="32.3,11.4 31.4,11.1 31.8,9.9 32.8,10.3 	"/>
	<line class="st5" x1="32.3" y1="11.6" x2="31.3" y2="11.3"/>
	<line class="st5" x1="31.3" y1="11.2" x2="32.3" y2="11.6"/>
	<line class="st5" x1="32.2" y1="11.8" x2="31.2" y2="11.5"/>
	<line class="st5" x1="31.2" y1="11.4" x2="32.2" y2="11.7"/>
	<polygon class="st5" points="33.6,11.9 32.6,11.5 33,10.3 34,10.7 	"/>
	<line class="st5" x1="33.5" y1="12.1" x2="32.5" y2="11.7"/>
	<line class="st5" x1="32.6" y1="11.6" x2="33.5" y2="12"/>
	<line class="st5" x1="33.4" y1="12.2" x2="32.4" y2="11.9"/>
	<line class="st5" x1="32.5" y1="11.8" x2="33.5" y2="12.2"/>
	<polygon class="st5" points="34.8,12.3 33.8,12 34.2,10.8 35.2,11.1 	"/>
	<line class="st5" x1="34.8" y1="12.5" x2="33.8" y2="12.2"/>
	<line class="st5" x1="33.8" y1="12.1" x2="34.8" y2="12.4"/>
	<line class="st5" x1="34.7" y1="12.7" x2="33.7" y2="12.3"/>
	<line class="st5" x1="33.7" y1="12.2" x2="34.7" y2="12.6"/>
	<polygon class="st5" points="36,12.7 35,12.4 35.5,11.2 36.5,11.6 	"/>
	<line class="st5" x1="36" y1="12.9" x2="35" y2="12.6"/>
	<line class="st5" x1="35" y1="12.5" x2="36" y2="12.9"/>
	<line class="st5" x1="35.9" y1="13.1" x2="34.9" y2="12.8"/>
	<line class="st5" x1="34.9" y1="12.7" x2="35.9" y2="13"/>
	<polygon class="st5" points="31.7,13.2 30.7,12.8 31.2,11.6 32.1,12 	"/>
	<line class="st5" x1="31.7" y1="13.4" x2="30.7" y2="13"/>
	<line class="st5" x1="30.7" y1="12.9" x2="31.7" y2="13.3"/>
	<line class="st5" x1="31.6" y1="13.5" x2="30.6" y2="13.2"/>
	<line class="st5" x1="30.6" y1="13.1" x2="31.6" y2="13.4"/>
	<polygon class="st5" points="32.9,13.6 32,13.3 32.4,12.1 33.4,12.4 	"/>
	<line class="st5" x1="32.9" y1="13.8" x2="31.9" y2="13.5"/>
	<line class="st5" x1="31.9" y1="13.4" x2="32.9" y2="13.7"/>
	<line class="st5" x1="32.8" y1="14" x2="31.8" y2="13.6"/>
	<line class="st5" x1="31.8" y1="13.5" x2="32.8" y2="13.9"/>
	<polygon class="st5" points="34.2,14 33.2,13.7 33.6,12.5 34.6,12.9 	"/>
	<line class="st5" x1="34.1" y1="14.2" x2="33.1" y2="13.9"/>
	<line class="st5" x1="33.1" y1="13.8" x2="34.1" y2="14.2"/>
	<line class="st5" x1="34" y1="14.4" x2="33" y2="14.1"/>
	<line class="st5" x1="33.1" y1="14" x2="34.1" y2="14.3"/>
	<polygon class="st5" points="35.4,14.5 34.4,14.1 34.8,12.9 35.8,13.3 	"/>
	<line class="st5" x1="35.3" y1="14.7" x2="34.4" y2="14.3"/>
	<line class="st5" x1="34.4" y1="14.2" x2="35.4" y2="14.6"/>
	<line class="st5" x1="35.3" y1="14.8" x2="34.3" y2="14.5"/>
	<line class="st5" x1="34.3" y1="14.4" x2="35.3" y2="14.8"/>
</g>
</svg>
