<?xml version="1.0" encoding="utf-8"?>
<!-- Generator: Adobe Illustrator 19.2.0, SVG Export Plug-In . SVG Version: 6.00 Build 0)  -->
<svg version="1.1" id="レイヤー_1" xmlns="http://www.w3.org/2000/svg" xmlns:xlink="http://www.w3.org/1999/xlink" x="0px"
	 y="0px" viewBox="0 0 120 23" style="enable-background:new 0 0 120 23;" xml:space="preserve">
<style type="text/css">
	.st0{enable-background:new    ;}
	.st1{fill:#FCFAFA;}
</style>
<g class="st0">
	<path class="st1" d="M35.3,11.9v0.4c0.4,0.3,1.4,1,1.6,1.2L36.6,14c-0.2-0.3-0.8-0.8-1.3-1.1v2.2h-0.6v-2.4
		c-0.5,0.7-1.1,1.5-1.7,1.9c-0.1-0.2-0.2-0.4-0.4-0.5c0.7-0.4,1.4-1.3,1.8-2.2h-1.6v-0.5h1.8v-1l0.8,0.1c0,0.1-0.1,0.1-0.2,0.1v0.8
		h1.6v0.5H35.3z M35.4,8.2h-0.9c-0.1,0.9-0.4,1.8-1.4,2.5c-0.1-0.1-0.3-0.3-0.4-0.4c0.9-0.6,1.1-1.4,1.2-2.2h-1V7.7H34v-1l0.7,0
		c0,0.1-0.1,0.1-0.2,0.1v0.8H36v1.8c0,0.2,0,0.2,0.1,0.2h0.2c0.1,0,0.2-0.1,0.2-1c0.1,0.1,0.3,0.2,0.5,0.2c0,1.1-0.2,1.3-0.6,1.3H36
		c-0.4,0-0.5-0.1-0.5-0.7V8.2z M41.4,14v0.6h-3.5v0.5h-0.6v-5c-0.2,0.3-0.4,0.7-0.6,0.9c-0.1-0.1-0.3-0.3-0.4-0.4
		c0.7-0.9,1.2-2.4,1.6-4l0.7,0.2c0,0.1-0.1,0.1-0.2,0.1c-0.1,0.5-0.3,1-0.4,1.5h1.3c0.2-0.5,0.4-1.2,0.5-1.7L40.5,7
		c0,0.1-0.1,0.1-0.2,0.1C40.2,7.5,40,8,39.9,8.4h1.5V9h-1.5v1.3h1.4v0.5h-1.4v1.3h1.4v0.5h-1.4V14H41.4z M39.3,10.3V9h-1.3v1.3H39.3
		z M39.3,12.1v-1.3h-1.3v1.3H39.3z M37.9,12.7V14h1.3v-1.3H37.9z"/>
	<path class="st1" d="M45.4,8.2v0.5h-3.3V8.2H45.4z M45.1,11.9v2.6H43v0.4h-0.5v-3.1H45.1z M45.1,9.4v0.5h-2.6V9.4H45.1z M42.5,11.1
		v-0.5h2.6v0.5H42.5z M45.1,7v0.5h-2.6V7H45.1z M44.6,12.4H43V14h1.6V12.4z M46.5,12.4c-0.1,0.8-0.3,1.7-0.8,2.2l-0.5-0.4
		c0.4-0.5,0.6-1.3,0.7-2L46.5,12.4z M47.8,10.1V8.5h-2.1V8h2.1V6.7l0.8,0c0,0.1-0.1,0.1-0.2,0.1V8h2.2v0.6h-2.2v1.6h2v0.6h-4.6v-0.6
		H47.8z M47.6,14.1c0,0.2,0,0.3,0.3,0.3h0.9c0.2,0,0.3-0.1,0.3-1c0.1,0.1,0.4,0.2,0.5,0.2c-0.1,1-0.2,1.3-0.8,1.3h-1.1
		c-0.7,0-0.8-0.2-0.8-0.8V12l0.8,0.1c0,0.1-0.1,0.1-0.2,0.1V14.1z M48.6,12.3c-0.3-0.4-1-0.9-1.6-1.2l0.4-0.4
		c0.6,0.3,1.3,0.8,1.6,1.2L48.6,12.3z M50.2,14.5c-0.1-0.6-0.6-1.5-1-2.2l0.5-0.2c0.5,0.7,0.9,1.5,1.1,2.2L50.2,14.5z"/>
	<path class="st1" d="M54.2,10.9c0,0.5-0.4,0.9-1,0.9c-0.5,0-1-0.4-1-0.9s0.4-0.9,1-0.9C53.8,9.9,54.2,10.4,54.2,10.9z"/>
	<path class="st1" d="M63.9,10.8h-3.2c-0.2,1.7-0.8,3-2.6,4c-0.1-0.1-0.4-0.3-0.5-0.4c1.7-0.9,2.3-2,2.5-3.6h-3.8v-0.6h3.8
		c0-0.6,0-1.2,0.1-1.9C59.2,8.5,58,8.7,57,8.8c0-0.2-0.1-0.4-0.2-0.5C60,7.9,62,7.3,62.5,7L63,7.6c0,0-0.1,0-0.1,0c0,0-0.1,0-0.1,0
		c-0.5,0.2-1.3,0.4-2.1,0.6l0.3,0c0,0.1-0.1,0.1-0.2,0.2c0,0.7,0,1.3-0.1,1.9h3.2V10.8z"/>
	<path class="st1" d="M72.3,9.9c0,0-0.1,0.1-0.1,0.1c-0.8,2.7-2.3,4-5.1,4.8c-0.1-0.2-0.3-0.4-0.4-0.5c2.5-0.6,4.1-1.9,4.7-4h-6.1
		V9.6h6.4l0.1-0.1L72.3,9.9z M71.4,7.9h-5.3V7.3h5.3V7.9z"/>
	<path class="st1" d="M73.8,9.5c0.8,0.2,1.9,0.5,2.5,0.8L76,10.9c-0.6-0.3-1.7-0.6-2.5-0.8L73.8,9.5z M74.3,13.9
		c3-1,5.1-2.5,6.3-5.2C80.8,8.8,81,9,81.2,9.1c-1.2,2.7-3.4,4.3-6.2,5.3c0,0.1,0,0.2-0.1,0.2L74.3,13.9z M74.8,7.3
		c0.8,0.2,1.8,0.6,2.5,0.9L77,8.7c-0.7-0.3-1.6-0.7-2.4-0.9L74.8,7.3z"/>
</g>
</svg>
