<?xml version="1.0" encoding="utf-8"?>
<!-- Generator: Adobe Illustrator 19.2.0, SVG Export Plug-In . SVG Version: 6.00 Build 0)  -->
<svg version="1.1" id="レイヤー_1" xmlns="http://www.w3.org/2000/svg" xmlns:xlink="http://www.w3.org/1999/xlink" x="0px"
	 y="0px" viewBox="0 0 120 23" style="enable-background:new 0 0 120 23;" xml:space="preserve">
<style type="text/css">
	.st0{enable-background:new    ;}
	.st1{fill:#231815;}
</style>
<g class="st0">
	<path class="st1" d="M11.4,14.3v0.9c0.8,0.6,2.9,2.2,3.4,2.6l-0.8,1c-0.5-0.5-1.7-1.6-2.7-2.4v4.6h-1.2v-5.1
		c-1,1.6-2.3,3.1-3.5,4.1c-0.2-0.3-0.5-0.8-0.7-1c1.4-0.9,3-2.8,3.9-4.6H6.4v-1.1h3.8V11l1.6,0.1c0,0.1-0.1,0.2-0.4,0.2v1.8h3.4v1.1
		H11.4z M11.8,6.4h-2C9.6,8.2,9,10.2,6.9,11.8C6.7,11.5,6.3,11.1,6,11c1.9-1.4,2.4-3.1,2.6-4.6H6.5V5.2h2.2V3.1l1.5,0.1
		c0,0.1-0.1,0.2-0.4,0.2v1.7h3v3.9c0,0.4,0,0.4,0.2,0.4h0.5c0.3,0,0.3-0.2,0.4-2.2c0.2,0.2,0.7,0.4,1,0.5c-0.1,2.3-0.4,2.8-1.2,2.8
		h-0.8c-0.9,0-1.2-0.3-1.2-1.4V6.4z M24.4,18.7v1.2H17v1.1h-1.2V10.3c-0.4,0.7-0.8,1.4-1.2,2c-0.2-0.2-0.7-0.6-0.9-0.7
		c1.4-1.9,2.6-5.1,3.4-8.4l1.5,0.4c0,0.1-0.2,0.2-0.4,0.2c-0.2,1-0.5,2.1-0.9,3.1h2.7c0.4-1,0.9-2.5,1.1-3.5l1.5,0.4
		c0,0.1-0.2,0.2-0.4,0.2c-0.2,0.8-0.6,1.9-1,2.9h3.1v1.2h-3.1v2.7H24v1.1h-2.9v2.8H24v1.1h-2.9v2.8H24.4z M19.8,10.8V8.1H17v2.7
		H19.8z M19.8,14.7v-2.8H17v2.8H19.8z M17,15.8v2.8h2.8v-2.8H17z"/>
	<path class="st1" d="M32.8,6.4v1.1h-7V6.4H32.8z M32.3,14.2v5.6h-4.5v0.9h-1.1v-6.5H32.3z M32.2,9V10h-5.6V9H32.2z M26.6,12.6v-1
		h5.6v1H26.6z M32.2,3.9v1h-5.4v-1H32.2z M31.1,15.3h-3.4v3.4h3.4V15.3z M35.3,15.3c-0.2,1.6-0.6,3.5-1.6,4.7l-1-0.7
		c0.9-1,1.3-2.7,1.5-4.2L35.3,15.3z M37.9,10.5V7.1h-4.5V5.9h4.5V3.1l1.7,0.1c0,0.2-0.1,0.2-0.4,0.3v2.4h4.7v1.2h-4.7v3.4h4.3v1.2
		h-9.7v-1.2H37.9z M37.5,19c0,0.5,0.1,0.5,0.6,0.5h1.9c0.5,0,0.6-0.3,0.6-2.1c0.3,0.2,0.8,0.4,1.2,0.5c-0.1,2.2-0.5,2.7-1.6,2.7H38
		c-1.4,0-1.8-0.4-1.8-1.7v-4.6l1.7,0.1c0,0.1-0.1,0.2-0.4,0.2V19z M39.6,15.1c-0.7-0.8-2.1-1.8-3.4-2.5l0.8-0.8
		c1.2,0.7,2.7,1.7,3.4,2.4L39.6,15.1z M43,19.8c-0.3-1.3-1.2-3.2-2.2-4.6l1.1-0.4c1,1.4,1.9,3.3,2.3,4.6L43,19.8z"/>
	<path class="st1" d="M51.6,12c0,1.1-0.9,2-2,2c-1.1,0-2-0.9-2-2c0-1.1,0.9-2,2-2C50.7,10.1,51.6,11,51.6,12z"/>
	<path class="st1" d="M72.2,11.9h-6.8c-0.4,3.7-1.7,6.4-5.5,8.5c-0.3-0.3-0.8-0.7-1.1-0.9c3.5-1.9,4.8-4.2,5.2-7.6h-8v-1.3H64
		c0.1-1.3,0.1-2.6,0.1-4.1c-2,0.4-4.6,0.9-6.7,1.1c-0.1-0.4-0.2-0.7-0.4-1.1c6.9-0.8,10.9-2.1,12.1-2.6l1,1.1
		c-0.1,0-0.2,0.1-0.3,0.1c-0.1,0-0.1,0-0.2,0c-1.1,0.4-2.8,0.9-4.4,1.3L66,6.4c0,0.2-0.2,0.3-0.4,0.3c0,1.4,0,2.7-0.1,3.9h6.7V11.9z
		"/>
	<path class="st1" d="M89.8,9.9c0,0.1-0.1,0.2-0.3,0.2c-1.6,5.8-4.9,8.6-10.7,10.2c-0.2-0.3-0.5-0.8-0.8-1.1c5.3-1.3,8.6-4,9.9-8.4
		h-13V9.4h13.6l0.2-0.1L89.8,9.9z M88,5.8H76.8V4.6H88V5.8z"/>
	<path class="st1" d="M93,9.2c1.8,0.4,4,1.1,5.3,1.7l-0.6,1.2c-1.3-0.6-3.5-1.4-5.3-1.8L93,9.2z M94.2,18.5
		c6.4-2.1,10.7-5.4,13.3-11.1c0.3,0.2,0.9,0.6,1.2,0.8c-2.6,5.7-7.2,9.2-13.2,11.3c0,0.2-0.1,0.4-0.2,0.5L94.2,18.5z M95.2,4.4
		c1.8,0.5,3.9,1.2,5.3,1.9l-0.6,1.2c-1.4-0.7-3.4-1.5-5.2-1.9L95.2,4.4z"/>
</g>
</svg>
